<?xml version="1.0" encoding="utf-8"?>
<!-- Generator: Adobe Illustrator 16.0.0, SVG Export Plug-In . SVG Version: 6.00 Build 0)  -->
<!DOCTYPE svg PUBLIC "-//W3C//DTD SVG 1.1//EN" "http://www.w3.org/Graphics/SVG/1.1/DTD/svg11.dtd">
<svg version="1.1" id="Capa_1" xmlns="http://www.w3.org/2000/svg" xmlns:xlink="http://www.w3.org/1999/xlink" x="0px" y="0px"
	 width="124px" height="80px" viewBox="0 0 124 80" enable-background="new 0 0 124 80" xml:space="preserve">
<g>
	<g>
		<path fill="#050306" d="M114.094,33.803c0,0-0.727,0.614-2.09,1.764c-0.682,0.576-1.615,1.225-2.663,2.019
			c-0.528,0.396-1.13,0.756-1.753,1.176c-0.628,0.412-1.288,0.862-2.028,1.266c-2.893,1.725-6.576,3.563-11.026,5.062
			c-4.446,1.493-9.667,2.618-15.443,2.94c-5.767,0.226-12.102-0.262-18.456-2.314c-3.163-1.032-6.322-2.493-9.185-4.582
			c-2.855-2.062-5.412-4.844-7.006-8.219c-1.612-3.347-2.398-7.157-2.176-10.994c0.232-3.83,1.512-7.699,4.038-10.853
			c2.488-3.117,6.174-5.261,10.09-6.136c3.915-0.897,8.198-0.601,11.944,1.217c0.932,0.456,1.818,1.013,2.642,1.653
			c0.429,0.324,0.78,0.643,1.208,1.05c0.335,0.345,0.66,0.649,1.018,1.087c1.391,1.605,2.391,3.388,3.147,5.284
			c1.479,3.784,1.871,7.91,1.417,11.793c-0.394,3.941-1.528,7.645-2.841,11.147c-1.333,3.481-2.766,6.865-4.478,10.113
			c-3.4,6.465-7.854,12.209-13.112,16.516c-5.246,4.325-11.169,7.142-16.822,8.739c-5.672,1.636-11.039,2.108-15.788,2.185
			c-4.86-0.004-9.053-1.179-12.148-2.822c-3.121-1.634-5.103-3.735-6.126-5.326c-0.523-0.795-0.826-1.46-1.034-1.901
			c-0.184-0.453-0.279-0.687-0.279-0.687c-0.148-0.365,0.027-0.782,0.392-0.93c0.346-0.141,0.738,0.009,0.905,0.336l0.021,0.042
			c0,0,0.101,0.2,0.297,0.586c0.218,0.375,0.53,0.938,1.046,1.595c1.012,1.313,2.83,3.065,5.724,4.355
			c2.873,1.277,6.729,2.197,11.16,2.001c4.509-0.207,9.641-0.861,14.93-2.473c5.271-1.634,10.743-4.253,15.583-8.303
			c4.882-3.984,9.104-9.303,12.376-15.443c1.636-3.055,3.06-6.356,4.374-9.722c1.263-3.359,2.418-6.801,2.821-10.326
			c0.485-3.538,0.181-7.158-1.037-10.473c-0.61-1.635-1.479-3.219-2.559-4.511c-0.23-0.31-0.59-0.668-0.911-1.011
			c-0.258-0.25-0.603-0.582-0.93-0.835c-0.666-0.541-1.387-1.02-2.157-1.417c-6.217-3.192-14.793-1.46-19.29,3.953
			c-2.234,2.667-3.477,6.163-3.737,9.64c-0.258,3.496,0.408,7.027,1.845,10.129c1.415,3.122,3.71,5.708,6.377,7.706
			c2.668,2.003,5.689,3.399,8.728,4.413c6.11,2.008,12.31,2.521,17.921,2.324c5.631-0.29,10.735-1.364,15.084-2.802
			c4.36-1.428,7.951-3.248,10.756-4.956c0.72-0.399,1.36-0.842,1.969-1.248c0.603-0.413,1.194-0.771,1.698-1.155
			c1.007-0.777,1.882-1.387,2.56-1.967c1.355-1.16,2.078-1.778,2.078-1.778c0.3-0.257,0.751-0.222,1.008,0.078
			c0.256,0.3,0.222,0.751-0.078,1.007L114.094,33.803z"/>
	</g>
	<g>
		<path fill="#050306" d="M111.551,28.469c0.555-0.047,1.106-0.118,1.652-0.218c0.548-0.087,1.093-0.193,1.636-0.313
			c1.048-0.31,2.08-0.678,3.079-1.095c0.493-0.206,1.06,0.027,1.266,0.52c0.068,0.163,0.088,0.334,0.067,0.498l-0.047,0.345
			c-0.182,1.348-0.317,2.696-0.626,3.986c-0.048,0.331-0.134,0.651-0.206,0.975c-0.071,0.324-0.152,0.646-0.26,0.96
			c-0.212,0.63-0.495,1.243-0.906,1.833l-2.397-0.611c0.224-0.305,0.463-0.606,0.792-0.88c0.367-0.306,0.912-0.257,1.218,0.109
			c0.07,0.084,0.124,0.184,0.157,0.281c0.136,0.406,0.183,0.786,0.214,1.161c0.053,0.638-0.421,1.198-1.059,1.251
			c-0.628,0.052-1.181-0.407-1.249-1.03l-0.089-0.832c-0.077-0.722-0.026-1.42,0.096-2.102c0.059-0.341,0.145-0.676,0.241-1.007
			c0.095-0.332,0.177-0.667,0.295-0.992c0.488-1.297,1.148-2.536,1.762-3.775l1.285,1.363c-1.162,0.091-2.292,0.231-3.405,0.43
			c-0.552,0.062-1.103,0.136-1.65,0.23c-0.549,0.081-1.093,0.191-1.634,0.325c-0.384,0.095-0.773-0.139-0.868-0.523
			s0.139-0.773,0.523-0.868C111.476,28.479,111.516,28.473,111.551,28.469z"/>
	</g>
</g>
</svg>
