<?xml version="1.0" encoding="utf-8"?>
<!-- Generator: Adobe Illustrator 16.0.0, SVG Export Plug-In . SVG Version: 6.00 Build 0)  -->
<!DOCTYPE svg PUBLIC "-//W3C//DTD SVG 1.1//EN" "http://www.w3.org/Graphics/SVG/1.1/DTD/svg11.dtd">
<svg version="1.1" id="Capa_1" xmlns="http://www.w3.org/2000/svg" xmlns:xlink="http://www.w3.org/1999/xlink" x="0px" y="0px"
	 width="512px" height="228.333px" viewBox="0 0 512 228.333" enable-background="new 0 0 512 228.333" xml:space="preserve">
<g>
	<g>
		<path fill="#211915" d="M131.437,204.677v-0.28h3.04v0.28H131.437z"/>
		<path fill="#211915" d="M141.728,199.228v4.707h4.776v0.28h-4.776v4.524h-0.28v-9.792h5.701v0.28H141.728z"/>
		<path fill="#211915" d="M153.56,207.1c-0.645,1.134-1.737,1.639-3.04,1.639c-1.401,0-2.354-0.882-2.354-2.087
			c0-1.177,1.037-1.863,2.689-1.863h2.689v-0.882c-0.014-1.331-0.77-2.129-2.297-2.129c-0.967,0-1.751,0.393-2.536,1.009
			l-0.168-0.224c0.813-0.645,1.681-1.064,2.704-1.064c1.667,0,2.563,0.938,2.577,2.409l0.028,4.833h-0.28L153.56,207.1z
			 M153.56,206.47l-0.014-1.401h-2.689c-1.541,0-2.409,0.574-2.409,1.583c0,1.064,0.813,1.807,2.087,1.807
			C151.935,208.458,152.985,207.898,153.56,206.47z"/>
		<path fill="#211915" d="M160.195,202.015l-0.14,0.238c-0.462-0.294-1.065-0.477-1.779-0.477c-1.134,0-2.031,0.448-2.031,1.429
			c0,2.171,4.356,1.135,4.356,3.656c0,1.303-1.176,1.877-2.437,1.877c-1.009,0-1.947-0.364-2.591-1.009l0.182-0.21
			c0.616,0.603,1.457,0.938,2.409,0.938c1.135,0,2.115-0.476,2.157-1.527c0.084-2.227-4.356-1.261-4.356-3.698
			c0-1.191,1.05-1.737,2.297-1.737C159.032,201.497,159.663,201.707,160.195,202.015z"/>
		<path fill="#211915" d="M165.864,208.221c-0.42,0.322-0.91,0.504-1.429,0.518c-1.008,0.014-1.541-0.672-1.541-1.989v-4.833h-1.065
			v-0.28h1.065v-1.723h0.28v1.723h2.55v0.28h-2.55v4.833c0,1.121,0.435,1.723,1.261,1.709c0.448-0.014,0.896-0.168,1.261-0.462
			L165.864,208.221z"/>
		<path fill="#211915" d="M172.838,207.408l0.196,0.196c-0.658,0.714-1.639,1.135-2.759,1.135c-2.003,0-3.488-1.513-3.488-3.628
			c0-2.101,1.485-3.614,3.488-3.614c2.017,0,3.362,1.513,3.362,3.614h-6.57c0,1.975,1.345,3.348,3.208,3.348
			C171.325,208.458,172.235,208.081,172.838,207.408z M167.081,204.831h6.275c-0.126-1.807-1.289-3.054-3.082-3.054
			C168.509,201.777,167.207,203.024,167.081,204.831z"/>
		<path fill="#211915" d="M179.347,202.015l-0.14,0.238c-0.462-0.294-1.065-0.477-1.779-0.477c-1.134,0-2.031,0.448-2.031,1.429
			c0,2.171,4.356,1.135,4.356,3.656c0,1.303-1.176,1.877-2.437,1.877c-1.009,0-1.947-0.364-2.591-1.009l0.182-0.21
			c0.616,0.603,1.457,0.938,2.409,0.938c1.135,0,2.115-0.476,2.157-1.527c0.084-2.227-4.356-1.261-4.356-3.698
			c0-1.191,1.05-1.737,2.297-1.737C178.184,201.497,178.814,201.707,179.347,202.015z"/>
		<path fill="#211915" d="M185.016,208.221c-0.42,0.322-0.91,0.504-1.429,0.518c-1.008,0.014-1.541-0.672-1.541-1.989v-4.833h-1.065
			v-0.28h1.065v-1.723h0.28v1.723h2.549v0.28h-2.549v4.833c0,1.121,0.435,1.723,1.261,1.709c0.448-0.014,0.896-0.168,1.261-0.462
			L185.016,208.221z"/>
		<path fill="#211915" d="M197.94,208.739l-2.578-6.85l-2.605,6.85h-0.308l-2.759-7.242h0.336l2.592,6.919l2.563-6.919h0.336
			l2.591,6.919l2.578-6.919h0.322l-2.759,7.242H197.94z"/>
		<path fill="#211915" d="M207.137,207.1c-0.645,1.134-1.737,1.639-3.04,1.639c-1.401,0-2.354-0.882-2.354-2.087
			c0-1.177,1.037-1.863,2.689-1.863h2.689v-0.882c-0.014-1.331-0.77-2.129-2.297-2.129c-0.967,0-1.751,0.393-2.536,1.009
			l-0.168-0.224c0.813-0.645,1.681-1.064,2.704-1.064c1.667,0,2.563,0.938,2.577,2.409l0.028,4.833h-0.28L207.137,207.1z
			 M207.137,206.47l-0.014-1.401h-2.689c-1.541,0-2.409,0.574-2.409,1.583c0,1.064,0.813,1.807,2.087,1.807
			C205.512,208.458,206.563,207.898,207.137,206.47z"/>
		<path fill="#211915" d="M211.307,209.79c-0.448,1.078-1.121,1.667-1.891,1.667c-0.504,0-0.952-0.126-1.289-0.364l0.126-0.238
			c0.308,0.21,0.714,0.322,1.135,0.322c0.714,0,1.317-0.532,1.695-1.485l0.364-0.925l-2.998-7.27h0.322l2.815,6.919l2.773-6.919
			h0.336L211.307,209.79z"/>
		<path fill="#211915" d="M223.627,208.221c-0.42,0.322-0.91,0.504-1.429,0.518c-1.008,0.014-1.541-0.672-1.541-1.989v-4.833h-1.065
			v-0.28h1.065v-1.723h0.28v1.723h2.549v0.28h-2.549v4.833c0,1.121,0.435,1.723,1.261,1.709c0.448-0.014,0.896-0.168,1.261-0.462
			L223.627,208.221z"/>
		<path fill="#211915" d="M231.582,205.111c0,2.115-1.499,3.628-3.516,3.628s-3.516-1.513-3.516-3.628
			c0-2.101,1.499-3.614,3.516-3.614S231.582,203.01,231.582,205.111z M224.83,205.111c0,1.975,1.358,3.348,3.235,3.348
			s3.236-1.373,3.236-3.348c0-1.961-1.359-3.334-3.236-3.334S224.83,203.15,224.83,205.111z"/>
		<path fill="#211915" d="M243.214,202.463l-0.182,0.196c-0.602-0.546-1.373-0.883-2.283-0.883c-1.877,0-3.25,1.373-3.25,3.334
			c0,1.975,1.373,3.348,3.25,3.348c0.995,0,1.849-0.378,2.438-1.05l0.182,0.196c-0.63,0.714-1.555,1.135-2.62,1.135
			c-2.017,0-3.516-1.513-3.516-3.628c0-2.101,1.499-3.614,3.516-3.614C241.716,201.497,242.584,201.861,243.214,202.463z"/>
		<path fill="#211915" d="M246.124,203.472c0.435-1.233,1.401-1.947,2.774-1.975v0.28c-1.639,0.042-2.647,1.149-2.774,2.998v3.964
			h-0.28v-7.242h0.28V203.472z"/>
		<path fill="#211915" d="M255.814,207.408l0.196,0.196c-0.658,0.714-1.639,1.135-2.759,1.135c-2.003,0-3.488-1.513-3.488-3.628
			c0-2.101,1.485-3.614,3.488-3.614c2.017,0,3.362,1.513,3.362,3.614h-6.57c0,1.975,1.345,3.348,3.208,3.348
			C254.302,208.458,255.212,208.081,255.814,207.408z M250.057,204.831h6.275c-0.126-1.807-1.289-3.054-3.082-3.054
			C251.486,201.777,250.183,203.024,250.057,204.831z"/>
		<path fill="#211915" d="M263.557,207.1c-0.645,1.134-1.737,1.639-3.04,1.639c-1.401,0-2.354-0.882-2.354-2.087
			c0-1.177,1.036-1.863,2.689-1.863h2.689v-0.882c-0.014-1.331-0.771-2.129-2.297-2.129c-0.967,0-1.751,0.393-2.536,1.009
			l-0.168-0.224c0.813-0.645,1.682-1.064,2.704-1.064c1.667,0,2.563,0.938,2.577,2.409l0.027,4.833h-0.279L263.557,207.1z
			 M263.557,206.47l-0.015-1.401h-2.689c-1.54,0-2.409,0.574-2.409,1.583c0,1.064,0.813,1.807,2.087,1.807
			C261.932,208.458,262.982,207.898,263.557,206.47z"/>
		<path fill="#211915" d="M269.883,208.221c-0.42,0.322-0.91,0.504-1.429,0.518c-1.009,0.014-1.54-0.672-1.54-1.989v-4.833h-1.065
			v-0.28h1.065v-1.723h0.279v1.723h2.55v0.28h-2.55v4.833c0,1.121,0.435,1.723,1.261,1.709c0.448-0.014,0.896-0.168,1.261-0.462
			L269.883,208.221z"/>
		<path fill="#211915" d="M276.856,207.408l0.196,0.196c-0.658,0.714-1.639,1.135-2.76,1.135c-2.003,0-3.488-1.513-3.488-3.628
			c0-2.101,1.485-3.614,3.488-3.614c2.018,0,3.361,1.513,3.361,3.614h-6.569c0,1.975,1.345,3.348,3.208,3.348
			C275.344,208.458,276.254,208.081,276.856,207.408z M271.1,204.831h6.275c-0.127-1.807-1.289-3.054-3.082-3.054
			C272.527,201.777,271.225,203.024,271.1,204.831z"/>
		<path fill="#211915" d="M288.798,207.1c-0.645,1.134-1.737,1.639-3.04,1.639c-1.4,0-2.354-0.882-2.354-2.087
			c0-1.177,1.037-1.863,2.689-1.863h2.689v-0.882c-0.014-1.331-0.77-2.129-2.297-2.129c-0.967,0-1.75,0.393-2.535,1.009
			l-0.168-0.224c0.813-0.645,1.681-1.064,2.703-1.064c1.667,0,2.563,0.938,2.578,2.409l0.027,4.833h-0.279L288.798,207.1z
			 M288.798,206.47l-0.015-1.401h-2.689c-1.54,0-2.408,0.574-2.408,1.583c0,1.064,0.813,1.807,2.087,1.807
			C287.173,208.458,288.224,207.898,288.798,206.47z"/>
		<path fill="#211915" d="M299.033,205.125c0,2.087-1.485,3.614-3.516,3.614c-1.514,0-2.719-0.84-3.236-2.129v4.846h-0.28v-9.959
			h0.28v2.129c0.518-1.289,1.723-2.129,3.236-2.129C297.548,201.497,299.033,203.024,299.033,205.125z M298.752,205.125
			c0-1.933-1.357-3.348-3.234-3.348c-1.878,0-3.236,1.415-3.236,3.348s1.358,3.333,3.236,3.333
			C297.395,208.458,298.752,207.058,298.752,205.125z"/>
		<path fill="#211915" d="M308.398,205.125c0,2.087-1.484,3.614-3.516,3.614c-1.513,0-2.717-0.84-3.235-2.129v4.846h-0.28v-9.959
			h0.28v2.129c0.519-1.289,1.723-2.129,3.235-2.129C306.914,201.497,308.398,203.024,308.398,205.125z M308.119,205.125
			c0-1.933-1.359-3.348-3.236-3.348s-3.235,1.415-3.235,3.348s1.358,3.333,3.235,3.333S308.119,207.058,308.119,205.125z"/>
		<path fill="#211915" d="M310.732,208.739v-10.394h0.281v10.394H310.732z"/>
		<path fill="#211915" d="M314.667,199.41c0,0.196-0.168,0.364-0.364,0.364c-0.195,0-0.363-0.168-0.363-0.364
			s0.168-0.364,0.363-0.364C314.499,199.045,314.667,199.213,314.667,199.41z M314.163,208.739v-7.242h0.28v7.242H314.163z"/>
		<path fill="#211915" d="M322.691,202.463l-0.182,0.196c-0.603-0.546-1.373-0.883-2.283-0.883c-1.877,0-3.25,1.373-3.25,3.334
			c0,1.975,1.373,3.348,3.25,3.348c0.994,0,1.849-0.378,2.438-1.05l0.182,0.196c-0.631,0.714-1.555,1.135-2.619,1.135
			c-2.018,0-3.516-1.513-3.516-3.628c0-2.101,1.498-3.614,3.516-3.614C321.193,201.497,322.061,201.861,322.691,202.463z"/>
		<path fill="#211915" d="M329.495,207.1c-0.645,1.134-1.737,1.639-3.04,1.639c-1.4,0-2.354-0.882-2.354-2.087
			c0-1.177,1.037-1.863,2.689-1.863h2.689v-0.882c-0.014-1.331-0.77-2.129-2.297-2.129c-0.967,0-1.75,0.393-2.535,1.009
			l-0.168-0.224c0.813-0.645,1.681-1.064,2.703-1.064c1.667,0,2.563,0.938,2.578,2.409l0.027,4.833h-0.279L329.495,207.1z
			 M329.495,206.47l-0.015-1.401h-2.689c-1.54,0-2.408,0.574-2.408,1.583c0,1.064,0.813,1.807,2.087,1.807
			C327.87,208.458,328.921,207.898,329.495,206.47z"/>
		<path fill="#211915" d="M335.822,208.221c-0.42,0.322-0.91,0.504-1.429,0.518c-1.009,0.014-1.54-0.672-1.54-1.989v-4.833h-1.065
			v-0.28h1.065v-1.723h0.279v1.723h2.55v0.28h-2.55v4.833c0,1.121,0.435,1.723,1.261,1.709c0.448-0.014,0.896-0.168,1.261-0.462
			L335.822,208.221z"/>
		<path fill="#211915" d="M338.201,199.41c0,0.196-0.168,0.364-0.364,0.364s-0.364-0.168-0.364-0.364s0.168-0.364,0.364-0.364
			S338.201,199.213,338.201,199.41z M337.697,208.739v-7.242h0.279v7.242H337.697z"/>
		<path fill="#211915" d="M347.275,205.111c0,2.115-1.498,3.628-3.516,3.628s-3.516-1.513-3.516-3.628
			c0-2.101,1.498-3.614,3.516-3.614S347.275,203.01,347.275,205.111z M340.524,205.111c0,1.975,1.358,3.348,3.235,3.348
			s3.236-1.373,3.236-3.348c0-1.961-1.359-3.334-3.236-3.334S340.524,203.15,340.524,205.111z"/>
		<path fill="#211915" d="M355.718,204.354v4.384h-0.28v-4.384c0-1.625-0.953-2.578-2.563-2.578
			c-1.807,0.042-2.913,1.163-3.054,3.026v3.936h-0.279v-7.242h0.279v2.045c0.463-1.275,1.541-2.017,3.054-2.045
			C354.667,201.497,355.718,202.562,355.718,204.354z"/>
		<path fill="#211915" d="M362.059,202.015l-0.141,0.238c-0.462-0.294-1.064-0.477-1.778-0.477c-1.135,0-2.031,0.448-2.031,1.429
			c0,2.171,4.356,1.135,4.356,3.656c0,1.303-1.177,1.877-2.438,1.877c-1.009,0-1.947-0.364-2.592-1.009l0.183-0.21
			c0.616,0.603,1.457,0.938,2.409,0.938c1.135,0,2.115-0.476,2.157-1.527c0.084-2.227-4.356-1.261-4.356-3.698
			c0-1.191,1.051-1.737,2.297-1.737C360.896,201.497,361.526,201.707,362.059,202.015z"/>
		<path fill="#211915" d="M368.174,204.677v-0.28h3.04v0.28H368.174z"/>
	</g>
	<g>
		<g>
			<g>
				
					<image overflow="visible" opacity="0.15" width="638" height="569" xlink:href="D632D965.png"  transform="matrix(0.24 0 0 0.24 186.9873 35.6289)">
				</image>
				<g>
					<linearGradient id="SVGID_1_" gradientUnits="userSpaceOnUse" x1="256.4702" y1="30.917" x2="256.4702" y2="150.0455">
						<stop  offset="0.2134" style="stop-color:#4299B8"/>
						<stop  offset="0.276" style="stop-color:#3A85A4"/>
						<stop  offset="0.3734" style="stop-color:#306B8A"/>
						<stop  offset="0.4734" style="stop-color:#285777"/>
						<stop  offset="0.5743" style="stop-color:#204769"/>
						<stop  offset="0.6764" style="stop-color:#1B395E"/>
						<stop  offset="0.7802" style="stop-color:#172D56"/>
						<stop  offset="0.8867" style="stop-color:#152351"/>
						<stop  offset="1" style="stop-color:#141E4F"/>
					</linearGradient>
					<path fill="url(#SVGID_1_)" d="M240.534,113.631c0-21.578,15.478-38.968,36.601-38.968c13.201,0,22.398,4.917,28.953,12.837
						l-11.199,12.291c-4.369-7.01-10.105-9.65-16.752-9.65c-10.561,0-19.119,10.471-19.119,23.49
						c0,12.747,8.559,23.126,19.119,23.126c8.195,0,16.297-5.281,16.297-14.477h-17.299v-13.201h33.773l7.045-12.204l-30.742-53.246
						H233.86c0.122,0.159,0.188,0.249,0.188,0.249s-14.656,10.69-13.572,18.174c0.947,6.546,14.952,5.327,15.898,11.874
						c0.95,6.547-5.328,14.95-11.875,15.9c-6.544,0.948-9.353-12.823-15.898-11.874c-1.306,0.189-2.568,0.873-3.763,1.861
						l-9.851,17.062l30.74,53.246h38.753C250.506,144.654,240.534,130.389,240.534,113.631z"/>
				</g>
			</g>
			<line fill="#125D86" x1="260.83" y1="74.241" x2="260.83" y2="58.438"/>
			<path id="path5043-0-6-9-84-1-9-9-4-6-9-3-3_1_" fill="#398D40" d="M229.612,43.844c-0.698,0.614-1.366,1.26-2.021,1.916
				c-0.652,0.66-1.291,1.331-1.915,2.013c-1.247,1.364-2.408,2.8-3.476,4.286c-1.056,1.492-2.005,3.058-2.71,4.701
				c-0.186,0.407-0.336,0.824-0.492,1.238c-0.134,0.421-0.273,0.838-0.368,1.264c-0.059,0.21-0.101,0.423-0.137,0.636
				c-0.038,0.212-0.084,0.424-0.1,0.637c-0.06,0.425-0.069,0.849-0.079,1.27l-0.003-0.092c0.14,1.146,0.423,2.254,0.946,3.202
				c0.514,0.951,1.228,1.761,2.128,2.372c0.899,0.613,1.939,1.065,3.056,1.396c1.112,0.341,2.288,0.572,3.502,0.805
				c1.216,0.253,2.462,0.45,3.825,0.953c0.669,0.278,1.446,0.615,2.094,1.433c0.146,0.215,0.308,0.418,0.399,0.669
				c0.052,0.121,0.102,0.244,0.146,0.368l0.008,0.022c-0.018-0.076,0.035,0.132,0.031,0.114l0.006,0.029l0.012,0.056l0.027,0.114
				l0.205,0.908c0.04,0.137,0.059,0.328,0.073,0.522l0.049,0.573l0.039,0.574c0.009,0.189-0.017,0.361-0.023,0.542
				c-0.03,0.357-0.037,0.721-0.095,1.073l-0.221,1.052c-0.372,1.378-0.997,2.661-1.793,3.801c-0.814,1.122-1.77,2.119-2.831,2.983
				c-1.062,0.865-2.248,1.575-3.558,2.112c-0.318,0.146-0.669,0.25-1.019,0.354c-0.338,0.118-0.719,0.181-1.095,0.246l-0.281,0.047
				l-0.035,0.006l-0.176,0.01h-0.059l-0.116,0.001c-0.09-0.002-0.127,0.007-0.261-0.004c-0.152-0.015-0.306-0.035-0.456-0.063
				c-0.339-0.053-0.508-0.137-0.738-0.215c-0.23-0.074-0.394-0.183-0.592-0.277c-1.43-0.83-2.279-1.855-3.142-2.833
				c-0.836-0.986-1.6-1.979-2.365-2.936c-0.767-0.954-1.528-1.89-2.337-2.719c-0.804-0.829-1.661-1.574-2.54-2.036
				c-0.438-0.223-0.876-0.39-1.298-0.451c-0.421-0.06-0.834-0.034-1.259,0.067l-0.122,0.029l-0.149,0.021l-0.573,0.083
				c-0.193,0.059-0.387,0.1-0.581,0.163c-0.195,0.082-0.391,0.149-0.584,0.237l-0.581,0.302l-0.57,0.358l-0.559,0.409
				c-0.364,0.291-0.729,0.591-1.071,0.925c-1.401,1.313-2.616,2.903-3.771,4.535c-1.146,1.645-2.19,3.381-3.166,5.16
				c-0.487,0.89-0.955,1.793-1.405,2.704c-0.452,0.906-0.902,1.832-1.305,2.74l-0.846,1.91l-0.846-1.838
				c-0.796-1.735-1.568-3.469-2.321-5.216c-0.748-1.748-1.465-3.51-2.163-5.279c-0.341-0.89-0.697-1.77-1.01-2.67
				c-0.328-0.894-0.631-1.797-0.936-2.698l-0.425-1.365c-0.146-0.452-0.252-0.921-0.379-1.379c-0.131-0.457-0.215-0.93-0.313-1.395
				c-0.116-0.461-0.13-0.947-0.198-1.412c0.12,0.462,0.186,0.929,0.352,1.374c0.149,0.449,0.282,0.9,0.462,1.339
				c0.175,0.439,0.329,0.884,0.521,1.316l0.545,1.308c0.752,1.733,1.57,3.438,2.382,5.145c0.821,1.703,1.676,3.39,2.533,5.074
				c0.852,1.687,1.724,3.369,2.609,5.029l-1.689,0.071c0.374-1,0.765-1.954,1.182-2.916c0.423-0.955,0.862-1.903,1.326-2.841
				c0.925-1.877,1.93-3.722,3.063-5.511c0.563-0.896,1.174-1.769,1.829-2.618c0.327-0.426,0.667-0.843,1.024-1.253
				c0.361-0.406,0.72-0.814,1.119-1.198c0.385-0.393,0.807-0.763,1.239-1.125l0.675-0.521l0.726-0.483
				c0.254-0.148,0.52-0.288,0.779-0.432c0.271-0.132,0.558-0.245,0.84-0.365c0.29-0.105,0.597-0.188,0.896-0.277
				c0.313-0.066,0.636-0.112,0.953-0.162l-0.273,0.051c0.777-0.224,1.619-0.301,2.43-0.201c0.814,0.101,1.552,0.39,2.22,0.722
				c1.328,0.692,2.356,1.615,3.29,2.552c0.933,0.942,1.747,1.931,2.545,2.905c0.795,0.976,1.555,1.945,2.334,2.847
				c0.766,0.88,1.6,1.747,2.33,2.167c0.083,0.035,0.178,0.109,0.248,0.121c0.064,0.021,0.179,0.072,0.152,0.055v0.022
				c0.02,0.011,0.14,0.003,0.203,0.005h0.116l0.059,0.001h0.016c0.135-0.008-0.168,0.01-0.133,0.007l0.022-0.003l0.177-0.033
				c0.236-0.042,0.472-0.067,0.722-0.157c0.245-0.071,0.494-0.137,0.741-0.251c0.987-0.396,1.969-0.957,2.835-1.656
				c0.869-0.697,1.649-1.501,2.304-2.383c0.631-0.896,1.107-1.869,1.42-2.877l0.185-0.768c0.049-0.257,0.053-0.52,0.087-0.779
				c0.008-0.127,0.036-0.265,0.03-0.385l-0.018-0.355l-0.01-0.356c0.001-0.116,0.002-0.235-0.039-0.4l-0.182-0.913l-0.022-0.114
				l-0.013-0.058l-0.006-0.028c-0.005-0.026,0.044,0.173,0.022,0.087l-0.003-0.004c-0.013-0.021-0.022-0.041-0.027-0.063
				c0.001-0.051-0.054-0.082-0.068-0.133c-0.107-0.186-0.49-0.434-0.955-0.626c-0.961-0.391-2.172-0.643-3.379-0.918
				c-1.216-0.281-2.469-0.586-3.716-1.023c-1.245-0.43-2.492-1.021-3.612-1.857c-1.122-0.832-2.055-1.976-2.658-3.24
				c-0.607-1.271-0.854-2.639-0.937-3.961l-0.004-0.071l0.001-0.021c0.039-0.507,0.084-1.011,0.183-1.502
				c0.035-0.249,0.101-0.488,0.158-0.73c0.057-0.243,0.12-0.482,0.198-0.715c0.14-0.476,0.319-0.93,0.495-1.385
				c0.198-0.444,0.391-0.89,0.616-1.316c0.891-1.713,2.006-3.262,3.207-4.714c1.203-1.454,2.528-2.787,3.907-4.05
				C226.637,46.092,228.098,44.924,229.612,43.844z"/>
		</g>
		<path fill="#02305F" d="M214.347,168.032c-1.006,4.666-4.891,6.653-8.51,6.653c-4.956,0-8.977-4.266-8.977-9.535
			c0-5.293,3.796-9.56,8.977-9.56c3.24,0,5.495,1.208,7.103,3.149l-2.746,3.016c-1.072-1.72-2.479-2.368-4.11-2.368
			c-2.59,0-4.688,2.568-4.688,5.763c0,3.126,2.099,5.672,4.688,5.672c2.01,0,3.998-1.296,3.998-3.551h-4.244v-3.239h8.51V168.032z"
			/>
		<path fill="#02305F" d="M226.739,159.612h-6.342v3.661h6.073v3.685h-6.073v3.708h6.342v3.685h-10.541v-18.424h10.541V159.612z"/>
		<path fill="#02305F" d="M235.873,155.927c3.596,0,6.297,1.854,6.297,5.672c0,3.797-2.701,5.919-6.297,5.919h-2.524v6.833h-4.198
			v-18.424H235.873z M234.532,164.167c1.653,0,3.216-0.558,3.216-2.435c0-1.897-1.563-2.457-3.216-2.457h-1.184v4.892H234.532z"/>
		<path fill="#02305F" d="M250.745,155.927c3.595,0,6.298,1.854,6.298,5.672c0,3.797-2.703,5.919-6.298,5.919h-2.523v6.833h-4.2
			v-18.424H250.745z M249.404,164.167c1.652,0,3.217-0.558,3.217-2.435c0-1.897-1.564-2.457-3.217-2.457h-1.183v4.892H249.404z"/>
		<path fill="#02305F" d="M269.436,159.612h-6.344v3.661h6.074v3.685h-6.074v3.708h6.344v3.685h-10.541v-18.424h10.541V159.612z"/>
		<path fill="#02305F" d="M270.684,155.927h12.953v3.686h-4.377v14.738h-4.197v-14.738h-4.379V155.927z"/>
		<path fill="#02305F" d="M284.305,155.927h12.953v3.686h-4.375v14.738h-4.199v-14.738h-4.379V155.927z"/>
		<g>
			<path fill="#02305F" d="M303.557,167.269c0.619,0,1.25,0.194,1.859,0.382c0.484,0.149,0.982,0.304,1.334,0.304
				c0.213,0,0.268-0.056,0.295-0.082c0.848-0.848,0.848-2.934,0-3.782c-0.027-0.026-0.082-0.082-0.295-0.082
				c-0.35,0-0.85,0.153-1.334,0.303c-0.609,0.188-1.24,0.383-1.859,0.383l0,0c-0.629,0-1.152-0.202-1.553-0.604
				c-1.309-1.31-0.842-4.204-0.465-5.759c-0.162-0.037-0.342-0.076-0.533-0.114c-2.033,1.755-3.191,4.315-3.191,7.086
				c0,3.13,1.305,5.851,3.553,7.532c-0.307-1.604-0.473-3.853,0.637-4.963C302.404,167.472,302.928,167.269,303.557,167.269z"/>
			<path fill="#02305F" d="M306.525,155.591c-1.543,0-3.004,0.39-4.297,1.076c0.395,0.099,0.648,0.176,0.668,0.181l0.85,0.261
				l-0.262,0.853c-0.5,1.632-0.857,4.233-0.223,4.87c0.027,0.026,0.084,0.082,0.295,0.082c0.35,0,0.852-0.154,1.336-0.303
				c0.609-0.188,1.24-0.383,1.857-0.383c0.631,0,1.152,0.202,1.553,0.604c1.531,1.53,1.531,4.769,0,6.299
				c-0.4,0.4-0.922,0.604-1.553,0.604l0,0c-0.619,0-1.25-0.194-1.859-0.383c-0.482-0.149-0.984-0.304-1.334-0.304
				c-0.211,0-0.268,0.056-0.295,0.082c-0.635,0.637-0.277,3.237,0.223,4.87l0.07,0.233c0.92,0.291,1.914,0.452,2.971,0.452
				c5.293,0,9.27-4.176,9.27-9.558C315.795,159.745,311.641,155.591,306.525,155.591z"/>
		</g>
		<path fill="#398D40" d="M307.674,163.46c-1.188-1.188-3.852,1.188-5.041,0c-1.357-1.358,0-5.762,0-5.762s-0.826-0.253-1.873-0.432
			c-2.322,1.835-3.834,4.714-3.834,8.036c0,4.034,2.029,7.43,5.252,9.085c0.283-0.073,0.455-0.126,0.455-0.126s-1.357-4.402,0-5.761
			c1.189-1.188,3.854,1.188,5.041,0C308.861,167.313,308.861,164.647,307.674,163.46z"/>
	</g>
	<g>
		<g>
			<polygon fill="none" points="58.412,16.738 16.843,88.806 58.412,160.874 141.546,160.874 183.115,88.806 99.979,88.806 			"/>
			<text transform="matrix(1 0 0 1 57.1348 19.5308)" fill="#030104" font-family="'MyriadPro-Regular'" font-size="0.8978">FAFA</text>
			<g>
				
					<linearGradient id="SVGID_2_" gradientUnits="userSpaceOnUse" x1="561.2607" y1="-172.3091" x2="577.4783" y2="-146.4095" gradientTransform="matrix(0 -1 1 0 192.0327 699.9316)">
					<stop  offset="0" style="stop-color:#B82C5D"/>
					<stop  offset="1" style="stop-color:#C4483C"/>
				</linearGradient>
				<polygon fill="url(#SVGID_2_)" points="27.668,125.768 51.346,126.8 28.319,139.986 				"/>
				
					<linearGradient id="SVGID_3_" gradientUnits="userSpaceOnUse" x1="590.7881" y1="-137.4478" x2="569.1301" y2="-153.7521" gradientTransform="matrix(0 -1 1 0 192.0327 699.9316)">
					<stop  offset="0" style="stop-color:#518D81"/>
					<stop  offset="1" style="stop-color:#C6D14F"/>
				</linearGradient>
				<polygon fill="url(#SVGID_3_)" points="53.427,108.917 31.88,125.951 51.346,126.8 				"/>
				
					<linearGradient id="SVGID_4_" gradientUnits="userSpaceOnUse" x1="578.6768" y1="-151.4131" x2="574.3433" y2="-116.0234" gradientTransform="matrix(0 -1 1 0 192.0327 699.9316)">
					<stop  offset="0" style="stop-color:#773F8B"/>
					<stop  offset="1" style="stop-color:#0A485D"/>
				</linearGradient>
				<polygon fill="url(#SVGID_4_)" points="65.48,138.207 53.427,108.917 51.346,126.8 				"/>
				
					<linearGradient id="SVGID_5_" gradientUnits="userSpaceOnUse" x1="567.8213" y1="-112.2212" x2="596.2286" y2="-150.7395" gradientTransform="matrix(0 -1 1 0 192.0327 699.9316)">
					<stop  offset="0" style="stop-color:#0A485D"/>
					<stop  offset="1" style="stop-color:#8170A8"/>
				</linearGradient>
				<polygon fill="url(#SVGID_5_)" points="83.53,118.191 65.48,138.207 53.427,108.917 				"/>
				
					<linearGradient id="SVGID_6_" gradientUnits="userSpaceOnUse" x1="582.5186" y1="-82.0874" x2="599.3992" y2="-135.382" gradientTransform="matrix(0 -1 1 0 192.0327 699.9316)">
					<stop  offset="0" style="stop-color:#8170A8"/>
					<stop  offset="1" style="stop-color:#5E85BB"/>
				</linearGradient>
				<polygon fill="url(#SVGID_6_)" points="86.066,100.515 61.423,111.381 83.53,118.191 				"/>
				
					<linearGradient id="SVGID_7_" gradientUnits="userSpaceOnUse" x1="555.2236" y1="-89.4805" x2="575.4498" y2="-109.4658" gradientTransform="matrix(0 -1 1 0 192.0327 699.9316)">
					<stop  offset="0" style="stop-color:#5E85BB"/>
					<stop  offset="1" style="stop-color:#485297"/>
				</linearGradient>
				<polygon fill="url(#SVGID_7_)" points="108.508,134.894 83.53,118.191 72.637,130.271 				"/>
				
					<linearGradient id="SVGID_8_" gradientUnits="userSpaceOnUse" x1="580.1387" y1="-81.2607" x2="587.6019" y2="-129.4106" gradientTransform="matrix(0 -1 1 0 192.0327 699.9316)">
					<stop  offset="0" style="stop-color:#5E85BB"/>
					<stop  offset="1" style="stop-color:#7F5C7D"/>
				</linearGradient>
				<polygon fill="url(#SVGID_8_)" points="86.066,100.515 94.308,113.14 108.508,134.894 83.53,118.191 				"/>
				
					<linearGradient id="SVGID_9_" gradientUnits="userSpaceOnUse" x1="612.666" y1="-85.8213" x2="566.5588" y2="-123.59" gradientTransform="matrix(0 -1 1 0 192.0327 699.9316)">
					<stop  offset="0" style="stop-color:#81A8D1"/>
					<stop  offset="1" style="stop-color:#C2D7EB"/>
				</linearGradient>
				<polygon fill="url(#SVGID_9_)" points="97.713,94.144 94.308,113.14 86.066,100.515 				"/>
				
					<linearGradient id="SVGID_10_" gradientUnits="userSpaceOnUse" x1="579.7139" y1="-84.4766" x2="549.2896" y2="-103.4614" gradientTransform="matrix(0 -1 1 0 192.0327 699.9316)">
					<stop  offset="0" style="stop-color:#39428C"/>
					<stop  offset="1" style="stop-color:#477C87"/>
				</linearGradient>
				<polygon fill="url(#SVGID_10_)" points="108.508,134.894 94.063,144.705 89.797,132.483 				"/>
				
					<linearGradient id="SVGID_11_" gradientUnits="userSpaceOnUse" x1="597.2461" y1="-52.6406" x2="569.8077" y2="-101.5002" gradientTransform="matrix(0 -1 1 0 192.0327 699.9316)">
					<stop  offset="0" style="stop-color:#67AFC3"/>
					<stop  offset="1" style="stop-color:#6398C9"/>
				</linearGradient>
				<polygon fill="url(#SVGID_11_)" points="134.964,115.729 94.308,113.14 108.508,134.894 				"/>
				
					<linearGradient id="SVGID_12_" gradientUnits="userSpaceOnUse" x1="612.9023" y1="-107.3301" x2="562.7216" y2="-67.3804" gradientTransform="matrix(0 -1 1 0 192.0327 699.9316)">
					<stop  offset="0" style="stop-color:#6398C9"/>
					<stop  offset="1" style="stop-color:#C2D7EB"/>
				</linearGradient>
				<polygon fill="url(#SVGID_12_)" points="97.713,94.144 117.864,114.641 94.308,113.14 				"/>
				<polygon fill="#9BC8D5" points="134.964,115.729 107.075,103.666 117.864,114.641 				"/>
				
					<linearGradient id="SVGID_13_" gradientUnits="userSpaceOnUse" x1="563.1543" y1="-49.2188" x2="577.8397" y2="-81.9599" gradientTransform="matrix(0 -1 1 0 192.0327 699.9316)">
					<stop  offset="0" style="stop-color:#67AFC3"/>
					<stop  offset="1" style="stop-color:#6398C9"/>
				</linearGradient>
				<polygon fill="url(#SVGID_13_)" points="140.819,153.41 134.964,115.729 108.508,134.894 				"/>
				
					<linearGradient id="SVGID_14_" gradientUnits="userSpaceOnUse" x1="542.5068" y1="-62.894" x2="564.9473" y2="-94.2625" gradientTransform="matrix(0 -1 1 0 192.0327 699.9316)">
					<stop  offset="0" style="stop-color:#477C87"/>
					<stop  offset="1" style="stop-color:#6398C9"/>
				</linearGradient>
				<polygon fill="url(#SVGID_14_)" points="94.063,144.705 140.819,153.41 108.508,134.894 				"/>
				
					<linearGradient id="SVGID_15_" gradientUnits="userSpaceOnUse" x1="630.0986" y1="-17.2217" x2="578.5664" y2="-52.5752" gradientTransform="matrix(0 -1 1 0 192.0327 699.9316)">
					<stop  offset="0" style="stop-color:#518D81"/>
					<stop  offset="1" style="stop-color:#C6D14F"/>
				</linearGradient>
				<polygon fill="url(#SVGID_15_)" points="134.964,115.729 143.939,101.862 145.895,124.956 				"/>
				
					<linearGradient id="SVGID_16_" gradientUnits="userSpaceOnUse" x1="586.5225" y1="-19.8701" x2="586.5225" y2="-54.7671" gradientTransform="matrix(0 -1 1 0 192.0327 699.9316)">
					<stop  offset="0" style="stop-color:#95B755"/>
					<stop  offset="1" style="stop-color:#6FA555"/>
				</linearGradient>
				<polygon fill="url(#SVGID_16_)" points="145.895,124.956 171.28,112.083 143.939,101.862 				"/>
				
					<linearGradient id="SVGID_17_" gradientUnits="userSpaceOnUse" x1="570.168" y1="-18.8872" x2="602.4537" y2="-60.6856" gradientTransform="matrix(0 -1 1 0 192.0327 699.9316)">
					<stop  offset="0" style="stop-color:#6FA555"/>
					<stop  offset="1" style="stop-color:#518D81"/>
				</linearGradient>
				<polygon fill="url(#SVGID_17_)" points="168.52,141.019 145.895,124.956 171.28,112.083 				"/>
				
					<linearGradient id="SVGID_18_" gradientUnits="userSpaceOnUse" x1="566.0283" y1="-41.6196" x2="584.5667" y2="-71.2328" gradientTransform="matrix(0 -1 1 0 192.0327 699.9316)">
					<stop  offset="0" style="stop-color:#518D81"/>
					<stop  offset="1" style="stop-color:#C6D14F"/>
				</linearGradient>
				<polygon fill="url(#SVGID_18_)" points="134.964,115.729 137.892,134.57 145.895,124.956 				"/>
			</g>
			<g>
				
					<linearGradient id="SVGID_19_" gradientUnits="userSpaceOnUse" x1="587.2998" y1="-100.6919" x2="603.9959" y2="-121.1339" gradientTransform="matrix(0 -1 1 0 192.0327 699.9316)">
					<stop  offset="0" style="stop-color:#6398C9"/>
					<stop  offset="1" style="stop-color:#C2D7EB"/>
				</linearGradient>
				<polygon fill="url(#SVGID_19_)" points="80.426,112.428 65.262,97.731 79.046,93.877 				"/>
				
					<linearGradient id="SVGID_20_" gradientUnits="userSpaceOnUse" x1="597.3545" y1="-74.3911" x2="587.7217" y2="-61.3333" gradientTransform="matrix(0 -1 1 0 192.0327 699.9316)">
					<stop  offset="0" style="stop-color:#6FA555"/>
					<stop  offset="1" style="stop-color:#518D81"/>
				</linearGradient>
				<polygon fill="url(#SVGID_20_)" points="118.937,111.224 132.551,108.42 121.825,97.972 				"/>
				
					<linearGradient id="SVGID_21_" gradientUnits="userSpaceOnUse" x1="589.7822" y1="-120.3262" x2="599.8932" y2="-134.289" gradientTransform="matrix(0 -1 1 0 192.0327 699.9316)">
					<stop  offset="0" style="stop-color:#5E85BB"/>
					<stop  offset="1" style="stop-color:#7F5C7D"/>
				</linearGradient>
				<polygon fill="url(#SVGID_21_)" points="61.67,101.743 68.335,106.144 65.235,106.576 59.875,103.145 				"/>
				
					<linearGradient id="SVGID_22_" gradientUnits="userSpaceOnUse" x1="570.1475" y1="-150.7617" x2="564.7972" y2="-135.8879" gradientTransform="matrix(0 -1 1 0 192.0327 699.9316)">
					<stop  offset="0" style="stop-color:#5A4790"/>
					<stop  offset="1" style="stop-color:#8170A8"/>
				</linearGradient>
				<polygon fill="url(#SVGID_22_)" points="44.909,132.666 51.89,133.63 43.946,129.173 				"/>
				
					<linearGradient id="SVGID_23_" gradientUnits="userSpaceOnUse" x1="589.4316" y1="-43.5898" x2="602.3804" y2="-24.2202" gradientTransform="matrix(0 -1 1 0 192.0327 699.9316)">
					<stop  offset="0" style="stop-color:#67AFC3"/>
					<stop  offset="1" style="stop-color:#6398C9"/>
				</linearGradient>
				<polygon fill="url(#SVGID_23_)" points="154.8,111.882 155.29,100.292 163.465,103.83 				"/>
				
					<linearGradient id="SVGID_24_" gradientUnits="userSpaceOnUse" x1="583.6914" y1="-159.0488" x2="588.8257" y2="-145.4644" gradientTransform="matrix(0 -1 1 0 192.0327 699.9316)">
					<stop  offset="0" style="stop-color:#5E85BB"/>
					<stop  offset="1" style="stop-color:#485297"/>
				</linearGradient>
				<circle fill-rule="evenodd" clip-rule="evenodd" fill="url(#SVGID_24_)" cx="38.777" cy="114.05" r="2.168"/>
				
					<linearGradient id="SVGID_25_" gradientUnits="userSpaceOnUse" x1="568.9805" y1="-81.3652" x2="576.5776" y2="-64.994" gradientTransform="matrix(0 -1 1 0 192.0327 699.9316)">
					<stop  offset="0" style="stop-color:#518D81"/>
					<stop  offset="1" style="stop-color:#C6D14F"/>
				</linearGradient>
				<circle fill-rule="evenodd" clip-rule="evenodd" fill="url(#SVGID_25_)" cx="119.922" cy="126.657" r="3.739"/>
			</g>
			<g opacity="0.6">
				
					<linearGradient id="SVGID_26_" gradientUnits="userSpaceOnUse" x1="591.8369" y1="-135.9751" x2="598.3541" y2="-121.931" gradientTransform="matrix(0 -1 1 0 192.0327 699.9316)">
					<stop  offset="0" style="stop-color:#518D81"/>
					<stop  offset="1" style="stop-color:#C6D14F"/>
				</linearGradient>
				<polygon fill-rule="evenodd" clip-rule="evenodd" fill="url(#SVGID_26_)" points="61.67,101.743 59.875,103.145 65.235,106.576 
					68.335,106.144 				"/>
				
					<linearGradient id="SVGID_27_" gradientUnits="userSpaceOnUse" x1="583.3906" y1="-158.623" x2="587.7957" y2="-149.1305" gradientTransform="matrix(0 -1 1 0 192.0327 699.9316)">
					<stop  offset="0" style="stop-color:#0A485D"/>
					<stop  offset="1" style="stop-color:#8170A8"/>
				</linearGradient>
				<circle fill-rule="evenodd" clip-rule="evenodd" fill="url(#SVGID_27_)" cx="38.777" cy="114.051" r="2.167"/>
			</g>
		</g>
		<g opacity="0.6">
			
				<linearGradient id="SVGID_28_" gradientUnits="userSpaceOnUse" x1="563.3291" y1="-19.1514" x2="569.8453" y2="-5.1094" gradientTransform="matrix(0 -1 1 0 192.0327 699.9316)">
				<stop  offset="0" style="stop-color:#518D81"/>
				<stop  offset="1" style="stop-color:#C6D14F"/>
			</linearGradient>
			<polygon fill-rule="evenodd" clip-rule="evenodd" fill="url(#SVGID_28_)" points="178.493,130.252 176.697,131.653 
				182.059,135.086 185.157,134.652 			"/>
			
				<linearGradient id="SVGID_29_" gradientUnits="userSpaceOnUse" x1="554.8818" y1="-41.7993" x2="559.2869" y2="-32.3068" gradientTransform="matrix(0 -1 1 0 192.0327 699.9316)">
				<stop  offset="0" style="stop-color:#0A485D"/>
				<stop  offset="1" style="stop-color:#8170A8"/>
			</linearGradient>
			<circle fill-rule="evenodd" clip-rule="evenodd" fill="url(#SVGID_29_)" cx="155.6" cy="142.56" r="2.166"/>
		</g>
	</g>
	<g>
		<g>
			<polygon fill="none" points="453.588,16.738 495.156,88.806 453.588,160.874 370.453,160.874 328.885,88.806 412.021,88.806 			
				"/>
			<text transform="matrix(-1 0 0 1 454.8652 19.5308)" fill="#030104" font-family="'MyriadPro-Regular'" font-size="0.8978">FAFA</text>
			<g>
				
					<linearGradient id="SVGID_30_" gradientUnits="userSpaceOnUse" x1="561.2598" y1="-472.957" x2="577.4778" y2="-447.0565" gradientTransform="matrix(4.489659e-011 -1 -1 -4.489659e-011 19.3193 699.9316)">
					<stop  offset="0" style="stop-color:#B82C5D"/>
					<stop  offset="1" style="stop-color:#C4483C"/>
				</linearGradient>
				<polygon fill="url(#SVGID_30_)" points="484.332,125.768 460.654,126.8 483.681,139.986 				"/>
				
					<linearGradient id="SVGID_31_" gradientUnits="userSpaceOnUse" x1="590.7881" y1="-438.0967" x2="569.1309" y2="-454.4004" gradientTransform="matrix(4.489659e-011 -1 -1 -4.489659e-011 19.3193 699.9316)">
					<stop  offset="0" style="stop-color:#518D81"/>
					<stop  offset="1" style="stop-color:#C6D14F"/>
				</linearGradient>
				<polygon fill="url(#SVGID_31_)" points="458.574,108.917 480.121,125.951 460.654,126.8 				"/>
				
					<linearGradient id="SVGID_32_" gradientUnits="userSpaceOnUse" x1="578.6777" y1="-452.0625" x2="574.3441" y2="-416.6717" gradientTransform="matrix(4.489659e-011 -1 -1 -4.489659e-011 19.3193 699.9316)">
					<stop  offset="0" style="stop-color:#773F8B"/>
					<stop  offset="1" style="stop-color:#0A485D"/>
				</linearGradient>
				<polygon fill="url(#SVGID_32_)" points="446.52,138.207 458.574,108.917 460.654,126.8 				"/>
				
					<linearGradient id="SVGID_33_" gradientUnits="userSpaceOnUse" x1="567.8193" y1="-412.8701" x2="596.2266" y2="-451.3884" gradientTransform="matrix(4.489659e-011 -1 -1 -4.489659e-011 19.3193 699.9316)">
					<stop  offset="0" style="stop-color:#0A485D"/>
					<stop  offset="1" style="stop-color:#8170A8"/>
				</linearGradient>
				<polygon fill="url(#SVGID_33_)" points="428.471,118.191 446.52,138.207 458.574,108.917 				"/>
				
					<linearGradient id="SVGID_34_" gradientUnits="userSpaceOnUse" x1="582.5176" y1="-382.7388" x2="599.3972" y2="-436.03" gradientTransform="matrix(4.489659e-011 -1 -1 -4.489659e-011 19.3193 699.9316)">
					<stop  offset="0" style="stop-color:#8170A8"/>
					<stop  offset="1" style="stop-color:#5E85BB"/>
				</linearGradient>
				<polygon fill="url(#SVGID_34_)" points="425.934,100.515 450.577,111.381 428.471,118.191 				"/>
				
					<linearGradient id="SVGID_35_" gradientUnits="userSpaceOnUse" x1="555.2246" y1="-390.1284" x2="575.4517" y2="-410.1147" gradientTransform="matrix(4.489659e-011 -1 -1 -4.489659e-011 19.3193 699.9316)">
					<stop  offset="0" style="stop-color:#5E85BB"/>
					<stop  offset="1" style="stop-color:#485297"/>
				</linearGradient>
				<polygon fill="url(#SVGID_35_)" points="403.492,134.894 428.471,118.191 439.363,130.271 				"/>
				
					<linearGradient id="SVGID_36_" gradientUnits="userSpaceOnUse" x1="580.1377" y1="-381.9092" x2="587.601" y2="-430.0598" gradientTransform="matrix(4.489659e-011 -1 -1 -4.489659e-011 19.3193 699.9316)">
					<stop  offset="0" style="stop-color:#5E85BB"/>
					<stop  offset="1" style="stop-color:#7F5C7D"/>
				</linearGradient>
				<polygon fill="url(#SVGID_36_)" points="425.934,100.515 417.693,113.14 403.492,134.894 428.471,118.191 				"/>
				
					<linearGradient id="SVGID_37_" gradientUnits="userSpaceOnUse" x1="612.668" y1="-386.4692" x2="566.558" y2="-424.2401" gradientTransform="matrix(4.489659e-011 -1 -1 -4.489659e-011 19.3193 699.9316)">
					<stop  offset="0" style="stop-color:#81A8D1"/>
					<stop  offset="1" style="stop-color:#C2D7EB"/>
				</linearGradient>
				<polygon fill="url(#SVGID_37_)" points="414.287,94.144 417.693,113.14 425.934,100.515 				"/>
				
					<linearGradient id="SVGID_38_" gradientUnits="userSpaceOnUse" x1="579.7148" y1="-385.123" x2="549.2886" y2="-404.109" gradientTransform="matrix(4.489659e-011 -1 -1 -4.489659e-011 19.3193 699.9316)">
					<stop  offset="0" style="stop-color:#39428C"/>
					<stop  offset="1" style="stop-color:#477C87"/>
				</linearGradient>
				<polygon fill="url(#SVGID_38_)" points="403.492,134.894 417.938,144.705 422.203,132.483 				"/>
				
					<linearGradient id="SVGID_39_" gradientUnits="userSpaceOnUse" x1="597.2451" y1="-353.29" x2="569.8068" y2="-402.1496" gradientTransform="matrix(4.489659e-011 -1 -1 -4.489659e-011 19.3193 699.9316)">
					<stop  offset="0" style="stop-color:#67AFC3"/>
					<stop  offset="1" style="stop-color:#6398C9"/>
				</linearGradient>
				<polygon fill="url(#SVGID_39_)" points="377.037,115.729 417.693,113.14 403.492,134.894 				"/>
				
					<linearGradient id="SVGID_40_" gradientUnits="userSpaceOnUse" x1="612.9043" y1="-407.9795" x2="562.721" y2="-368.0277" gradientTransform="matrix(4.489659e-011 -1 -1 -4.489659e-011 19.3193 699.9316)">
					<stop  offset="0" style="stop-color:#6398C9"/>
					<stop  offset="1" style="stop-color:#C2D7EB"/>
				</linearGradient>
				<polygon fill="url(#SVGID_40_)" points="414.287,94.144 394.136,114.641 417.693,113.14 				"/>
				<polygon fill="#9BC8D5" points="377.037,115.729 404.926,103.666 394.136,114.641 				"/>
				
					<linearGradient id="SVGID_41_" gradientUnits="userSpaceOnUse" x1="563.1543" y1="-349.8682" x2="577.8389" y2="-382.6076" gradientTransform="matrix(4.489659e-011 -1 -1 -4.489659e-011 19.3193 699.9316)">
					<stop  offset="0" style="stop-color:#67AFC3"/>
					<stop  offset="1" style="stop-color:#6398C9"/>
				</linearGradient>
				<polygon fill="url(#SVGID_41_)" points="371.182,153.41 377.037,115.729 403.492,134.894 				"/>
				
					<linearGradient id="SVGID_42_" gradientUnits="userSpaceOnUse" x1="542.5068" y1="-363.542" x2="564.9468" y2="-394.9098" gradientTransform="matrix(4.489659e-011 -1 -1 -4.489659e-011 19.3193 699.9316)">
					<stop  offset="0" style="stop-color:#477C87"/>
					<stop  offset="1" style="stop-color:#6398C9"/>
				</linearGradient>
				<polygon fill="url(#SVGID_42_)" points="417.938,144.705 371.182,153.41 403.492,134.894 				"/>
				
					<linearGradient id="SVGID_43_" gradientUnits="userSpaceOnUse" x1="630.0996" y1="-317.8677" x2="578.5646" y2="-353.2231" gradientTransform="matrix(4.489659e-011 -1 -1 -4.489659e-011 19.3193 699.9316)">
					<stop  offset="0" style="stop-color:#518D81"/>
					<stop  offset="1" style="stop-color:#C6D14F"/>
				</linearGradient>
				<polygon fill="url(#SVGID_43_)" points="377.037,115.729 368.061,101.862 366.105,124.956 				"/>
				
					<linearGradient id="SVGID_44_" gradientUnits="userSpaceOnUse" x1="586.5225" y1="-320.5181" x2="586.5225" y2="-355.4151" gradientTransform="matrix(4.489659e-011 -1 -1 -4.489659e-011 19.3193 699.9316)">
					<stop  offset="0" style="stop-color:#95B755"/>
					<stop  offset="1" style="stop-color:#6FA555"/>
				</linearGradient>
				<polygon fill="url(#SVGID_44_)" points="366.105,124.956 340.72,112.083 368.061,101.862 				"/>
				
					<linearGradient id="SVGID_45_" gradientUnits="userSpaceOnUse" x1="570.167" y1="-319.5361" x2="602.4538" y2="-361.336" gradientTransform="matrix(4.489659e-011 -1 -1 -4.489659e-011 19.3193 699.9316)">
					<stop  offset="0" style="stop-color:#6FA555"/>
					<stop  offset="1" style="stop-color:#518D81"/>
				</linearGradient>
				<polygon fill="url(#SVGID_45_)" points="343.48,141.019 366.105,124.956 340.72,112.083 				"/>
				
					<linearGradient id="SVGID_46_" gradientUnits="userSpaceOnUse" x1="566.0264" y1="-342.2671" x2="584.566" y2="-371.8823" gradientTransform="matrix(4.489659e-011 -1 -1 -4.489659e-011 19.3193 699.9316)">
					<stop  offset="0" style="stop-color:#518D81"/>
					<stop  offset="1" style="stop-color:#C6D14F"/>
				</linearGradient>
				<polygon fill="url(#SVGID_46_)" points="377.037,115.729 374.108,134.57 366.105,124.956 				"/>
			</g>
			<g>
				
					<linearGradient id="SVGID_47_" gradientUnits="userSpaceOnUse" x1="587.3018" y1="-401.3389" x2="603.9979" y2="-421.7809" gradientTransform="matrix(4.489659e-011 -1 -1 -4.489659e-011 19.3193 699.9316)">
					<stop  offset="0" style="stop-color:#6398C9"/>
					<stop  offset="1" style="stop-color:#C2D7EB"/>
				</linearGradient>
				<polygon fill="url(#SVGID_47_)" points="431.574,112.428 446.738,97.731 432.955,93.877 				"/>
				
					<linearGradient id="SVGID_48_" gradientUnits="userSpaceOnUse" x1="597.3545" y1="-375.04" x2="587.721" y2="-361.9814" gradientTransform="matrix(4.489659e-011 -1 -1 -4.489659e-011 19.3193 699.9316)">
					<stop  offset="0" style="stop-color:#6FA555"/>
					<stop  offset="1" style="stop-color:#518D81"/>
				</linearGradient>
				<polygon fill="url(#SVGID_48_)" points="393.064,111.224 379.449,108.42 390.176,97.972 				"/>
				
					<linearGradient id="SVGID_49_" gradientUnits="userSpaceOnUse" x1="589.7832" y1="-420.9756" x2="599.8936" y2="-434.9376" gradientTransform="matrix(4.489659e-011 -1 -1 -4.489659e-011 19.3193 699.9316)">
					<stop  offset="0" style="stop-color:#5E85BB"/>
					<stop  offset="1" style="stop-color:#7F5C7D"/>
				</linearGradient>
				<polygon fill="url(#SVGID_49_)" points="450.33,101.743 443.666,106.144 446.765,106.576 452.125,103.145 				"/>
				
					<linearGradient id="SVGID_50_" gradientUnits="userSpaceOnUse" x1="570.1484" y1="-451.4092" x2="564.7987" y2="-436.537" gradientTransform="matrix(4.489659e-011 -1 -1 -4.489659e-011 19.3193 699.9316)">
					<stop  offset="0" style="stop-color:#5A4790"/>
					<stop  offset="1" style="stop-color:#8170A8"/>
				</linearGradient>
				<polygon fill="url(#SVGID_50_)" points="467.092,132.666 460.111,133.63 468.054,129.173 				"/>
				
					<linearGradient id="SVGID_51_" gradientUnits="userSpaceOnUse" x1="589.4316" y1="-344.2378" x2="602.3815" y2="-324.8666" gradientTransform="matrix(4.489659e-011 -1 -1 -4.489659e-011 19.3193 699.9316)">
					<stop  offset="0" style="stop-color:#67AFC3"/>
					<stop  offset="1" style="stop-color:#6398C9"/>
				</linearGradient>
				<polygon fill="url(#SVGID_51_)" points="357.2,111.882 356.71,100.292 348.535,103.83 				"/>
				
					<linearGradient id="SVGID_52_" gradientUnits="userSpaceOnUse" x1="583.6904" y1="-459.6992" x2="588.827" y2="-446.1086" gradientTransform="matrix(4.489659e-011 -1 -1 -4.489659e-011 19.3193 699.9316)">
					<stop  offset="0" style="stop-color:#5E85BB"/>
					<stop  offset="1" style="stop-color:#485297"/>
				</linearGradient>
				<circle fill-rule="evenodd" clip-rule="evenodd" fill="url(#SVGID_52_)" cx="473.223" cy="114.05" r="2.168"/>
				
					<linearGradient id="SVGID_53_" gradientUnits="userSpaceOnUse" x1="568.9785" y1="-382.0151" x2="576.5776" y2="-365.6396" gradientTransform="matrix(4.489659e-011 -1 -1 -4.489659e-011 19.3193 699.9316)">
					<stop  offset="0" style="stop-color:#518D81"/>
					<stop  offset="1" style="stop-color:#C6D14F"/>
				</linearGradient>
				<circle fill-rule="evenodd" clip-rule="evenodd" fill="url(#SVGID_53_)" cx="392.078" cy="126.657" r="3.739"/>
			</g>
			<g opacity="0.6">
				
					<linearGradient id="SVGID_54_" gradientUnits="userSpaceOnUse" x1="591.8379" y1="-436.6221" x2="598.3541" y2="-422.5801" gradientTransform="matrix(4.489659e-011 -1 -1 -4.489659e-011 19.3193 699.9316)">
					<stop  offset="0" style="stop-color:#518D81"/>
					<stop  offset="1" style="stop-color:#C6D14F"/>
				</linearGradient>
				<polygon fill-rule="evenodd" clip-rule="evenodd" fill="url(#SVGID_54_)" points="450.33,101.743 452.125,103.145 
					446.765,106.576 443.666,106.144 				"/>
				
					<linearGradient id="SVGID_55_" gradientUnits="userSpaceOnUse" x1="583.3906" y1="-459.2705" x2="587.7966" y2="-449.7758" gradientTransform="matrix(4.489659e-011 -1 -1 -4.489659e-011 19.3193 699.9316)">
					<stop  offset="0" style="stop-color:#0A485D"/>
					<stop  offset="1" style="stop-color:#8170A8"/>
				</linearGradient>
				<circle fill-rule="evenodd" clip-rule="evenodd" fill="url(#SVGID_55_)" cx="473.223" cy="114.051" r="2.167"/>
			</g>
		</g>
		<g opacity="0.6">
			
				<linearGradient id="SVGID_56_" gradientUnits="userSpaceOnUse" x1="563.3281" y1="-319.7988" x2="569.8444" y2="-305.7568" gradientTransform="matrix(4.489659e-011 -1 -1 -4.489659e-011 19.3193 699.9316)">
				<stop  offset="0" style="stop-color:#518D81"/>
				<stop  offset="1" style="stop-color:#C6D14F"/>
			</linearGradient>
			<polygon fill-rule="evenodd" clip-rule="evenodd" fill="url(#SVGID_56_)" points="333.508,130.252 335.303,131.653 
				329.941,135.086 326.843,134.652 			"/>
			
				<linearGradient id="SVGID_57_" gradientUnits="userSpaceOnUse" x1="554.8809" y1="-342.4473" x2="559.2859" y2="-332.9548" gradientTransform="matrix(4.489659e-011 -1 -1 -4.489659e-011 19.3193 699.9316)">
				<stop  offset="0" style="stop-color:#0A485D"/>
				<stop  offset="1" style="stop-color:#8170A8"/>
			</linearGradient>
			<circle fill-rule="evenodd" clip-rule="evenodd" fill="url(#SVGID_57_)" cx="356.4" cy="142.56" r="2.166"/>
		</g>
	</g>
</g>
</svg>
