<?xml version="1.0" encoding="UTF-8" standalone="no"?>
<!-- Generator: Adobe Illustrator 16.0.0, SVG Export Plug-In . SVG Version: 6.00 Build 0)  -->

<svg
   xmlns:dc="http://purl.org/dc/elements/1.1/"
   xmlns:cc="http://creativecommons.org/ns#"
   xmlns:rdf="http://www.w3.org/1999/02/22-rdf-syntax-ns#"
   xmlns:svg="http://www.w3.org/2000/svg"
   xmlns="http://www.w3.org/2000/svg"
   xmlns:sodipodi="http://sodipodi.sourceforge.net/DTD/sodipodi-0.dtd"
   xmlns:inkscape="http://www.inkscape.org/namespaces/inkscape"
   version="1.1"
   id="Capa_1"
   x="0px"
   y="0px"
   width="125.24028"
   height="125.22381"
   viewBox="0 0 125.24028 125.22381"
   enable-background="new 0 0 147 111"
   xml:space="preserve"
   inkscape:version="0.91 r13725"
   sodipodi:docname="decor_puzzle-piece_slanted.svg"><metadata
     id="metadata9"><rdf:RDF><cc:Work
         rdf:about=""><dc:format>image/svg+xml</dc:format><dc:type
           rdf:resource="http://purl.org/dc/dcmitype/StillImage" /><dc:title></dc:title></cc:Work></rdf:RDF></metadata><defs
     id="defs7" /><sodipodi:namedview
     pagecolor="#ffffff"
     bordercolor="#666666"
     borderopacity="1"
     objecttolerance="10"
     gridtolerance="10"
     guidetolerance="10"
     inkscape:pageopacity="0"
     inkscape:pageshadow="2"
     inkscape:window-width="1163"
     inkscape:window-height="672"
     id="namedview5"
     showgrid="false"
     fit-margin-top="0"
     fit-margin-left="0"
     fit-margin-right="0"
     fit-margin-bottom="0"
     inkscape:zoom="2.1088435"
     inkscape:cx="-0.47762836"
     inkscape:cy="62.641512"
     inkscape:window-x="0"
     inkscape:window-y="0"
     inkscape:window-maximized="0"
     inkscape:current-layer="Capa_1" /><path
     d="m 111.84982,11.10803 -0.0155,0.01558 C 109.20439,8.6612067 104.32546,5.0001304 99.100324,5.722939 91.783724,7.0181404 92.483564,33.004697 76.674953,15.877066 65.271751,3.5242162 70.699644,5.0129327 64.448045,1.2415076 59.406704,-1.8006033 52.346074,0.42476356 41.273346,11.531121 30.200618,22.637479 42.428637,24.507622 49.672936,28.692614 58.59738,33.848038 47.209063,45.742593 46.45643,46.497511 45.703798,47.252428 33.843835,58.676764 28.660664,49.768704 24.454428,42.536421 22.547918,30.313422 11.474484,41.420488 0.40104958,52.527554 -1.8021876,59.595606 1.2551956,64.626284 c 3.790366,6.240134 2.285196,0.816779 14.6725704,12.182429 17.175493,15.756598 -8.8137734,15.136274 -10.0874874,22.457476 -0.704841,5.225181 2.970308,10.093701 5.4406764,12.716151 l -0.01553,0.0156 c 0,0 7.011949,8.57224 14.755278,7.50338 7.317307,-1.2945 6.618878,-27.282475 22.426784,-10.15413 11.402454,12.35214 5.975269,10.86413 12.226869,14.63555 5.040632,3.04141 12.101262,0.81604 23.174696,-10.29102 11.073432,-11.10707 -1.155291,-12.97651 -8.400296,-17.16079 -9.22169,-5.327508 3.256752,-17.843849 3.256752,-17.843849 0,0 12.517976,-12.555998 17.873426,-3.350507 4.206936,7.231575 6.113446,19.454574 17.186886,8.347508 11.07343,-11.107066 13.27596,-18.17441 10.21999,-23.20509 -3.79107,-6.239426 -2.2852,-0.818194 -14.67327,-12.181721 -17.175496,-15.756598 8.81518,-15.13769 10.08748,-22.45889 1.04397,-7.745119 -7.5502,-14.730331 -7.5502,-14.730331 z"
     id="path3"
     inkscape:connector-curvature="0"
     style="fill:#9b9b9b" /></svg>