<?xml version="1.0" encoding="utf-8"?>
<!-- Generator: Adobe Illustrator 16.0.0, SVG Export Plug-In . SVG Version: 6.00 Build 0)  -->
<!DOCTYPE svg PUBLIC "-//W3C//DTD SVG 1.1//EN" "http://www.w3.org/Graphics/SVG/1.1/DTD/svg11.dtd">
<svg version="1.1" id="Capa_1" xmlns="http://www.w3.org/2000/svg" xmlns:xlink="http://www.w3.org/1999/xlink" x="0px" y="0px"
	 width="147px" height="111px" viewBox="0 0 147 111" enable-background="new 0 0 147 111" xml:space="preserve">
<path fill="#9B9B9B" d="M144.732,54.042h-0.022c-0.113-3.601-0.965-9.641-5.166-12.831c-6.083-4.267-23.992,14.576-23.024-8.712
	c0.697-16.797,3.475-11.902,1.732-18.992c-1.405-5.718-7.966-9.147-23.649-9.147s-8.374,9.98-6.223,18.065
	c2.65,9.96-13.814,10.293-14.88,10.293c-1.066,0-17.53-0.333-14.881-10.293c2.152-8.085,9.462-18.065-6.222-18.065
	s-22.245,3.43-23.649,9.147c-1.743,7.09,1.035,2.195,1.732,18.992c0.968,23.288-16.942,4.445-23.026,8.712
	c-4.198,3.19-5.051,9.23-5.164,12.831H2.268c0,0-1.12,11.018,5.104,15.747c6.083,4.268,23.994-14.575,23.025,8.713
	c-0.697,16.796-3.475,11.902-1.732,18.992c1.405,5.717,7.966,9.146,23.65,9.146s8.374-9.98,6.222-18.065
	c-2.738-10.292,14.936-10.292,14.936-10.292s17.73,0,14.992,10.292c-2.151,8.085-9.461,18.065,6.223,18.065
	s22.244-3.43,23.649-9.146c1.742-7.09-1.034-2.196-1.733-18.992c-0.968-23.288,16.944-4.445,23.027-8.713
	C145.853,65.06,144.732,54.042,144.732,54.042z"/>
</svg>
