<?xml version="1.0" encoding="utf-8"?>
<!-- Generator: Adobe Illustrator 16.0.0, SVG Export Plug-In . SVG Version: 6.00 Build 0)  -->
<!DOCTYPE svg PUBLIC "-//W3C//DTD SVG 1.1//EN" "http://www.w3.org/Graphics/SVG/1.1/DTD/svg11.dtd">
<svg version="1.1" id="Capa_1" xmlns="http://www.w3.org/2000/svg" xmlns:xlink="http://www.w3.org/1999/xlink" x="0px" y="0px"
	 width="308px" height="75px" viewBox="0 0 308 75" enable-background="new 0 0 308 75" xml:space="preserve">
<g>
	<g>
		<g>
			
				<image overflow="visible" opacity="0.15" width="482" height="434" xlink:href="5AA9EFD1.png"  transform="matrix(0.24 0 0 0.24 -0.8496 -8)">
			</image>
			<g>
				<path fill="#FFFFFF" d="M38.801,48.642c0-14.993,10.756-27.077,25.433-27.077c9.174,0,15.563,3.416,20.119,8.92l-7.782,8.542
					c-3.037-4.872-7.022-6.707-11.641-6.707c-7.339,0-13.285,7.275-13.285,16.322c0,8.859,5.946,16.07,13.285,16.07
					c5.694,0,11.324-3.67,11.324-10.059H64.233V45.48h23.467L92.597,37L71.235,0H34.163c0.084,0.111,0.13,0.173,0.13,0.173
					s-10.184,7.428-9.431,12.628c0.659,4.549,10.39,3.702,11.047,8.251c0.66,4.549-3.702,10.389-8.25,11.049
					c-4.548,0.659-6.499-8.91-11.048-8.251c-0.908,0.132-1.785,0.607-2.616,1.294L7.15,37l21.361,37h26.929
					C45.729,70.201,38.801,60.287,38.801,48.642z"/>
			</g>
		</g>
		<line fill="#125D86" x1="52.903" y1="21.272" x2="52.903" y2="10.29"/>
		<path id="path5043-0-6-9-84-1-9-9-4-6-9-3-3_2_" fill="#FFFFFF" d="M31.21,0.149c-0.484,0.427-0.949,0.875-1.404,1.332
			c-0.453,0.458-0.896,0.925-1.33,1.398c-0.867,0.948-1.673,1.946-2.415,2.979c-0.734,1.036-1.394,2.124-1.883,3.267
			c-0.129,0.282-0.234,0.572-0.343,0.86c-0.093,0.292-0.189,0.582-0.256,0.878c-0.041,0.146-0.07,0.294-0.095,0.441
			c-0.026,0.147-0.059,0.295-0.069,0.442c-0.042,0.296-0.048,0.59-0.055,0.883l-0.002-0.064c0.097,0.796,0.293,1.566,0.657,2.226
			c0.356,0.661,0.853,1.223,1.479,1.648c0.625,0.426,1.348,0.74,2.124,0.97c0.772,0.237,1.59,0.397,2.433,0.56
			c0.845,0.176,1.711,0.313,2.658,0.662c0.465,0.193,1.005,0.428,1.455,0.996c0.102,0.148,0.214,0.29,0.278,0.464
			c0.036,0.085,0.07,0.17,0.102,0.256l0.006,0.017c-0.013-0.054,0.024,0.091,0.021,0.079l0.004,0.02l0.009,0.04l0.018,0.079
			l0.142,0.631c0.028,0.095,0.041,0.228,0.052,0.362l0.033,0.398l0.027,0.399c0.006,0.132-0.012,0.251-0.017,0.377
			c-0.021,0.248-0.026,0.5-0.065,0.746l-0.154,0.73c-0.259,0.957-0.694,1.85-1.246,2.641c-0.566,0.78-1.229,1.473-1.966,2.073
			c-0.738,0.602-1.563,1.095-2.473,1.468c-0.222,0.102-0.465,0.174-0.708,0.246c-0.235,0.082-0.499,0.125-0.76,0.17l-0.196,0.033
			l-0.024,0.004l-0.122,0.007h-0.041l-0.081,0.001c-0.063-0.001-0.088,0.005-0.181-0.003c-0.105-0.01-0.212-0.024-0.317-0.043
			c-0.235-0.037-0.353-0.095-0.512-0.149c-0.16-0.052-0.274-0.127-0.411-0.193c-0.994-0.577-1.584-1.289-2.184-1.968
			c-0.581-0.687-1.112-1.376-1.644-2.041c-0.532-0.662-1.062-1.313-1.624-1.889c-0.559-0.576-1.153-1.094-1.765-1.415
			c-0.304-0.154-0.608-0.271-0.901-0.313c-0.293-0.041-0.581-0.022-0.875,0.047l-0.086,0.021l-0.104,0.016l-0.398,0.058
			c-0.134,0.04-0.269,0.068-0.404,0.113c-0.135,0.057-0.271,0.104-0.406,0.164l-0.403,0.21l-0.396,0.249l-0.387,0.284
			c-0.253,0.202-0.506,0.41-0.745,0.643c-0.973,0.912-1.817,2.018-2.62,3.151c-0.796,1.144-1.523,2.35-2.2,3.586
			c-0.339,0.618-0.664,1.246-0.977,1.879c-0.314,0.629-0.627,1.273-0.907,1.904l-0.588,1.327l-0.586-1.277
			c-0.554-1.206-1.09-2.41-1.615-3.624c-0.519-1.215-1.018-2.438-1.503-3.668c-0.235-0.618-0.483-1.23-0.701-1.855
			c-0.228-0.621-0.438-1.249-0.649-1.876l-0.296-0.947c-0.102-0.314-0.175-0.64-0.262-0.959c-0.091-0.317-0.15-0.646-0.219-0.969
			C0.057,21.009,0.047,20.671,0,20.348c0.083,0.321,0.128,0.646,0.244,0.955c0.104,0.313,0.196,0.625,0.321,0.931
			c0.121,0.306,0.229,0.613,0.362,0.915l0.378,0.908c0.523,1.204,1.092,2.389,1.655,3.575c0.571,1.183,1.165,2.354,1.761,3.525
			c0.591,1.172,1.198,2.341,1.813,3.494l-1.174,0.05c0.26-0.694,0.532-1.357,0.822-2.026c0.293-0.664,0.599-1.322,0.921-1.974
			c0.643-1.304,1.341-2.586,2.129-3.829c0.391-0.623,0.815-1.229,1.271-1.82c0.227-0.295,0.464-0.585,0.712-0.87
			c0.251-0.282,0.5-0.566,0.778-0.832c0.268-0.273,0.561-0.53,0.86-0.782l0.47-0.362l0.504-0.336c0.177-0.103,0.36-0.2,0.542-0.3
			c0.188-0.092,0.388-0.17,0.583-0.254c0.202-0.073,0.416-0.13,0.624-0.192c0.217-0.046,0.441-0.078,0.662-0.113l-0.19,0.036
			c0.54-0.156,1.125-0.209,1.688-0.14c0.566,0.069,1.078,0.271,1.542,0.501c0.923,0.48,1.638,1.122,2.286,1.773
			c0.648,0.655,1.215,1.341,1.769,2.019c0.552,0.678,1.081,1.352,1.621,1.978c0.532,0.612,1.113,1.214,1.62,1.506
			c0.058,0.025,0.124,0.076,0.172,0.084c0.044,0.015,0.125,0.051,0.105,0.038l0,0.017c0.014,0.007,0.097,0.002,0.142,0.003h0.081
			l0.041,0.001h0.01c0.094-0.006-0.116,0.007-0.092,0.005l0.016-0.003l0.123-0.022c0.164-0.029,0.328-0.047,0.501-0.109
			c0.171-0.05,0.343-0.095,0.515-0.175c0.687-0.274,1.368-0.665,1.97-1.15c0.604-0.484,1.146-1.044,1.601-1.656
			c0.438-0.623,0.77-1.299,0.988-1.999l0.128-0.533c0.033-0.179,0.037-0.361,0.059-0.541c0.006-0.089,0.026-0.185,0.022-0.268
			l-0.013-0.247l-0.007-0.248c0-0.081,0.001-0.163-0.027-0.278l-0.126-0.635l-0.016-0.079l-0.008-0.04l-0.003-0.02
			c-0.004-0.019,0.03,0.12,0.014,0.061l-0.001-0.003c-0.009-0.014-0.015-0.028-0.02-0.044c0.001-0.035-0.037-0.058-0.047-0.092
			c-0.075-0.13-0.341-0.302-0.664-0.436c-0.667-0.271-1.509-0.446-2.348-0.638c-0.845-0.195-1.716-0.407-2.583-0.712
			c-0.865-0.298-1.731-0.708-2.51-1.29c-0.779-0.579-1.428-1.373-1.848-2.251c-0.422-0.884-0.593-1.834-0.65-2.753l-0.003-0.05
			l0.001-0.014c0.027-0.353,0.058-0.702,0.126-1.044c0.024-0.173,0.07-0.34,0.111-0.508c0.039-0.168,0.083-0.335,0.138-0.497
			c0.096-0.33,0.221-0.646,0.344-0.962c0.137-0.309,0.271-0.618,0.428-0.914c0.619-1.19,1.394-2.267,2.229-3.276
			c0.835-1.01,1.757-1.937,2.714-2.813C29.144,1.712,30.159,0.9,31.21,0.149z"/>
	</g>
	<g>
		<path fill="#FFFFFF" d="M131.975,41.876c-1.694,7.865-8.243,11.215-14.342,11.215c-8.356,0-15.131-7.189-15.131-16.072
			c0-8.92,6.397-16.111,15.131-16.111c5.458,0,9.26,2.035,11.97,5.309l-4.63,5.082c-1.807-2.898-4.178-3.99-6.926-3.99
			c-4.365,0-7.904,4.328-7.904,9.711c0,5.27,3.539,9.561,7.904,9.561c3.388,0,6.738-2.184,6.738-5.984h-7.152v-5.459h14.342V41.876z
			"/>
		<path fill="#FFFFFF" d="M152.861,27.685h-10.69v6.172h10.239v6.211h-10.239v6.248h10.69v6.211h-17.766V21.474h17.766V27.685z"/>
		<path fill="#FFFFFF" d="M168.255,21.474c6.061,0,10.614,3.125,10.614,9.561c0,6.398-4.554,9.975-10.614,9.975h-4.254v11.518
			h-7.076V21.474H168.255z M165.996,35.363c2.785,0,5.42-0.941,5.42-4.104c0-3.197-2.635-4.141-5.42-4.141h-1.995v8.244H165.996z"/>
		<path fill="#FFFFFF" d="M193.321,21.474c6.06,0,10.614,3.125,10.614,9.561c0,6.398-4.555,9.975-10.614,9.975h-4.254v11.518h-7.077
			V21.474H193.321z M191.063,35.363c2.785,0,5.42-0.941,5.42-4.104c0-3.197-2.635-4.141-5.42-4.141h-1.995v8.244H191.063z"/>
		<path fill="#FFFFFF" d="M224.823,27.685h-10.689v6.172h10.237v6.211h-10.237v6.248h10.689v6.211h-17.767V21.474h17.767V27.685z"/>
		<path fill="#FFFFFF" d="M226.93,21.474h21.831v6.211h-7.378v24.842h-7.076V27.685h-7.377V21.474z"/>
		<path fill="#FFFFFF" d="M249.887,21.474h21.832v6.211h-7.377v24.842h-7.078V27.685h-7.377V21.474z"/>
		<g>
			<path fill="#FFFFFF" d="M287.337,20.908c-2.601,0-5.065,0.656-7.241,1.814c0.662,0.166,1.09,0.295,1.122,0.305l1.434,0.439
				l-0.44,1.436c-0.845,2.752-1.445,7.137-0.373,8.209c0.045,0.045,0.139,0.139,0.496,0.139c0.591,0,1.435-0.26,2.25-0.512
				c1.027-0.316,2.09-0.645,3.133-0.645c1.062,0,1.941,0.342,2.616,1.018c2.579,2.58,2.579,8.037,0,10.617
				c-0.675,0.674-1.555,1.018-2.616,1.018h-0.001c-1.043,0-2.105-0.328-3.133-0.645c-0.815-0.252-1.658-0.512-2.25-0.512
				c-0.356,0-0.45,0.094-0.495,0.139c-1.072,1.072-0.472,5.455,0.373,8.207l0.12,0.393c1.55,0.492,3.225,0.764,5.006,0.764
				c8.921,0,15.621-7.039,15.621-16.109C302.958,27.91,295.957,20.908,287.337,20.908z"/>
			<path fill="#398D40" d="M289.272,34.171c-2.002-2.002-6.492,2.002-8.495,0c-2.288-2.289,0-9.711,0-9.711
				s-1.394-0.428-3.159-0.729c-3.912,3.094-6.462,7.945-6.462,13.545c0,6.799,3.421,12.521,8.854,15.313
				c0.478-0.123,0.767-0.213,0.767-0.213s-2.288-7.42,0-9.709c2.003-2.002,6.493,2.002,8.495,0S291.274,36.173,289.272,34.171z"/>
		</g>
	</g>
</g>
</svg>
