<?xml version="1.0" standalone="no"?>
<!DOCTYPE svg PUBLIC "-//W3C//DTD SVG 1.1//EN" "http://www.w3.org/Graphics/SVG/1.1/DTD/svg11.dtd" >
<svg xmlns="http://www.w3.org/2000/svg">
<metadata>Generated by IcoMoon</metadata>
<defs>
<font id="hsbc-icons" horiz-adv-x="1024">
<font-face units-per-em="1024" ascent="960" descent="-64" />
<missing-glyph horiz-adv-x="1024" />
<glyph unicode="&#x20;" horiz-adv-x="512" d="" />
<glyph unicode="&#xe900;" glyph-name="menu" d="M905.173 414.507h-786.347c-18.498 0-33.493 14.995-33.493 33.493s14.995 33.493 33.493 33.493h786.347c18.498 0 33.493-14.995 33.493-33.493s-14.995-33.493-33.493-33.493v0zM905.173 744.747h-785.067c-0.177-0.003-0.385-0.005-0.594-0.005-17.282 0-31.601 12.685-34.155 29.252l-0.025 0.193c-0.156 1.217-0.245 2.625-0.245 4.053 0 18.616 15.091 33.707 33.707 33.707 0.011 0 0.022 0 0.033 0h785.065c0.177 0.003 0.385 0.005 0.594 0.005 17.282 0 31.601-12.685 34.155-29.252l0.025-0.193c0.156-1.217 0.245-2.625 0.245-4.053 0-18.616-15.091-33.707-33.707-33.707-0.011 0-0.022 0-0.033 0h0.002zM905.173 84.053h-785.067c-0.177-0.003-0.385-0.005-0.594-0.005-17.282 0-31.601 12.685-34.155 29.252l-0.025 0.193c-0.156 1.217-0.245 2.625-0.245 4.054 0 18.552 14.987 33.603 33.515 33.706h785.077c0.24 0.006 0.523 0.009 0.807 0.009 17.283 0 31.604-12.687 34.156-29.256l0.024-0.193c0.156-1.217 0.245-2.625 0.245-4.053 0-18.616-15.091-33.707-33.707-33.707-0.011 0-0.022 0-0.033 0h0.002z" />
<glyph unicode="&#xe901;" glyph-name="close" d="M562.133 448l366.080 366.293c6.388 6.388 10.339 15.213 10.339 24.96 0 19.495-15.804 35.299-35.299 35.299-9.747 0-18.572-3.951-24.96-10.339l-366.293-366.080-366.293 366.080c-6.388 6.388-15.213 10.339-24.96 10.339-19.495 0-35.299-15.804-35.299-35.299 0-9.747 3.951-18.572 10.339-24.96l366.080-366.293-366.080-366.293c-6.412-6.377-10.38-15.205-10.38-24.96s3.968-18.583 10.378-24.958l0.002-0.002c6.353-6.464 15.188-10.47 24.96-10.47s18.607 4.006 24.955 10.465l366.298 366.085 366.293-366.080c6.353-6.464 15.188-10.47 24.96-10.47s18.607 4.006 24.955 10.465l0.005 0.005c6.412 6.377 10.38 15.205 10.38 24.96s-3.968 18.583-10.378 24.958l-0.002 0.002z" />
<glyph unicode="&#xe902;" glyph-name="left-chevron" d="M727.893 874.667c0.307 0.009 0.668 0.015 1.030 0.015 20.147 0 36.48-16.333 36.48-36.48 0-10.971-4.843-20.81-12.507-27.498l-0.043-0.037-386.987-362.667 386.987-362.667c7.291-6.692 11.844-16.267 11.844-26.904 0-20.147-16.333-36.48-36.48-36.48-9.311 0-17.808 3.488-24.254 9.23l0.036-0.032-444.373 416.853 444.373 416.853c6.241 5.895 14.615 9.59 23.85 9.813l0.044 0.001z" />
<glyph unicode="&#xe903;" glyph-name="right-chevron" d="M296.107 21.333c-0.307-0.009-0.668-0.015-1.030-0.015-20.147 0-36.48 16.333-36.48 36.48 0 10.971 4.843 20.81 12.507 27.498l0.043 0.037 386.987 362.667-386.987 362.667c-7.291 6.692-11.844 16.267-11.844 26.904 0 20.147 16.333 36.48 36.48 36.48 9.311 0 17.808-3.488 24.254-9.23l-0.036 0.032 444.373-416.853-444.373-416.853c-6.241-5.895-14.615-9.59-23.85-9.813l-0.044-0.001z" />
<glyph unicode="&#xe904;" glyph-name="up-chevron" d="M94.080 250.453c6.693-7.822 16.575-12.748 27.607-12.748 9.131 0 17.474 3.374 23.849 8.944l-0.043-0.036 366.507 315.52 366.507-315.52c6.61-6.651 15.763-10.767 25.877-10.767 20.147 0 36.48 16.333 36.48 36.48 0 11.978-5.773 22.607-14.688 29.258l-0.096 0.069-414.080 356.693-414.080-356.693c-7.71-6.725-12.555-16.566-12.555-27.538 0-9.052 3.297-17.335 8.756-23.711l-0.041 0.050z" />
<glyph unicode="&#xe905;" glyph-name="down-chevron" d="M929.92 645.547c-6.693 7.822-16.575 12.748-27.607 12.748-9.131 0-17.474-3.374-23.849-8.944l0.043 0.036-366.507-315.52-366.507 315.52c-6.61 6.651-15.763 10.767-25.877 10.767-20.147 0-36.48-16.333-36.48-36.48 0-11.978 5.773-22.607 14.688-29.258l0.096-0.069 414.080-356.693 414.080 356.693c7.71 6.725 12.555 16.566 12.555 27.538 0 9.052-3.297 17.335-8.756 23.711l0.041-0.050z" />
<glyph unicode="&#xe906;" glyph-name="carousel-left" d="M314.88 448l429.227 403.413c2.426 2.431 3.926 5.787 3.926 9.493s-1.5 7.062-3.927 9.494v0c-2.407 2.479-5.77 4.017-9.493 4.017s-7.087-1.538-9.49-4.014l-0.003-0.003-449.493-422.4 449.707-423.040c2.431-2.426 5.787-3.926 9.493-3.926s7.062 1.5 9.494 3.927v0c2.426 2.431 3.926 5.787 3.926 9.493s-1.5 7.062-3.927 9.494v0z" />
<glyph unicode="&#xe907;" glyph-name="carousel-right" d="M298.667 871.040c-2.407 2.479-5.77 4.017-9.493 4.017s-7.087-1.538-9.49-4.014l-0.003-0.003c-2.426-2.431-3.926-5.787-3.926-9.493s1.5-7.062 3.927-9.494v0l429.44-404.053-429.227-403.413c-2.426-2.431-3.926-5.787-3.926-9.493s1.5-7.062 3.927-9.494v0c2.431-2.426 5.787-3.926 9.493-3.926s7.062 1.5 9.494 3.927v0l449.493 422.4z" />
<glyph unicode="&#xe908;" glyph-name="panel-close" d="M940.587 242.56l-423.040 450.133-423.040-450.133c-2.071-2.353-3.335-5.46-3.335-8.862 0-7.423 6.017-13.44 13.44-13.44 3.721 0 7.088 1.512 9.522 3.955v0l403.413 429.44 403.627-429.44c2.431-2.426 5.787-3.926 9.493-3.926s7.062 1.5 9.494 3.927v0c2.5 2.376 4.054 5.726 4.054 9.438 0 0.057 0 0.114-0.001 0.17v-0.009c-0.026 3.412-1.406 6.497-3.628 8.748l0.001-0.001z" />
<glyph unicode="&#xe909;" glyph-name="panel-open" d="M934.4 680.747c-2.431 2.426-5.787 3.926-9.493 3.926s-7.062-1.5-9.494-3.927v0l-403.413-429.867-403.413 429.227c-2.431 2.426-5.787 3.926-9.493 3.926s-7.062-1.5-9.494-3.927v0c-2.426-2.431-3.926-5.787-3.926-9.493s1.5-7.062 3.927-9.494v0l422.4-449.493 423.040 449.707c2.428 2.399 3.933 5.729 3.933 9.411 0 3.988-1.765 7.564-4.556 9.989l-0.016 0.014z" />
<glyph unicode="&#xe90a;" glyph-name="back" d="M508.587 874.667c-0.824 0.006-1.798 0.009-2.773 0.009-235.641 0-426.667-191.025-426.667-426.667s191.025-426.667 426.667-426.667c235.638 0 426.662 191.020 426.667 426.657v0c0 0.003 0 0.006 0 0.009 0 234.666-189.448 425.085-423.744 426.657l-0.149 0.001zM508.587 37.12c-0.634-0.004-1.383-0.006-2.133-0.006-226.923 0-410.88 183.957-410.88 410.88s183.957 410.88 410.88 410.88c226.921 0 410.877-183.954 410.88-410.874v-0.001c0.002-0.444 0.003-0.969 0.003-1.495 0-226.002-182.848-409.298-408.68-410.025h-0.070zM567.253 651.947c-1.459 1.42-3.454 2.297-5.653 2.297s-4.195-0.876-5.655-2.298l0.002 0.002-199.68-187.733 199.68-186.88c1.448-1.381 3.387-2.259 5.53-2.346l0.017-0.001c0.011 0 0.023 0 0.036 0 2.271 0 4.312 0.986 5.718 2.553l0.006 0.007c1.42 1.459 2.297 3.454 2.297 5.653s-0.876 4.195-2.298 5.655l0.002-0.002-187.52 176.213 187.307 174.933c1.681 1.492 2.735 3.659 2.735 6.071 0 2.311-0.967 4.396-2.518 5.872l-0.003 0.003z" />
<glyph unicode="&#xe90b;" glyph-name="facebook" d="M718.507 679.68h-412.373c-13.999-0.238-25.269-11.584-25.387-25.589v-412.171c0.118-14.016 11.388-25.362 25.364-25.6h221.889v179.627h-60.373v69.973h60.373v51.627c-0.268 2.519-0.421 5.443-0.421 8.402 0 46.421 37.632 84.053 84.053 84.053 2.476 0 4.927-0.107 7.349-0.317l-0.315 0.022c25.387 0 47.147-2.133 53.76-2.773v-62.507h-37.547c-29.013 0-34.987-13.867-34.987-34.347v-44.16h69.12l-7.68-69.973h-61.44v-179.627h117.973c13.999 0.238 25.269 11.584 25.387 25.589v412.171c0.015 0.319 0.023 0.692 0.023 1.068 0 13.549-10.984 24.533-24.533 24.533-0.083 0-0.166 0-0.249-0.001h0.013zM512 874.667c-235.641 0-426.667-191.025-426.667-426.667s191.025-426.667 426.667-426.667c235.641 0 426.667 191.025 426.667 426.667v0c0 235.641-191.025 426.667-426.667 426.667v0zM512 40.96c-224.802 0-407.040 182.238-407.040 407.040s182.238 407.040 407.040 407.040c224.802 0 407.040-182.238 407.040-407.040v0c-0.243-224.705-182.336-406.798-407.017-407.040h-0.023z" />
<glyph unicode="&#xe90c;" glyph-name="close-circle" d="M670.293 607.36c-1.4 1.46-3.368 2.368-5.547 2.368s-4.146-0.908-5.544-2.365l-0.003-0.003-147.2-148.053-147.2 148.053c-1.4 1.46-3.368 2.368-5.547 2.368s-4.146-0.908-5.544-2.365l-0.003-0.003c-1.472-1.435-2.385-3.438-2.385-5.653s0.913-4.218 2.383-5.652l0.002-0.002 147.2-148.053-147.2-148.053c-1.472-1.435-2.385-3.438-2.385-5.653s0.913-4.218 2.383-5.652l0.002-0.002c1.399-1.448 3.357-2.347 5.526-2.347 0.007 0 0.014 0 0.022 0h-0.001c2.167 0.044 4.119 0.932 5.547 2.347l-0.001-0.001 147.2 148.053 147.2-148.053c1.427-1.415 3.379-2.303 5.538-2.347h0.008c0.006 0 0.013 0 0.021 0 2.169 0 4.127 0.899 5.524 2.344l0.002 0.002c1.472 1.435 2.385 3.438 2.385 5.653s-0.913 4.218-2.383 5.652l-0.002 0.002-147.2 148.053 147.2 148.053c1.472 1.435 2.385 3.438 2.385 5.653s-0.913 4.218-2.383 5.652l-0.002 0.002zM512 874.667c-0.824 0.006-1.798 0.009-2.773 0.009-235.641 0-426.667-191.025-426.667-426.667s191.025-426.667 426.667-426.667c235.638 0 426.662 191.020 426.667 426.657v0c0 0.003 0 0.006 0 0.009 0 234.666-189.448 425.085-423.744 426.657l-0.149 0.001zM512 37.333c-0.76-0.005-1.66-0.008-2.56-0.008-226.805 0-410.667 183.862-410.667 410.667s183.862 410.667 410.667 410.667c226.802 0 410.662-183.857 410.667-410.658v0c0.001-0.254 0.001-0.556 0.001-0.857 0-225.734-182.509-408.841-408.015-409.809h-0.093z" />
<glyph unicode="&#xe90d;" glyph-name="Close-inverted" d="M512 874.667c-0.824 0.006-1.798 0.009-2.773 0.009-235.641 0-426.667-191.025-426.667-426.667s191.025-426.667 426.667-426.667c235.638 0 426.662 191.020 426.667 426.657v0c0 0.003 0 0.006 0 0.009 0 234.666-189.448 425.085-423.744 426.657l-0.149 0.001zM670.293 299.947c1.472-1.435 2.385-3.438 2.385-5.653s-0.913-4.218-2.383-5.652l-0.002-0.002c-1.399-1.448-3.357-2.347-5.526-2.347-0.007 0-0.014 0-0.022 0h0.001c-2.167 0.044-4.119 0.932-5.547 2.347l0.001-0.001-147.2 148.053-147.2-148.053c-1.427-1.415-3.379-2.303-5.538-2.347h-0.008c-0.006 0-0.013 0-0.021 0-2.169 0-4.127 0.899-5.524 2.344l-0.002 0.002c-1.472 1.435-2.385 3.438-2.385 5.653s0.913 4.218 2.383 5.652l0.002 0.002 147.2 148.053-147.2 148.053c-1.472 1.435-2.385 3.438-2.385 5.653s0.913 4.218 2.383 5.652l0.002 0.002c1.4 1.46 3.368 2.368 5.547 2.368s4.146-0.908 5.544-2.365l0.003-0.003 147.2-148.053 147.2 148.053c1.4 1.46 3.368 2.368 5.547 2.368s4.146-0.908 5.544-2.365l0.003-0.003c1.472-1.435 2.385-3.438 2.385-5.653s-0.913-4.218-2.383-5.652l-0.002-0.002-147.2-148.053z" />
<glyph unicode="&#xe90e;" glyph-name="code" d="M172.587 448l141.013 163.627c6.198 6.017 10.045 14.427 10.045 23.736 0 18.262-14.804 33.067-33.067 33.067-11.176 0-21.056-5.544-27.042-14.032l-0.070-0.104-178.133-206.293 178.133-206.933c5.946-5.772 14.068-9.33 23.022-9.33 18.262 0 33.067 14.804 33.067 33.067 0 7.087-2.229 13.653-6.025 19.035l0.070-0.104zM760.533 654.933c-6.055 8.592-15.936 14.136-27.112 14.136-18.262 0-33.067-14.804-33.067-33.067 0-9.309 3.847-17.719 10.037-23.728l0.008-0.008 141.013-164.267-141.013-163.627c-5.020-5.767-8.081-13.356-8.081-21.659 0-9.999 4.438-18.962 11.452-25.025l0.042-0.036c5.792-4.918 13.355-7.909 21.615-7.909 9.979 0 18.938 4.364 25.074 11.287l0.030 0.035 178.133 206.933zM620.587 666.24c-4.295 2.186-9.367 3.466-14.738 3.466-12.919 0-24.108-7.409-29.549-18.209l-0.087-0.19-187.52-377.173c-2.212-4.317-3.508-9.419-3.508-14.823 0-12.852 7.332-23.992 18.041-29.464l0.187-0.087c4.298-2.144 9.361-3.403 14.717-3.413h0.003c0.037 0 0.081 0 0.125 0 12.935 0 24.147 7.38 29.654 18.159l0.087 0.188 187.52 377.173c2.186 4.295 3.466 9.367 3.466 14.738 0 12.919-7.409 24.108-18.209 29.549l-0.19 0.087z" />
<glyph unicode="&#xe90f;" glyph-name="dislike" d="M938.667 766.507c-0.087 4.697-2.212 8.88-5.525 11.715l-0.022 0.018c-3.454 3.555-8.28 5.76-13.622 5.76-0.011 0-0.022 0-0.033 0h0.002l-199.040-2.133c-5.12 0-25.387 0-51.84 1.92h-1.707c-82.77 19.392-177.808 30.508-275.442 30.508-0.665 0-1.33-0.001-1.995-0.002h0.103c-126.72 0-226.773 0-226.987-80.64 0.524-13.748 6.939-25.9 16.777-34.072l0.076-0.062c-20.321-8.385-35.422-25.805-40.442-47.115l-0.091-0.458c-0.341-2.415-0.536-5.204-0.536-8.039 0-18.101 7.938-34.349 20.523-45.451l0.066-0.057c-22.401-7.882-39.501-25.754-46.161-48.124l-0.132-0.516c-1.102-4.235-1.734-9.097-1.734-14.106 0-15.234 5.849-29.102 15.424-39.481l-0.036 0.040c-24.279-10.49-40.961-34.23-40.961-61.866 0-0.15 0-0.301 0.001-0.451v0.023c-0.124-1.53-0.194-3.312-0.194-5.111 0-17.233 6.466-32.956 17.105-44.875l-0.058 0.066c16-16.64 41.387-24.533 80-24.533h209.067c-1.707-15.36-4.053-39.467-7.253-73.813-5.76-64 6.613-174.507 65.28-202.027 3.776-1.64 8.174-2.594 12.795-2.594 0.527 0 1.051 0.012 1.571 0.037l-0.074-0.003s39.040 0 51.413 14.507c2.56 2.773 2.773 8.32-1.28 58.027-1.707 17.067-3.2 37.12-1.707 39.893 30.507 134.613 192 246.827 215.467 262.613l193.067-1.28c0.009 0 0.021 0 0.032 0 5.341 0 10.167 2.206 13.617 5.756l0.004 0.005c3.431 3.499 5.549 8.296 5.549 13.589 0 0.098-0.001 0.195-0.002 0.293v-0.015zM740.053 743.040l157.653 1.707v-247.68l-158.72 1.067c1.92 144.853 2.133 213.12 1.067 244.907zM482.773 129.493c-5.76 0-14.080-1.92-16.853-2.133-24.96 14.72-47.573 83.2-40.533 160.427 6.4 66.987 9.387 93.653 9.387 93.867 0.089 0.699 0.14 1.508 0.14 2.328 0 4.923-1.832 9.417-4.852 12.839l0.018-0.021c-3.427 4.056-8.517 6.614-14.204 6.614-0.031 0-0.063 0-0.094 0h-228.475c-2.536-0.321-5.47-0.504-8.446-0.504-15.664 0-30.143 5.069-41.888 13.657l0.201-0.14c-4.694 4.865-7.585 11.495-7.585 18.801 0 0.892 0.043 1.773 0.127 2.643l-0.009-0.111c0 7.893 0 32 40.533 32 8.107 0 21.333 3.627 23.68 15.36 0.218 1.105 0.343 2.375 0.343 3.674 0 7.656-4.336 14.299-10.687 17.607l-0.11 0.052c-7.893 4.693-33.707 21.333-29.44 37.12 7.68 28.16 54.4 28.8 54.827 28.8 10.588 0.174 19.104 8.798 19.104 19.411 0 7.494-4.246 13.996-10.463 17.232l-0.108 0.051c-14.293 7.467-39.040 26.88-36.907 38.613 4.48 21.333 44.8 27.52 50.347 27.52 9.375 0.040 17.229 6.508 19.385 15.222l0.029 0.138c1.707 7.467 0 18.133-16.427 25.173-28.587 12.16-29.013 21.333-29.013 21.333 0 38.613 70.613 41.387 186.667 41.387 95.432-0.62 187.951-11.703 276.89-32.155l-8.517 1.648 6.4-1.493 36.48-1.707c0-42.667 0-162.347-1.28-256-36.267-24.533-193.067-137.813-225.28-281.173 0.258-27.768 2.654-54.773 7.029-81.109l-0.416 3.029z" />
<glyph unicode="&#xe910;" glyph-name="download-added" d="M315.093 129.493l-227.84 227.84c-2.479 2.407-4.017 5.77-4.017 9.493s1.538 7.087 4.014 9.49l0.003 0.003c2.441 2.49 5.84 4.034 9.6 4.034s7.159-1.544 9.598-4.032l208.642-208.642 598.4 597.333c2.448 2.475 5.845 4.008 9.6 4.008 7.457 0 13.501-6.045 13.501-13.501 0-3.702-1.49-7.056-3.902-9.495l0.001 0.001z" />
<glyph unicode="&#xe911;" glyph-name="download" d="M938.667 55.253l-1.92 216.96c0.001 0.079 0.001 0.171 0.001 0.264 0 18.262-14.804 33.067-33.067 33.067-2.726 0-5.374-0.33-7.908-0.952l0.227 0.047c-14.439-4.445-24.752-17.667-24.752-33.298 0-0.219 0.002-0.437 0.006-0.655v0.033l1.493-182.187h-719.573v182.187c0.003 0.168 0.005 0.366 0.005 0.565 0 17.24-12.701 31.513-29.257 33.972l-0.188 0.023c-1.41 0.209-3.038 0.328-4.693 0.328-18.581 0-33.651-15.035-33.707-33.603v-216.965c0-0.001 0-0.002 0-0.003 0-18.616 15.091-33.707 33.707-33.707 0.15 0 0.3 0.001 0.449 0.003h801.684l1.28 1.067h2.773c0.16 0.043 0.344 0.068 0.533 0.068s0.373-0.025 0.548-0.071l-0.015 0.003 1.28 1.28s0 0 1.067 0v1.067l1.067 1.28v2.56c-0.033 0.224-0.053 0.483-0.053 0.747s0.019 0.522 0.056 0.775l-0.003-0.029v1.28c0.033 0.224 0.053 0.483 0.053 0.747s-0.019 0.522-0.056 0.775l0.003-0.029v1.493c0.058 0.256 0.091 0.551 0.091 0.853s-0.033 0.597-0.096 0.88l0.005-0.027v1.28s0 1.28 0 1.92c-0.033 0.224-0.053 0.483-0.053 0.747s0.019 0.522 0.056 0.775l-0.003-0.029c-0.044 0.257-0.069 0.552-0.069 0.853s0.025 0.597 0.073 0.885l-0.004-0.031s0 0 0 1.493v1.92s0 0 0 1.493v0zM513.493 244.907l242.347 242.347c5.225 5.909 8.415 13.723 8.415 22.282 0 18.616-15.091 33.707-33.707 33.707-8.559 0-16.373-3.19-22.318-8.446l0.036 0.031-162.56-162.56v467.413c0.006 0.24 0.009 0.523 0.009 0.807 0 17.283-12.687 31.604-29.256 34.156l-0.193 0.024c-1.217 0.155-2.625 0.243-4.054 0.243-18.669 0-33.815-15.082-33.919-33.727v-465.93l-158.293 159.573c-6.118 6.021-14.518 9.738-23.787 9.738s-17.669-3.717-23.791-9.743l0.004 0.004c-6.123-6.071-9.914-14.486-9.914-23.787s3.791-17.715 9.911-23.784l0.002-0.002z" />
<glyph unicode="&#xe912;" glyph-name="email" d="M512 874.667c-235.641 0-426.667-191.025-426.667-426.667s191.025-426.667 426.667-426.667c235.641 0 426.667 191.025 426.667 426.667v0c0 235.641-191.025 426.667-426.667 426.667v0zM512 40.96c-224.802 0-407.040 182.238-407.040 407.040s182.238 407.040 407.040 407.040c224.802 0 407.040-182.238 407.040-407.040v0c-0.243-224.705-182.336-406.798-407.017-407.040h-0.023zM503.467 391.253l-195.413 172.16v-230.827c0 0 0-0.001 0-0.002 0-7.583 6.087-13.745 13.642-13.865h382.304c7.566 0.12 13.653 6.282 13.653 13.865 0 0.001 0 0.001 0 0.002v0 230.827l-195.413-172.16c-2.441-2.315-5.748-3.738-9.387-3.738s-6.945 1.424-9.393 3.744l0.006-0.006zM695.68 581.333h-366.507l183.253-161.28 183.253 161.28z" />
<glyph unicode="&#xe913;" glyph-name="expand" d="M864.427 554.667v242.773h-241.707c-0.184-0.003-0.402-0.005-0.62-0.005-19.017 0-34.768 13.979-37.541 32.221l-0.026 0.21c-0.265 1.667-0.417 3.589-0.417 5.547 0 20.497 16.614 37.114 37.11 37.12h317.441v-317.867c0-0.060 0.001-0.132 0.001-0.203 0-20.501-16.619-37.12-37.12-37.12-1.958 0-3.88 0.152-5.756 0.444l0.209-0.027c-17.867 3.136-31.31 18.413-31.573 36.879v0.028zM401.28 24.32h-315.947v317.013c-0.003 0.184-0.005 0.402-0.005 0.62 0 19.017 13.979 34.768 32.221 37.541l0.21 0.026c1.667 0.265 3.59 0.417 5.547 0.417 20.501 0 37.12-16.619 37.12-37.12 0-0.072 0-0.143-0.001-0.215v0.011-243.2h243.2c0.026 0 0.056 0 0.086 0 20.383 0 36.907-16.524 36.907-36.907 0-1.655-0.109-3.284-0.32-4.881l0.020 0.187c-2.306-18.966-18.309-33.517-37.711-33.517-0.467 0-0.933 0.008-1.396 0.025l0.067-0.002z" />
<glyph unicode="&#xe914;" glyph-name="external-link" d="M813.227 357.973c0 20.854-16.906 37.76-37.76 37.76v0c-20.906-0.241-37.76-17.244-37.76-38.184 0-0.001 0-0.002 0-0.003v0l1.707-260.48h-574.933v577.067h260.693c0.851-0.068 1.843-0.107 2.844-0.107 20.972 0 37.973 17.001 37.973 37.973s-17.001 37.973-37.973 37.973c-1.001 0-1.993-0.039-2.974-0.115l0.13 0.008h-298.667c-20.854 0-37.76-16.906-37.76-37.76v0-652.8c0 0 0 0 0-0.001 0-20.897 16.88-37.852 37.748-37.973h670.732l1.28 1.067h2.987l1.28 1.28 1.493 1.067v1.493l1.28 1.28v1.493c0.047 0.224 0.073 0.482 0.073 0.747s-0.027 0.522-0.078 0.771l0.004-0.025c0.053 0.224 0.083 0.482 0.083 0.747s-0.030 0.522-0.087 0.77l0.004-0.023v1.493s0 0 0 1.707c-0.036 0.256-0.057 0.552-0.057 0.853s0.021 0.597 0.061 0.887l-0.004-0.034s0 0 0 1.707 0 0 0 1.707v1.92c-0.046 0.257-0.072 0.552-0.072 0.853s0.026 0.597 0.076 0.884l-0.004-0.031s0 1.28 0 1.92c0.049 0.289 0.078 0.621 0.078 0.96s-0.028 0.671-0.082 0.995l0.005-0.035c0.055 0.321 0.087 0.69 0.087 1.067s-0.031 0.746-0.092 1.105l0.005-0.039v1.707zM637.227 874.667c-19.712-1.525-35.129-17.896-35.129-37.867s15.417-36.341 34.999-37.859l0.13-0.008h161.707l-363.733-363.733c-6.852-6.852-11.090-16.318-11.090-26.773 0-20.911 16.952-37.863 37.863-37.863 10.456 0 19.921 4.238 26.773 11.090l370.773 370.773v-176.427c1.525-19.712 17.896-35.129 37.867-35.129s36.341 15.417 37.859 34.999l0.008 0.13v298.667z" />
<glyph unicode="&#xe915;" glyph-name="facebook-channel" d="M891.733 874.667h-759.467c-25.6 0-46.933-21.333-46.933-46.933v-759.467c0-25.6 21.333-46.933 46.933-46.933h409.6v330.667h-110.933v128h110.933v96c0 108.8 66.133 170.667 166.4 170.667 46.933 0 87.467-4.267 98.133-6.4v-115.2h-68.267c-53.333 0-64-25.6-64-64v-81.067h128l-17.067-128h-110.933v-330.667h217.6c25.6 0 46.933 21.333 46.933 46.933v759.467c0 27.733-21.333 46.933-46.933 46.933z" />
<glyph unicode="&#xe916;" glyph-name="heart" d="M853.333 375.467c-35.627-42.667-69.76-81.067-341.333-298.667v0c-273.707 217.6-306.56 256-341.333 298.667-131.2 156.587-95.573 333.227 8.533 407.253 91.947 65.493 222.933 41.387 332.8-84.053 109.653 123.947 240.64 149.333 333.227 84.053 103.68-74.027 140.587-250.667 8.107-407.253z" />
<glyph unicode="&#xe917;" glyph-name="info" d="M512 21.333c-235.641 0-426.667 191.025-426.667 426.667s191.025 426.667 426.667 426.667c235.641 0 426.667-191.025 426.667-426.667v0c0-235.641-191.025-426.667-426.667-426.667v0zM512 816c-203.241 0-368-164.759-368-368s164.759-368 368-368c203.241 0 368 164.759 368 368v0c-0.243 203.143-164.857 367.757-367.977 368h-0.023zM579.413 269.227h-42.667v266.667c0.004 0.19 0.007 0.415 0.007 0.64 0 16.141-13.085 29.227-29.227 29.227-0.002 0-0.005 0-0.007 0v0c-0.768 0.088-1.658 0.138-2.56 0.138s-1.792-0.050-2.668-0.147l0.108 0.010h-66.987c-0.75 0.068-1.622 0.107-2.504 0.107-16.259 0-29.44-13.181-29.44-29.44s13.181-29.44 29.44-29.44c0.881 0 1.754 0.039 2.615 0.115l-0.112-0.008h42.667v-267.307c0 0 0-0.001 0-0.001 0-16.141 13.085-29.227 29.227-29.227 0.075 0 0.15 0 0.225 0.001h71.882c0.75-0.068 1.622-0.107 2.504-0.107 16.259 0 29.44 13.181 29.44 29.44s-13.181 29.44-29.44 29.44c-0.881 0-1.754-0.039-2.615-0.115l0.112 0.008zM555.947 670.933c0-27.217-22.063-49.28-49.28-49.28s-49.28 22.063-49.28 49.28c0 27.217 22.063 49.28 49.28 49.28s49.28-22.063 49.28-49.28z" />
<glyph unicode="&#xe918;" glyph-name="information-close" d="M512 21.333c-235.641 0-426.667 191.025-426.667 426.667s191.025 426.667 426.667 426.667c235.641 0 426.667-191.025 426.667-426.667v0c0-235.641-191.025-426.667-426.667-426.667v0zM512 816c-203.241 0-368-164.759-368-368s164.759-368 368-368c203.241 0 368 164.759 368 368v0c-0.243 203.143-164.857 367.757-367.977 368h-0.023zM509.013 398.507l163.2-163.84c6.379-6.406 15.207-10.37 24.96-10.37 19.453 0 35.223 15.77 35.223 35.223 0 9.7-3.921 18.485-10.265 24.855l0.001-0.001-163.2 163.627 163.84 163.2c6.433 6.407 10.414 15.272 10.414 25.067 0 19.537-15.838 35.374-35.374 35.374-9.742 0-18.564-3.938-24.961-10.309l-163.839-163.199-157.227 157.867c-6.4 6.36-15.221 10.292-24.96 10.292s-18.56-3.931-24.962-10.293l0.002 0.002c-6.328-6.437-10.286-15.221-10.453-24.928v-0.032c0.071-9.756 4.053-18.569 10.453-24.96v0l157.44-158.080-158.080-157.44c-6.33-6.395-10.24-15.195-10.24-24.908 0-0.018 0-0.037 0-0.055v0.003c0-0.042 0-0.091 0-0.14 0-19.44 15.76-35.2 35.2-35.2 9.755 0 18.583 3.968 24.959 10.379l0.002 0.002z" />
<glyph unicode="&#xe919;" glyph-name="instagram" d="M512 874.667c-235.641 0-426.667-191.025-426.667-426.667s191.025-426.667 426.667-426.667c235.641 0 426.667 191.025 426.667 426.667v0c0 235.641-191.025 426.667-426.667 426.667v0zM512 40.96c-224.802 0-407.040 182.238-407.040 407.040s182.238 407.040 407.040 407.040c224.802 0 407.040-182.238 407.040-407.040v0c-0.243-224.705-182.336-406.798-407.017-407.040h-0.023zM733.227 604.8c-6.3 15.97-15.344 29.604-26.67 40.963l0.003-0.003c-11.201 11.676-24.982 20.789-40.432 26.43l-0.741 0.237c-16.58 6.012-35.721 9.721-55.658 10.235l-0.236 0.005c-24.747 1.28-32.64 1.28-95.147 1.28s-70.4 0-95.147-1.28c-20.172-0.082-39.37-4.151-56.88-11.459l0.987 0.365c-16.094-6.154-29.823-15.221-41.166-26.659l-0.008-0.008c-11.615-11.17-20.715-24.867-26.423-40.214l-0.243-0.746c-6.169-16.573-10.157-35.73-11.078-55.687l-0.015-0.42c-1.28-24.747-1.28-32.427-1.28-95.147s0-70.187 1.28-94.933c0.053-20.242 4.124-39.518 11.459-57.094l-0.365 0.987c6.467-15.913 15.487-29.519 26.69-40.984l-0.023 0.024c11.135-11.265 24.668-20.133 39.773-25.778l0.76-0.249c16.522-6.094 35.615-10.010 55.5-10.867l0.393-0.013c24.747-1.493 32.64-1.493 95.147-1.493s70.4 0 95.147 1.493c20.366 0.017 39.794 4.012 57.556 11.248l-1.023-0.368c16.010 6.489 29.693 15.585 41.19 26.897l-0.017-0.017c11.543 11.218 20.628 24.898 26.414 40.2l0.252 0.76c6.169 16.573 10.157 35.73 11.078 55.687l0.015 0.42c2.347 25.387 2.347 32.427 2.347 94.933s0 70.4-1.28 95.147c-0.54 20.379-4.96 39.585-12.544 57.103l0.384-0.996zM702.507 360.533c0.008-0.487 0.013-1.062 0.013-1.638 0-14.819-3.065-28.922-8.595-41.71l0.262 0.681c-3.718-10.485-9.558-19.415-17.047-26.648l-0.020-0.019c-7.123-7.64-16.105-13.455-26.229-16.731l-0.438-0.122c-12.615-4.983-27.214-8.074-42.475-8.529l-0.192-0.005c-24.107-1.28-32-1.28-93.227-1.28s-69.12 0-93.227 1.28c-0.726-0.019-1.581-0.030-2.438-0.030-14.568 0-28.399 3.154-40.848 8.816l0.619-0.252c-10.529 3.49-19.492 9.288-26.64 16.825l-0.027 0.028c-7.589 7.198-13.446 16.147-16.928 26.205l-0.139 0.462c-4.764 12.601-7.834 27.17-8.522 42.358l-0.011 0.308c-1.28 24.107-1.28 31.787-1.28 93.013s0 69.12 1.28 93.227c-0.001 0.178-0.002 0.388-0.002 0.598 0 15.194 3.139 29.655 8.804 42.769l-0.269-0.7c3.779 10.463 9.608 19.382 17.053 26.653l0.014 0.013c7.175 7.565 16.137 13.363 26.215 16.723l0.452 0.131c12.613 4.928 27.204 8.013 42.447 8.527l0.22 0.006c24.107 0 32 1.28 93.227 1.28s69.12 0 93.227-1.28c0.419 0.006 0.914 0.010 1.41 0.010 14.917 0 29.099-3.144 41.921-8.805l-0.665 0.262c10.496-3.584 19.44-9.366 26.648-16.834l0.019-0.020c7.542-7.23 13.388-16.168 16.922-26.196l0.145-0.471c4.779-12.623 7.784-27.213 8.314-42.432l0.006-0.234c1.28-24.107 1.28-32 1.28-93.227s0.213-69.547-1.28-93.013zM514.347 572.16c-65.508 0-118.613-53.105-118.613-118.613s53.105-118.613 118.613-118.613c65.508 0 118.613 53.105 118.613 118.613v0c0 65.508-53.105 118.613-118.613 118.613v0zM514.347 376.107c-0.063 0-0.138 0-0.213 0-42.887 0-77.653 34.767-77.653 77.653s34.767 77.653 77.653 77.653c42.887 0 77.653-34.767 77.653-77.653 0-0.075 0-0.15 0-0.225v0.012c0-0.063 0-0.139 0-0.214 0-42.651-34.576-77.227-77.227-77.227-0.075 0-0.15 0-0.225 0h0.012zM665.387 577.493c0-15.081-12.226-27.307-27.307-27.307s-27.307 12.226-27.307 27.307c0 15.081 12.226 27.307 27.307 27.307s27.307-12.226 27.307-27.307z" />
<glyph unicode="&#xe91a;" glyph-name="instagram-big" d="M936.32 623.573c-0.65 37.385-8.429 72.778-22.030 105.121l0.697-1.868c-11.442 29.595-28.187 54.838-49.263 75.717l-0.017 0.016c-20.697 21.402-46.007 38.206-74.341 48.823l-1.393 0.457c-30.436 11.611-65.64 19.258-102.341 21.293l-0.912 0.040c-45.013 1.493-59.307 1.493-174.72 1.493s-129.707 0-175.573-2.347c-37.385-0.65-72.778-8.429-105.121-22.030l1.868 0.697c-29.551-11.192-54.794-27.658-75.748-48.441l0.014 0.014c-21.402-20.697-38.206-46.007-48.823-74.341l-0.457-1.393c-11.611-30.436-19.258-65.64-21.293-102.341l-0.040-0.912c-1.493-45.867-1.493-60.16-1.493-175.573s0-129.707 2.347-175.573c0.65-37.385 8.429-72.778 22.030-105.121l-0.697 1.868c11.796-29.473 28.488-54.656 49.305-75.759l-0.025 0.025c20.697-21.402 46.007-38.206 74.341-48.823l1.393-0.457c30.436-11.611 65.64-19.258 102.341-21.293l0.912-0.040c45.013-1.493 59.307-1.493 174.72-1.493s129.707 0 175.573 2.347c37.385 0.65 72.778 8.429 105.121 22.030l-1.868-0.697c29.473 11.796 54.656 28.488 75.759 49.305l-0.025-0.025c21.402 20.697 38.206 46.007 48.823 74.341l0.457 1.393c11.611 30.436 19.258 65.64 21.293 102.341l0.040 0.912c1.493 45.013 1.493 59.307 1.493 174.72s0 129.707-2.347 175.573zM859.307 276.053c0.035-1.344 0.055-2.926 0.055-4.513 0-27.001-5.753-52.659-16.099-75.815l0.471 1.181c-6.672-19.417-17.429-35.948-31.315-49.237l-0.045-0.043c-13.226-14.087-29.796-24.878-48.451-31.119l-0.829-0.241c-23.415-9.052-50.492-14.688-78.769-15.564l-0.378-0.009c-44.587-2.347-58.88-2.347-171.947-2.347s-128 0-171.947 2.347c-1.344-0.035-2.926-0.055-4.513-0.055-27.001 0-52.659 5.753-75.815 16.099l1.181-0.471c-19.417 6.672-35.948 17.429-49.237 31.315l-0.043 0.045c-14.087 13.226-24.878 29.796-31.119 48.451l-0.241 0.829c-9.052 23.415-14.688 50.492-15.564 78.769l-0.009 0.378c-2.347 43.947-2.347 58.88-2.347 171.947s0 128 2.347 171.947c-0.035 1.344-0.055 2.926-0.055 4.513 0 27.001 5.753 52.659 16.099 75.815l-0.471-1.181c6.672 19.417 17.429 35.948 31.315 49.237l0.045 0.043c13.226 14.087 29.796 24.878 48.451 31.119l0.829 0.241c23.415 9.052 50.492 14.688 78.769 15.564l0.378 0.009c43.947 1.28 58.88 2.347 171.947 2.347s128 0 171.947-2.347c1.344 0.035 2.926 0.055 4.513 0.055 27.001 0 52.659-5.753 75.815-16.099l-1.181 0.471c19.417-6.672 35.948-17.429 49.237-31.315l0.043-0.045c14.087-13.226 24.878-29.796 31.119-48.451l0.241-0.829c9.052-23.415 14.688-50.492 15.564-78.769l0.009-0.378c2.347-44.587 2.347-58.88 2.347-171.947s0-128-2.347-171.947zM512 666.667c-120.766 0-218.667-97.9-218.667-218.667s97.9-218.667 218.667-218.667c120.766 0 218.667 97.9 218.667 218.667v0c0 120.766-97.9 218.667-218.667 218.667v0zM512 304c-78.938 0.002-142.929 63.995-142.929 142.933 0 78.94 63.993 142.933 142.933 142.933 78.565 0 142.325-63.387 142.929-141.809v-0.057c0.001-0.19 0.001-0.416 0.001-0.641 0-78.586-63.707-142.293-142.293-142.293-0.226 0-0.451 0.001-0.676 0.002h0.035zM790.827 676.267c0-27.924-22.636-50.56-50.56-50.56s-50.56 22.636-50.56 50.56c0 27.924 22.636 50.56 50.56 50.56s50.56-22.636 50.56-50.56z" />
<glyph unicode="&#xe91b;" glyph-name="large-search" d="M934.613 58.88l-241.707 239.787c50.781 58.924 81.707 136.212 81.707 220.724 0 0.027 0 0.054 0 0.081v-0.004c0.011 1.014 0.017 2.213 0.017 3.413 0 190.398-154.348 344.747-344.747 344.747s-344.747-154.348-344.747-344.747c0-190.398 154.348-344.747 344.747-344.747 0.069 0 0.138 0 0.207 0h-0.010c0.624-0.004 1.361-0.006 2.1-0.006 94.372 0 179.899 37.873 242.21 99.249l-0.043-0.042 241.067-238.72c2.454-2.376 5.802-3.84 9.493-3.84 0.038 0 0.075 0 0.113 0h-0.006c0.048-0.001 0.105-0.001 0.162-0.001 3.713 0 7.062 1.555 9.433 4.049l0.005 0.006c2.644 2.529 4.288 6.086 4.288 10.027s-1.644 7.497-4.283 10.022l-0.005 0.005zM665.387 308.267l-1.28-1.067-1.707-2.133c-58.143-61.919-140.527-100.49-231.919-100.49-174.131 0-315.559 140.018-317.839 313.608l-0.002 0.215c4.594 171.741 144.91 309.211 317.333 309.211s312.74-137.47 317.324-308.788l0.009-0.424c-0.082-81.141-31.201-154.999-82.121-210.355l0.201 0.222z" />
<glyph unicode="&#xe91c;" glyph-name="like-inverted" d="M90.88 435.627c-3.425-3.336-5.549-7.993-5.549-13.146 0-0.103 0.001-0.206 0.003-0.309v0.016-286.293c0-0.001 0-0.001 0-0.002 0-4.585 2.159-8.665 5.515-11.281l0.032-0.024c3.413-3.512 8.165-5.708 13.43-5.76h0.010l181.333 2.133v320l-181.333 1.28c-5.39-0.288-10.146-2.782-13.419-6.588l-0.021-0.025zM938.667 461.867c0.131 1.548 0.206 3.349 0.206 5.168 0 16.839-6.397 32.185-16.893 43.739l0.048-0.053c-15.36 16.427-40.32 24.107-78.293 24.107h-203.733c1.493 14.933 3.84 38.613 6.827 72.32 5.76 62.080-6.4 170.667-64 197.76-3.721 1.639-8.059 2.593-12.619 2.593-0.514 0-1.025-0.012-1.532-0.036l0.072 0.003s-38.4 0-50.347-14.080c-2.56-2.773-2.56-8.32 1.28-56.96 1.493-16.213 2.987-36.053 2.56-38.827-27.52-119.893-159.573-221.227-202.24-250.667v-325.973c7.893 0 25.387 0 46.933-1.92h1.707c81.206-18.986 174.447-29.869 270.231-29.869 0.923 0 1.845 0.001 2.767 0.003h-0.144c124.16 0 222.293 0 222.293 79.147-0.523 13.401-6.772 25.244-16.353 33.22l-0.074 0.060c19.89 8.287 34.662 25.377 39.59 46.269l0.090 0.451c0.331 2.356 0.519 5.078 0.519 7.845 0 17.745-7.765 33.676-20.083 44.581l-0.063 0.055c21.957 7.611 38.709 25.136 45.102 47.074l0.125 0.499c1.136 4.234 1.789 9.096 1.789 14.109 0 14.829-5.709 28.324-15.049 38.407l0.034-0.037c23.312 10.437 39.259 33.43 39.259 60.149 0 0.304-0.002 0.607-0.006 0.91v-0.046z" />
<glyph unicode="&#xe91d;" glyph-name="like" d="M85.333 129.493c0.087-4.697 2.212-8.88 5.525-11.715l0.022-0.018c3.454-3.555 8.28-5.76 13.622-5.76 0.011 0 0.022 0 0.033 0h-0.002l199.040 2.133c5.12 0 25.387 0 51.84-1.92h1.707c83.334-19.662 179.018-30.934 277.334-30.934 0.45 0 0.899 0 1.348 0.001h-0.069c126.72 0 226.773 0 226.987 80.64-0.524 13.748-6.939 25.9-16.777 34.072l-0.076 0.062c20.321 8.385 35.422 25.805 40.442 47.115l0.091 0.458c0.341 2.415 0.536 5.204 0.536 8.039 0 18.101-7.938 34.349-20.523 45.451l-0.066 0.057c22.401 7.882 39.501 25.754 46.161 48.124l0.132 0.516c1.102 4.235 1.734 9.097 1.734 14.106 0 15.234-5.849 29.102-15.424 39.481l0.036-0.040c23.594 10.773 39.695 34.163 39.695 61.313 0 0.495-0.005 0.988-0.016 1.48l0.001-0.073c0.124 1.53 0.194 3.312 0.194 5.111 0 17.233-6.466 32.956-17.105 44.875l0.058-0.066c-16 16.64-41.387 24.533-80 24.533h-209.067c1.707 15.36 4.053 39.467 7.253 73.813 5.76 64-6.613 174.507-65.28 202.027-3.776 1.64-8.174 2.594-12.795 2.594-0.527 0-1.051-0.012-1.571-0.037l0.074 0.003s-39.040 0-51.413-14.507c-2.56-2.773-2.773-8.32 1.28-58.027 1.493-16.427 3.2-36.907 2.773-39.68-30.507-134.613-192-246.827-215.467-262.613l-192 1.28c-0.009 0-0.021 0-0.032 0-5.341 0-10.167-2.206-13.617-5.756l-0.004-0.005c-3.431-3.499-5.549-8.296-5.549-13.589 0-0.098 0.001-0.195 0.002-0.293v0.015zM283.947 152.96l-157.653-1.707v247.68l158.72-1.067c-1.92-144.853-2.133-213.12-1.067-244.907zM541.44 771.627l16.64 1.92c25.173-14.72 47.787-83.2 40.533-160.427-6.187-66.773-9.173-93.653-9.173-93.867-0.089-0.699-0.14-1.508-0.14-2.328 0-4.923 1.832-9.417 4.852-12.839l-0.018 0.021c3.495-3.934 8.567-6.4 14.215-6.4 0.027 0 0.055 0 0.082 0h228.263c2.629 0.346 5.67 0.543 8.756 0.543 15.537 0 29.905-5.003 41.582-13.485l-0.204 0.141c4.799-5.010 7.753-11.819 7.753-19.319 0-0.709-0.026-1.412-0.078-2.107l0.006 0.093c0-7.893 0-32.213-40.533-32.213-8.107 0-21.333-3.627-23.68-15.36-0.231-1.135-0.362-2.44-0.362-3.775 0-7.579 4.25-14.165 10.496-17.506l0.106-0.052c8.107-4.907 33.92-21.333 29.653-37.333-7.68-28.16-54.4-28.8-54.827-28.8-0.068 0.001-0.149 0.001-0.229 0.001-8.932 0-16.408-6.238-18.307-14.596l-0.024-0.126c-0.313-1.297-0.492-2.787-0.492-4.318 0-7.352 4.132-13.739 10.201-16.965l0.104-0.050c14.507-7.68 39.253-26.88 36.907-38.613-4.267-21.333-44.587-27.733-50.133-27.733-9.254-0.356-16.97-6.554-19.586-14.996l-0.040-0.151c-1.707-7.68 0-18.347 16.64-25.387 28.587-12.16 28.8-20.053 28.8-21.333 0-38.613-70.4-41.387-186.667-41.387-95.114 0.198-187.638 10.835-276.625 30.825l8.465-1.598-6.613 1.28c-11.947 0-24.32 1.493-36.267 1.92 0 42.667 0 162.133 1.28 256 36.053 24.533 192 137.813 225.28 281.173-0.272 28.459-2.667 56.136-7.033 83.152l0.42-3.152z" />
<glyph unicode="&#xe91e;" glyph-name="linkedin" d="M512 874.667c-235.641 0-426.667-191.025-426.667-426.667s191.025-426.667 426.667-426.667c235.641 0 426.667 191.025 426.667 426.667v0c0 235.641-191.025 426.667-426.667 426.667v0zM512 40.96c-224.802 0-407.040 182.238-407.040 407.040s182.238 407.040 407.040 407.040c224.802 0 407.040-182.238 407.040-407.040v0c-0.243-224.705-182.336-406.798-407.017-407.040h-0.023zM416.427 609.707c0-27.334-22.159-49.493-49.493-49.493s-49.493 22.159-49.493 49.493c0 27.334 22.159 49.493 49.493 49.493s49.493-22.159 49.493-49.493zM323.84 522.24h85.973v-275.627h-85.973v275.627zM628.693 528.853c-0.909 0.033-1.977 0.051-3.050 0.051-33.082 0-62.045-17.635-78.002-44.017l-0.229-0.407h-1.28v37.76h-82.133v-276.053h85.333v136.107c0 36.48 6.4 71.040 51.413 71.040s44.373-41.173 44.373-72.96v-134.187h85.333v151.040c1.28 74.24-15.147 131.627-101.76 131.627z" />
<glyph unicode="&#xe91f;" glyph-name="linkedin-big" d="M289.28 771.413c0-56.318-45.655-101.973-101.973-101.973s-101.973 45.655-101.973 101.973c0 56.318 45.655 101.973 101.973 101.973s101.973-45.655 101.973-101.973zM98.773 591.573h177.067v-567.467h-177.067v567.467zM726.613 605.013c-1.949 0.072-4.237 0.114-6.535 0.114-68.124 0-127.773-36.286-160.674-90.584l-0.47-0.836h-2.56v77.867h-169.173v-568.96h177.067v280.533c0 75.093 13.44 146.133 106.667 146.133s91.307-85.333 91.307-149.333v-277.333h176.427v311.253c0 152.96-33.493 271.147-212.053 271.147z" />
<glyph unicode="&#xe920;" glyph-name="map-icon" d="M512 912c-163.791-0.243-296.504-132.956-296.747-296.723v-0.023c0-91.947 47.147-213.333 140.16-358.187 46.686-72.324 92.258-134.313 141.159-193.448l-2.705 3.368c4.408-5.116 10.895-8.335 18.133-8.335s13.726 3.219 18.107 8.304l0.026 0.031c46.214 55.522 91.776 117.16 133.753 181.353l4.7 7.66c93.013 145.707 140.16 266.24 140.16 358.187 0 0.19 0.001 0.415 0.001 0.64 0 163.974-132.806 296.93-296.724 297.173h-0.024zM512 731.947c57.614 0 104.32-46.706 104.32-104.32s-46.706-104.32-104.32-104.32c-57.614 0-104.32 46.706-104.32 104.32v0c0.121 57.566 46.754 104.199 104.308 104.32h0.012z" />
<glyph unicode="&#xe921;" glyph-name="messenger" d="M512 874.667c-235.641 0-426.667-191.025-426.667-426.667s191.025-426.667 426.667-426.667c235.641 0 426.667 191.025 426.667 426.667v0c0 235.641-191.025 426.667-426.667 426.667v0zM512 40.96c-224.802 0-407.040 182.238-407.040 407.040s182.238 407.040 407.040 407.040c224.802 0 407.040-182.238 407.040-407.040v0c-0.243-224.705-182.336-406.798-407.017-407.040h-0.023zM512 693.12c-130.987 0-237.227-98.987-237.227-221.44 0-0.135 0-0.296 0-0.456 0-70.673 34.365-133.319 87.297-172.14l0.597-0.418v-84.053l80.853 45.013c20.362-5.825 43.749-9.174 67.918-9.174 0.197 0 0.395 0 0.592 0.001h-0.031c130.773 0 237.013 98.987 237.013 221.44s-106.88 221.227-237.013 221.227zM535.467 394.453l-60.587 65.067-118.613-64 129.493 137.813 62.080-64 116.48 64z" />
<glyph unicode="&#xe922;" glyph-name="popup-lightbox" d="M723.84 163.413c-1.988 0.43-4.272 0.677-6.613 0.677-18.027 0-32.64-14.613-32.64-32.64 0-0.013 0-0.026 0-0.039v0.002-46.080h-533.333v533.333h50.133c0.169-0.003 0.367-0.005 0.567-0.005 12.599 0 23.563 7.001 29.213 17.325l0.087 0.173c2.979 5.151 4.737 11.33 4.737 17.92 0 19.97-16.14 36.17-36.088 36.266h-81.929c-0.077 0.001-0.167 0.001-0.258 0.001-17.309 0-31.45-13.561-32.378-30.639l-0.004-0.082v-603.52c-0.039-0.16-0.061-0.344-0.061-0.533s0.022-0.373 0.065-0.549l-0.003 0.016c-0.007-0.254-0.011-0.554-0.011-0.854 0-18.073 14.594-32.738 32.64-32.853h599.264c18.027 0 32.64 14.613 32.64 32.64v0 76.373c0.001 0.073 0.001 0.16 0.001 0.246 0 15.892-10.998 29.215-25.798 32.774l-0.23 0.047zM906.027 210.133h-599.253c-17.978 0.12-32.52 14.662-32.64 32.629v599.264c0 18.027 14.613 32.64 32.64 32.64h599.253c0.064 0 0.139 0.001 0.214 0.001 17.909 0 32.427-14.518 32.427-32.427 0-0.075 0-0.15-0.001-0.226v0.012-599.253c0-18.027-14.613-32.64-32.64-32.64v0zM339.413 275.413h535.253v533.333h-533.333z" />
<glyph unicode="&#xe923;" glyph-name="print" d="M910.507 642.987h-106.667v175.147c0 0 0 0.001 0 0.001 0 15.595-12.582 28.252-28.149 28.372h-537.398l-2.56-1.28-2.347-1.28-1.92-1.707-2.347-1.707-1.493-1.92-1.92-2.347s0-1.493-1.067-2.133c-0.535-0.739-1.033-1.579-1.452-2.463l-0.041-0.097c0.044-0.384 0.069-0.829 0.069-1.28s-0.025-0.896-0.074-1.334l0.005 0.054s0-1.707 0-2.773c0.051-0.416 0.079-0.898 0.079-1.387s-0.029-0.97-0.085-1.444l0.006 0.057s0-1.707 0-2.773v0l1.067-175.147h-121.6c-1.164-1.556-1.991-3.432-2.336-5.471l-0.011-0.075-2.56-1.28-1.92-1.707-2.133-1.707-1.707-2.133c-1.216-1.267-2.22-2.75-2.948-4.382l-0.039-0.098-1.493-2.347v-2.773c-0.044-0.384-0.069-0.829-0.069-1.28s0.025-0.896 0.074-1.334l-0.005 0.054c-2.133-2.347-2.133-2.347-2.133-3.627s0-1.707 0-2.773v0l1.92-388.267c0.142-12.299 8.146-22.691 19.215-26.396l0.199-0.058c3.887-2.132 8.514-3.394 13.434-3.413h101.553v-118.613c0 0 0-0.001 0-0.001 0-15.595 12.582-28.252 28.149-28.372h525.024c15.578 0.121 28.16 12.777 28.16 28.373 0 0 0 0.001 0 0.001v0 118.613h101.76c17.088 0.886 30.99 13.475 33.888 29.862l0.032 0.218v388.053c0.001 0.063 0.001 0.138 0.001 0.213 0 15.552-12.608 28.16-28.16 28.16 0 0-0.001 0-0.001 0v0zM282.24 789.333h464.427v-146.987h-463.573zM746.667 106.667h-469.333v236.8h469.333zM775.040 400.64h-525.867c0 0-0.001 0-0.001 0-15.552 0-28.16-12.608-28.16-28.16 0-0.075 0-0.15 0.001-0.225v0.012-118.613h-73.6l-1.493 332.8h736.213v-333.44h-79.147v118.613c0.001 0.063 0.001 0.138 0.001 0.213 0 15.552-12.608 28.16-28.16 28.16 0 0-0.001 0-0.001 0v0z" />
<glyph unicode="&#xe924;" glyph-name="replay" d="M512 874.667c-0.824 0.006-1.798 0.009-2.773 0.009-235.641 0-426.667-191.025-426.667-426.667s191.025-426.667 426.667-426.667c235.638 0 426.662 191.020 426.667 426.657v0c0 0.003 0 0.006 0 0.009 0 234.666-189.448 425.085-423.744 426.657l-0.149 0.001zM512 37.333c-0.76-0.005-1.66-0.008-2.56-0.008-226.805 0-410.667 183.862-410.667 410.667s183.862 410.667 410.667 410.667c226.802 0 410.662-183.857 410.667-410.658v0c0.001-0.254 0.001-0.556 0.001-0.857 0-225.734-182.509-408.841-408.015-409.809h-0.093zM622.507 580.267c-1.337 0.911-2.988 1.455-4.765 1.455-4.713 0-8.533-3.821-8.533-8.533 0-2.524 1.096-4.792 2.838-6.354l0.008-0.007c38.91-30.376 63.692-77.285 63.692-129.983 0-90.84-73.64-164.48-164.48-164.48s-164.48 73.64-164.48 164.48c0 9.060 0.732 17.949 2.141 26.61l-0.127-0.948c12.921 79.171 80.817 138.862 162.655 138.862 2.818 0 5.619-0.071 8.403-0.211l-0.391 0.016-42.667-42.667c-1.508-1.538-2.439-3.647-2.439-5.973s0.931-4.435 2.441-5.975l-0.001 0.001c1.514-1.56 3.631-2.528 5.973-2.528s4.459 0.968 5.971 2.526l0.002 0.002 62.080 61.867-62.080 62.080c-1.573 2.082-4.045 3.413-6.827 3.413-4.713 0-8.533-3.821-8.533-8.533 0-2.782 1.331-5.253 3.392-6.811l0.021-0.016 40.32-39.893c-2.205 0.096-4.792 0.151-7.392 0.151-100.148 0-181.333-81.186-181.333-181.333 0-90.711 66.607-165.865 153.581-179.223l1.011-0.128c8.391-1.36 18.064-2.137 27.918-2.137 0.385 0 0.77 0.001 1.154 0.004h-0.059c99.536 0.956 179.857 81.867 179.857 181.539 0 57.741-26.956 109.187-68.971 142.438l-0.379 0.29z" />
<glyph unicode="&#xe925;" glyph-name="rss" d="M202.24 874.667c-0.065 0-0.143 0-0.22 0-28.259 0-56.138-1.628-83.548-4.794l3.341 0.314c-11.126-1.176-20.793-6.626-27.466-14.653l-0.054-0.067c-5.485-6.93-8.8-15.798-8.8-25.44 0-12.857 5.893-24.338 15.126-31.889l0.073-0.058c6.943-5.589 15.867-8.971 25.582-8.971 1.509 0 2.999 0.082 4.466 0.241l-0.182-0.016c21.262 2.581 45.88 4.054 70.842 4.054 0.295 0 0.589 0 0.884-0.001h-0.046c361.22-0.363 653.992-292.909 654.72-654.010v-0.070c0.003-0.722 0.004-1.576 0.004-2.431 0-24.767-1.319-49.226-3.89-73.31l0.259 2.994c-0.176-1.424-0.277-3.072-0.277-4.744 0-20.873 15.694-38.080 35.925-40.464l0.192-0.018h4.48c0.010 0 0.022 0 0.034 0 20.925 0 38.167 15.774 40.482 36.079l0.017 0.187c2.853 24.307 4.48 52.465 4.48 81.004 0 0.247 0 0.495 0 0.742v-0.039c-0.849 406.161-330.181 735.118-736.403 735.36h-0.024zM202.24 554.667c-29.852-0.046-58.953-3.151-87.039-9.018l2.772 0.484c-10.85-2.287-19.916-8.635-25.72-17.344l-0.093-0.149c-4.238-6.326-6.764-14.109-6.764-22.483 0-22.504 18.243-40.747 40.747-40.747 3.077 0 6.074 0.341 8.956 0.987l-0.272-0.051c20.025 4.342 43.029 6.829 66.615 6.829 0.431 0 0.861-0.001 1.292-0.002h-0.066c184.507-0.24 334.086-149.444 334.933-333.786v-0.081c-0.037-23.882-2.521-47.162-7.214-69.631l0.387 2.218c-0.515-2.423-0.809-5.207-0.809-8.060 0-8.364 2.533-16.137 6.875-22.592l-0.092 0.145c5.83-8.925 14.928-15.301 25.558-17.45l0.256-0.043h8.32c19.502 0.017 35.779 13.804 39.634 32.163l0.046 0.264c5.426 24.911 8.534 53.528 8.534 82.871 0 0.341 0 0.681-0.001 1.021v-0.053c-1.452 229.164-187.502 414.39-416.842 414.507h-0.011zM192 220.8c-51.722-0.002-93.649-41.931-93.649-93.653s41.93-93.653 93.653-93.653 93.653 41.93 93.653 93.653c0 0.3-0.001 0.6-0.004 0.899v-0.046c-0.602 51.308-42.276 92.683-93.642 92.8h-0.011zM192 98.133c-16.018 0.007-29.001 12.994-29.001 29.013 0 16.024 12.99 29.013 29.013 29.013 15.724 0 28.526-12.508 29-28.116l0.001-0.044c0.008-0.254 0.013-0.553 0.013-0.853 0-16.024-12.99-29.013-29.013-29.013-0.004 0-0.009 0-0.013 0h0.001z" />
<glyph unicode="&#xe926;" glyph-name="scroll" d="M648.533 415.573l-115.2-114.987v354.133c0 0.026 0 0.056 0 0.087 0 11.782-9.551 21.333-21.333 21.333-0.676 0-1.345-0.031-2.005-0.093l0.084 0.006c-10.224-1.702-17.922-10.481-17.922-21.059 0-0.097 0.001-0.193 0.002-0.289v0.015-356.053l-116.693 116.907c-3.031 1.755-6.669 2.79-10.548 2.79-11.782 0-21.333-9.551-21.333-21.333 0-3.934 1.065-7.62 2.922-10.784l-0.054 0.1 165.547-165.76 165.547 165.76c1.803 3.064 2.868 6.749 2.868 10.683 0 11.782-9.551 21.333-21.333 21.333-3.879 0-7.517-1.035-10.651-2.845l0.103 0.055zM512 874.667c-235.641 0-426.667-191.025-426.667-426.667s191.025-426.667 426.667-426.667c235.641 0 426.667 191.025 426.667 426.667v0c0 235.641-191.025 426.667-426.667 426.667v0zM512 55.68c-216.672 0-392.32 175.648-392.32 392.32s175.648 392.32 392.32 392.32c216.672 0 392.32-175.648 392.32-392.32v0c-0.243-216.575-175.745-392.077-392.297-392.32h-0.023z" />
<glyph unicode="&#xe927;" glyph-name="search" d="M928.213 88.107l-245.547 246.4-2.133 1.493c42.704 55.342 68.447 125.678 68.447 202.026 0 183.565-148.809 332.373-332.373 332.373s-332.373-148.809-332.373-332.373c0-183.565 148.809-332.373 332.373-332.373 82.34 0 157.686 29.941 215.746 79.53l-0.459-0.383 246.187-246.827c6.384-6.456 15.242-10.454 25.033-10.454 0.049 0 0.099 0 0.148 0h-0.008c0.031 0 0.069 0 0.106 0 9.735 0 18.536 4.001 24.848 10.447l0.006 0.006c6.424 6.411 10.398 15.275 10.398 25.067s-3.974 18.656-10.397 25.066l-0.001 0.001zM416.64 277.333c-143.859 0.001-260.479 116.621-260.479 260.48s116.621 260.48 260.48 260.48c143.859 0 260.48-116.621 260.48-260.48 0-0.225 0-0.45-0.001-0.675v0.035c-0.485-143.535-116.894-259.719-260.468-259.84h-0.012z" />
<glyph unicode="&#xe928;" glyph-name="social-share-arrow" d="M601.6 732.373l337.067-263.040-337.067-263.68v126.507c-17.92 0-298.667 21.333-516.267-168.533 87.040 267.733 328.32 394.88 516.267 442.453z" />
<glyph unicode="&#xe929;" glyph-name="social-share" d="M755.84 262.187c-0.177 0.001-0.388 0.001-0.598 0.001-23.354 0-45.227-6.339-63.993-17.39l0.591 0.322-301.867 181.547c1.221 6.356 1.92 13.667 1.92 21.14 0 0.068 0 0.136 0 0.204v-0.011c-0.008 9.16-1.097 18.062-3.144 26.59l0.157-0.777 289.067 187.52c21.101-16.883 48.18-27.094 77.643-27.094 0.079 0 0.157 0 0.236 0h-0.012c0.447-0.006 0.976-0.009 1.505-0.009 66.914 0 121.271 53.765 122.227 120.453l0.001 0.090c0 68.336-55.397 123.733-123.733 123.733s-123.733-55.397-123.733-123.733v0c0.019-6.113 0.484-12.101 1.363-17.953l-0.083 0.673-294.187-190.933c-19.552 13.364-43.709 21.34-69.728 21.34-0.461 0-0.922-0.003-1.382-0.008l0.070 0.001c-1.513 0.068-3.287 0.107-5.070 0.107-66.569 0-120.533-53.965-120.533-120.533s53.965-120.533 120.533-120.533c1.783 0 3.557 0.039 5.321 0.115l-0.252-0.009c28.027 0.063 53.893 9.262 74.792 24.774l-0.339-0.24 294.613-176.427c-3.248-10.088-5.12-21.694-5.12-33.737 0-0.064 0-0.129 0-0.193v0.010c-0.026-0.953-0.041-2.075-0.041-3.2 0-68.336 55.397-123.733 123.733-123.733s123.733 55.397 123.733 123.733c0 68.322-55.374 123.71-123.69 123.733h-0.002zM789.333 141.653c0.015-0.382 0.024-0.83 0.024-1.28 0-18.851-15.282-34.133-34.133-34.133s-34.133 15.282-34.133 34.133c0 18.843 15.268 34.12 34.108 34.133h0.001c0.192 0.004 0.419 0.006 0.646 0.006 18.275 0 33.132-14.636 33.487-32.826l0.001-0.033zM721.707 754.347c-0.015 0.382-0.024 0.83-0.024 1.28 0 18.851 15.282 34.133 34.133 34.133s34.133-15.282 34.133-34.133c0-18.843-15.268-34.12-34.108-34.133h-0.001c-0.192-0.004-0.419-0.006-0.646-0.006-18.275 0-33.132 14.636-33.487 32.826l-0.001 0.033zM302.293 448c0.021-0.446 0.033-0.968 0.033-1.493 0-18.851-15.282-34.133-34.133-34.133s-34.133 15.282-34.133 34.133c0 18.84 15.263 34.115 34.099 34.133h0.002c0.194 0.004 0.422 0.006 0.651 0.006 18.2 0 33.010-14.516 33.482-32.603l0.001-0.044z" />
<glyph unicode="&#xe92a;" glyph-name="sort-down" d="M822.827 386.987c-6.964 7.041-16.626 11.402-27.307 11.402s-20.343-4.36-27.303-11.398l-219.31-219.31v666.88c0.004 0.207 0.006 0.451 0.006 0.695 0 19.851-14.498 36.315-33.484 39.381l-0.229 0.031c-1.152 0.121-2.488 0.19-3.841 0.19-21.36 0-38.692-17.249-38.826-38.578v-665.613l-216.533 216.32c-6.997 6.97-16.648 11.28-27.307 11.28-21.37 0-38.693-17.323-38.693-38.693 0-10.711 4.352-20.406 11.385-27.412l310.614-310.828 310.827 310.827c7.002 7.022 11.331 16.712 11.331 27.413s-4.329 20.391-11.332 27.414l0.001-0.001z" />
<glyph unicode="&#xe92b;" glyph-name="sort-up" d="M822.827 509.013c-6.964-7.041-16.626-11.402-27.307-11.402s-20.343 4.36-27.303 11.398l-219.31 219.31v-666.88c0.004-0.207 0.006-0.451 0.006-0.695 0-19.851-14.498-36.315-33.484-39.381l-0.229-0.031c-1.152-0.121-2.488-0.19-3.841-0.19-21.36 0-38.692 17.249-38.826 38.578v665.613l-216.533-216.32c-6.997-6.97-16.648-11.28-27.307-11.28-21.37 0-38.693 17.323-38.693 38.693 0 10.711 4.352 20.406 11.385 27.412l310.614 310.828 310.827-310.827c7.002-7.022 11.331-16.712 11.331-27.413s-4.329-20.391-11.332-27.414l0.001 0.001z" />
<glyph unicode="&#xe92c;" glyph-name="tick" d="M928.64 768c-6.219 6.235-14.819 10.093-24.32 10.093s-18.101-3.858-24.319-10.092l-552.961-552.748-183.040 182.827c-6.224 6.224-14.822 10.074-24.32 10.074-18.995 0-34.394-15.399-34.394-34.394 0-9.498 3.85-18.096 10.074-24.32l231.68-231.68 601.6 601.6c6.235 6.219 10.093 14.819 10.093 24.32s-3.858 18.101-10.092 24.319l-0.001 0.001z" />
<glyph unicode="&#xe92d;" glyph-name="twitter-retweet" d="M341.333 388.907c-7.117 5.514-16.171 8.839-26.002 8.839-12.288 0-23.364-5.195-31.149-13.509l-0.022-0.024-24.747-24.747-1.92 259.2h353.707l68.693 74.88h-479.573l-1.28-1.067h-1.493l-1.28-1.28-1.493-8.533c-0.463-0.399-0.826-0.899-1.057-1.468l-0.009-0.026-1.707-0.853v-1.493l-1.067-1.28v-1.707c-0.019-0.224-0.030-0.484-0.030-0.747s0.011-0.523 0.033-0.78l-0.002 0.034c-0.018-0.255-0.029-0.553-0.029-0.853s0.011-0.598 0.031-0.893l-0.002 0.040v-4.907s0-1.28 0-1.92 0-1.067 0-1.707c-0.055-0.321-0.087-0.69-0.087-1.067s0.031-0.746 0.092-1.105l-0.005 0.039s0 0 0-1.493v-3.84l1.493-298.667-33.493 26.027c-7.807 8.337-18.882 13.532-31.171 13.532-9.831 0-18.886-3.325-26.1-8.912l0.098 0.073c-10.139-7.878-16.601-20.074-16.601-33.779 0-11.807 4.796-22.495 12.547-30.22l123.521-123.521 123.307 123.52c8.049 7.771 13.047 18.657 13.047 30.71 0 13.547-6.314 25.62-16.159 33.436l-0.088 0.067zM926.293 570.667l-123.52 123.52-123.307-123.52c-7.807-7.735-12.641-18.46-12.641-30.314 0-13.652 6.412-25.806 16.388-33.616l0.093-0.070c7.052-5.353 15.978-8.575 25.655-8.575 12.468 0 23.688 5.348 31.489 13.876l0.029 0.032 24.747 24.747 1.28-259.413h-353.707l-68.693-74.88h478.080l1.493 1.067h2.773l1.28 1.28h1.28c0.463 0.399 0.826 0.899 1.057 1.468l0.009 0.026 1.28 1.28 1.067 1.493v2.987c0.019 0.224 0.030 0.484 0.030 0.747s-0.011 0.523-0.033 0.78l0.002-0.034v6.613s0 1.28 0 1.92 0 1.067 0 1.707c0.055 0.321 0.087 0.69 0.087 1.067s-0.031 0.746-0.092 1.105l0.005-0.039s0 1.067 0 1.493v3.84l-1.493 298.667 34.133-17.92c7.807-8.337 18.882-13.532 31.171-13.532 9.831 0 18.886 3.325 26.1 8.912l-0.098-0.073c9.931 7.883 16.243 19.955 16.243 33.5 0 11.629-4.652 22.171-12.197 29.867l0.007-0.007z" />
<glyph unicode="&#xe92e;" glyph-name="twitter" d="M512 874.667c-235.641 0-426.667-191.025-426.667-426.667s191.025-426.667 426.667-426.667c235.641 0 426.667 191.025 426.667 426.667v0c0 235.641-191.025 426.667-426.667 426.667v0zM512 40.96c-224.802 0-407.040 182.238-407.040 407.040s182.238 407.040 407.040 407.040c224.802 0 407.040-182.238 407.040-407.040v0c-0.243-224.705-182.336-406.798-407.017-407.040h-0.023zM709.12 609.493c-15.587-9.583-33.718-16.966-53.046-21.128l-1.14-0.206c-15.579 16.376-37.534 26.561-61.867 26.561-47.016 0-85.151-38.023-85.333-84.997v-0.017c0-0.029 0-0.064 0-0.099 0-6.91 0.699-13.657 2.030-20.174l-0.11 0.646c-71.132 3.365-133.732 37.235-175.434 88.724l-0.352 0.449c-7.346-12.344-11.689-27.219-11.689-43.108 0-29.367 14.834-55.269 37.418-70.621l0.297-0.191c-14.148 0.686-27.268 4.475-38.892 10.694l0.492-0.241v-1.28c0.119-41.065 29.225-75.297 67.927-83.318l0.553-0.096c-6.338-1.821-13.653-2.975-21.202-3.197l-0.131-0.003c-5.914 0.119-11.598 0.581-17.178 1.367l0.751-0.087c11.176-34.161 42.429-58.543 79.484-59.305l0.089-0.001c-28.728-22.741-65.488-36.48-105.456-36.48-0.050 0-0.101 0-0.151 0h0.008c-7.183 0.096-14.14 0.559-20.989 1.37l0.936-0.090c36.956-24.099 82.191-38.433 130.774-38.433 133.491 0 241.707 108.216 241.707 241.707 0 0.237 0 0.473-0.001 0.71v-0.037 11.093c16.363 13.272 30.45 28.443 42.196 45.363l0.471 0.717c-14.119-6.079-30.557-10.841-47.69-13.505l-1.163-0.149c17.217 10.987 30.149 27.374 36.517 46.74l0.176 0.62z" />
<glyph unicode="&#xe92f;" glyph-name="twitter-channel" d="M938.667 716.8c-29.867-12.8-66.133-23.467-100.267-27.733 36.267 21.333 64 55.467 76.8 96-34.133-19.2-70.4-34.133-110.933-42.667-32 34.133-76.8 55.467-128 55.467-96 0-174.933-78.933-174.933-174.933 0-12.8 2.133-27.733 4.267-40.533-145.067 6.4-275.2 76.8-362.667 183.467-14.933-25.6-23.467-55.467-23.467-87.467 0-59.733 29.867-113.067 76.8-145.067-27.733 2.133-55.467 8.533-78.933 21.333v-2.133c0-85.333 59.733-155.733 140.8-170.667-14.933-4.267-29.867-6.4-44.8-6.4-10.667 0-23.467 2.133-34.133 2.133 23.467-70.4 87.467-121.6 164.267-121.6-59.733-46.933-134.4-74.667-217.6-74.667-14.933 0-27.733 2.133-40.533 2.133 76.8-49.067 170.667-78.933 268.8-78.933 322.133 0 499.2 266.667 499.2 499.2 0 8.533 0 14.933 0 23.467 32 21.333 61.867 53.333 85.333 89.6z" />
<glyph unicode="&#xe930;" glyph-name="video-play" d="M0 960v-1024h1024v1024zM411.52 296.747v293.547l254.080-146.773z" />
<glyph unicode="&#xe931;" glyph-name="video" d="M794.453 751.147h-564.907c-79.647 0-144.213-64.567-144.213-144.213v-317.867c0-79.647 64.567-144.213 144.213-144.213v0h564.907c79.647 0 144.213 64.567 144.213 144.213v0 317.867c0 79.647-64.567 144.213-144.213 144.213v0zM885.76 289.067c-0.121-50.335-40.954-91.093-91.306-91.093 0 0 0 0 0 0h-564.907c0 0 0 0 0 0-50.352 0-91.185 40.758-91.306 91.082v317.879c0.121 50.335 40.954 91.093 91.306 91.093 0 0 0 0 0 0h564.907c0 0 0 0 0 0 50.352 0 91.185-40.758 91.306-91.082v-0.012zM632.96 480.64l-172.8 110.933c-4.472 2.883-9.934 4.597-15.796 4.597-16.259 0-29.44-13.181-29.44-29.44 0-0.266 0.004-0.531 0.011-0.796l-0.001 0.039v-221.227c-0.001-0.086-0.001-0.188-0.001-0.29 0-16.141 13.085-29.227 29.227-29.227 5.954 0 11.491 1.78 16.11 4.837l-0.109-0.068 173.44 111.573c8.155 5.276 13.475 14.326 13.475 24.619 0 4.542-1.036 8.842-2.884 12.676l0.076-0.175c-2.636 5.007-6.487 9.063-11.171 11.871l-0.136 0.075z" />
<glyph unicode="&#xe932;" glyph-name="webcast" d="M823.467 145.707h-238.293l-50.56 53.547c-6.118 6.45-14.75 10.464-24.32 10.464-8.933 0-17.050-3.497-23.055-9.198l0.015 0.014-58.027-54.827h-234.667c-17.312-1.427-30.822-15.829-30.822-33.387s13.51-31.96 30.702-33.379l0.121-0.008h248.747c10.612 0.176 19.994 5.294 25.967 13.145l0.060 0.082 39.040 37.12 39.253-42.667c6.048-6.441 14.619-10.454 24.126-10.454 0.068 0 0.136 0 0.204 0.001h-0.010c3.676 0.051 7.191 0.672 10.482 1.777l-0.242-0.071h241.28c17.312 1.427 30.822 15.829 30.822 33.387s-13.51 31.96-30.702 33.379l-0.121 0.008zM928.853 646.4c-106.72 106.598-254.088 172.523-416.853 172.523s-310.133-65.924-416.859-172.528l0.005 0.005c-6.047-6.027-9.788-14.363-9.788-23.573s3.741-17.547 9.787-23.572l0.001-0.001c5.897-6.057 14.131-9.814 23.241-9.814 0.079 0 0.158 0 0.237 0.001h-0.012c0.077-0.001 0.168-0.001 0.259-0.001 9.167 0 17.457 3.755 23.417 9.81l0.004 0.004c94.691 94.454 225.378 152.858 369.707 152.858s275.016-58.405 369.718-152.869l-0.011 0.011c6.033-6.033 14.367-9.764 23.573-9.764 18.412 0 33.338 14.926 33.338 33.338 0 9.206-3.731 17.54-9.764 23.573v0zM778.88 455.893c9.244 0.027 17.608 3.771 23.681 9.815l-0.001-0.001c6.047 6.027 9.788 14.363 9.788 23.573s-3.741 17.547-9.787 23.572l-0.001 0.001c-74.404 74.266-177.119 120.191-290.56 120.191s-216.156-45.925-290.566-120.198l0.006 0.006c-6.033-6.033-9.764-14.367-9.764-23.573 0-18.412 14.926-33.338 33.338-33.338 9.206 0 17.54 3.731 23.573 9.764v0c62.351 62.173 148.393 100.615 243.413 100.615s181.063-38.442 243.421-100.623l-0.008 0.008c5.999-6.032 14.292-9.776 23.46-9.813h0.007zM338.133 379.52c-5.825-6.018-9.414-14.23-9.414-23.281 0-18.498 14.995-33.493 33.493-33.493 9.050 0 17.263 3.59 23.29 9.423l-0.009-0.009c32.361 32.408 77.093 52.456 126.507 52.456s94.146-20.048 126.505-52.454l0.002-0.002c6.106-5.958 14.464-9.634 23.68-9.634s17.574 3.675 23.687 9.64l-0.007-0.007c6.008 6.084 9.719 14.449 9.719 23.68s-3.711 17.596-9.723 23.683l0.003-0.003c-44.53 44.424-105.99 71.893-173.867 71.893s-129.337-27.469-173.872-71.898l0.005 0.005z" />
<glyph unicode="&#xe933;" glyph-name="website-share" d="M763.733 242.56c-23.898-0.245-46.024-7.624-64.409-20.102l0.409 0.262-329.173 196.48c2.438 8.599 3.84 18.476 3.84 28.679 0 0.043 0 0.085 0 0.128v-0.007c-0.001 11.664-1.874 22.889-5.335 33.394l0.215-0.754 315.307 203.947c20.578-19.295 48.336-31.147 78.863-31.147 0.1 0 0.199 0 0.299 0h-0.016c0.45-0.006 0.981-0.010 1.513-0.010 61.463 0 111.428 49.228 112.618 110.406l0.002 0.111c0 63.034-51.099 114.133-114.133 114.133s-114.133-51.099-114.133-114.133v0c0.073-8.581 1.079-16.889 2.923-24.877l-0.15 0.77-319.36-206.507c-19.559 15.815-44.734 25.388-72.145 25.388-0.212 0-0.423-0.001-0.634-0.002h0.033c-1.45 0.068-3.15 0.107-4.859 0.107-61.149 0-110.72-49.571-110.72-110.72s49.571-110.72 110.72-110.72c1.709 0 3.409 0.039 5.099 0.115l-0.24-0.009c0.009 0 0.019 0 0.029 0 29.008 0 55.526 10.663 75.848 28.282l-0.144-0.122 321.707-192c-5.117-12.108-8.095-26.184-8.107-40.955v-0.005c-0.033-1.017-0.051-2.213-0.051-3.413 0-63.034 51.099-114.133 114.133-114.133s114.133 51.099 114.133 114.133c0 63.016-51.070 114.104-114.079 114.133h-0.003zM763.733 810.667c25.718-0.714 46.293-21.732 46.293-47.556 0-26.274-21.299-47.573-47.573-47.573-26.268 0-47.564 21.29-47.573 47.555v0.001c0.359 26.353 21.805 47.578 48.209 47.578 0.227 0 0.453-0.002 0.678-0.005h-0.034zM260.267 400.64c-25.506 0.83-45.867 21.705-45.867 47.336 0 26.156 21.204 47.36 47.36 47.36 26.148 0 47.347-21.19 47.36-47.335v-0.001c-0.477-26.26-21.877-47.364-48.206-47.364-0.228 0-0.455 0.002-0.682 0.005h0.034zM763.733 85.333c-25.718 0.714-46.293 21.732-46.293 47.556 0 26.274 21.299 47.573 47.573 47.573 26.268 0 47.564-21.29 47.573-47.555v-0.001c-0.359-26.353-21.805-47.578-48.209-47.578-0.227 0-0.453 0.002-0.678 0.005h0.034z" />
<glyph unicode="&#xe934;" glyph-name="wechat" d="M512 874.667c-235.641 0-426.667-191.025-426.667-426.667s191.025-426.667 426.667-426.667c235.641 0 426.667 191.025 426.667 426.667v0c0 235.641-191.025 426.667-426.667 426.667v0zM512 40.96c-224.802 0-407.040 182.238-407.040 407.040s182.238 407.040 407.040 407.040c224.802 0 407.040-182.238 407.040-407.040v0c-0.243-224.705-182.336-406.798-407.017-407.040h-0.023zM493.013 474.667c32.35 30.498 75.871 49.456 123.813 50.132l0.134 0.001c-2.868 28.743-13.486 54.563-29.708 75.887l0.268-0.367c-35.675 43.301-89.305 70.696-149.332 70.696-21.59 0-42.351-3.544-61.736-10.081l1.361 0.398c-55.276-14.813-98.22-56.698-114.264-110.212l-0.296-1.148c-18.347-62.507 5.76-123.093 64-164.267 5.206-2.711 8.7-8.066 8.7-14.237 0-2.585-0.613-5.027-1.701-7.188l0.042 0.092c-3.84-13.867-6.4-27.52-9.6-42.667 18.773 11.733 34.347 22.827 51.413 32 4.056 2.196 8.879 3.487 14.004 3.487 1.456 0 2.889-0.104 4.289-0.306l-0.16 0.019c17.707-1.28 34.56-3.84 53.547-6.613-0.682 5.302-1.071 11.435-1.071 17.66 0 42.064 17.772 79.977 46.218 106.639l0.080 0.074zM511.36 566.4c11.782 0 21.333-9.551 21.333-21.333v0c0-11.782-9.551-21.333-21.333-21.333v0c-11.782 0-21.333 9.551-21.333 21.333v0c0 0.003 0 0.006 0 0.010 0 11.782 9.551 21.333 21.333 21.333 0.225 0 0.449-0.003 0.673-0.010l-0.033 0.001zM373.333 523.733c-11.509 0.356-20.703 9.771-20.703 21.333 0 11.787 9.556 21.343 21.343 21.343 0.225 0 0.449-0.003 0.673-0.010l-0.033 0.001c11.782 0 21.333-9.551 21.333-21.333v0c0.001-0.075 0.001-0.163 0.001-0.252 0-11.782-9.551-21.333-21.333-21.333-0.451 0-0.898 0.014-1.342 0.042l0.061-0.003zM530.987 481.067c-77.013-50.773-86.827-144.64-20.267-205.867 27.741-25.788 65.049-41.613 106.053-41.613 6.456 0 12.821 0.392 19.072 1.155l-0.751-0.075c12.995 3.717 28.501 6.721 44.396 8.424l1.257 0.109c16.743-4.266 31.45-10.559 44.872-18.751l-0.712 0.404c-0.624 4.477-1.519 8.442-2.705 12.279l0.145-0.546c-9.813 16.853-4.48 27.947 10.453 40.96 25.715 22.636 41.855 55.624 41.855 92.382 0 29.744-10.568 57.020-28.154 78.277l0.166-0.206c-30.751 36-76.189 58.676-126.923 58.676-32.911 0-63.592-9.542-89.43-26.010l0.673 0.401zM552.32 392.533c-0.064-0.001-0.139-0.001-0.215-0.001-9.543 0-17.28 7.737-17.28 17.28 0 0.075 0 0.151 0.001 0.226v-0.011c0.228 9.966 8.187 17.999 18.101 18.346l0.032 0.001c9.819-0.103 17.738-8.086 17.738-17.919 0-0.376-0.012-0.748-0.034-1.118l0.002 0.051c-0.79-9.475-8.675-16.867-18.287-16.867-0.246 0-0.491 0.005-0.735 0.014l0.035-0.001zM664.32 392.533c-0.206-0.009-0.447-0.014-0.69-0.014-9.308 0-16.853 7.545-16.853 16.853 0 0.455 0.018 0.907 0.054 1.353l-0.004-0.059c0.459 9.384 8.070 16.846 17.472 17.066h0.021c9.83-0.238 17.708-8.263 17.708-18.128 0-0.077 0-0.153-0.001-0.23v0.012c-0.318-9.058-7.737-16.28-16.844-16.28-0.529 0-1.053 0.024-1.569 0.072l0.066-0.005z" />
<glyph unicode="&#xe935;" glyph-name="whatsapp" d="M512 874.667c-235.641 0-426.667-191.025-426.667-426.667s191.025-426.667 426.667-426.667c235.641 0 426.667 191.025 426.667 426.667v0c0 235.641-191.025 426.667-426.667 426.667v0zM512 40.96c-224.802 0-407.040 182.238-407.040 407.040s182.238 407.040 407.040 407.040c224.802 0 407.040-182.238 407.040-407.040v0c-0.243-224.705-182.336-406.798-407.017-407.040h-0.023zM516.693 685.013c-0.045 0-0.099 0-0.152 0-130.899 0-237.013-106.114-237.013-237.013 0-43.763 11.861-84.756 32.543-119.939l-0.605 1.112-34.133-122.453 125.653 33.28c32.596-17.996 71.455-28.586 112.787-28.586 130.781 0 236.8 106.019 236.8 236.8 0 130.533-105.617 236.398-236.056 236.799h-0.038zM516.693 251.093c-0.286-0.001-0.625-0.002-0.964-0.002-36.589 0-70.905 9.737-100.496 26.762l0.98-0.52-7.040 4.693-74.24-19.627 20.053 72.96-5.76 6.4c-18.755 29.684-29.886 65.809-29.886 104.534 0 109.077 88.308 197.528 197.33 197.76h0.022c0.111 0 0.243 0 0.375 0 54.305 0 103.447-22.103 138.922-57.803l0.010-0.010c35.443-35.118 57.388-83.806 57.388-137.62 0-0.218 0-0.436-0.001-0.653v0.034c0-108.674-88.037-196.785-196.682-196.907h-0.011zM624.213 398.293c-5.973 3.2-35.2 17.493-40.533 19.627s-9.173 3.2-13.013-3.413c-6.322-8.786-12.48-16.434-19.012-23.739l0.239 0.272c-3.413-3.84-7.253-4.48-13.013-1.28-18.521 7.546-34.467 17.465-48.419 29.615l0.206-0.175c-12.715 11.882-23.732 25.342-32.803 40.124l-0.477 0.836c-0.914 1.381-1.458 3.077-1.458 4.899 0 3.108 1.582 5.846 3.986 7.453l0.033 0.020c2.56 2.56 5.973 7.253 9.173 10.453 2.479 2.747 4.442 6.015 5.699 9.614l0.061 0.199c0.901 1.494 1.434 3.298 1.434 5.227s-0.533 3.733-1.46 5.273l0.026-0.046c-1.28 3.2-13.013 31.787-18.133 42.667s-9.813 9.813-13.013 10.453h-11.093c-6.208-0.137-11.743-2.906-15.553-7.23l-0.020-0.023c-13.137-12.090-21.34-29.367-21.34-48.56 0-0.328 0.002-0.656 0.007-0.983l-0.001 0.050c2.261-23.345 10.973-44.304 24.308-61.497l-0.202 0.27c25.535-37.816 59.541-68.064 99.416-88.48l1.491-0.693c14.293-5.76 25.387-9.813 33.92-12.373 7.271-2.24 15.63-3.53 24.29-3.53 4.528 0 8.974 0.353 13.311 1.032l-0.481-0.062c17.131 3.583 31.341 13.952 39.954 28.104l0.152 0.27c2.775 5.295 4.404 11.567 4.404 18.22 0 3.455-0.439 6.807-1.265 10.003l0.061-0.277c-0.64 3.2-5.12 5.12-10.88 7.68z" />
<glyph unicode="&#xe936;" glyph-name="youtube" d="M512 874.667c-235.641 0-426.667-191.025-426.667-426.667s191.025-426.667 426.667-426.667c235.641 0 426.667 191.025 426.667 426.667v0c0 235.641-191.025 426.667-426.667 426.667v0zM512 40.96c-224.802 0-407.040 182.238-407.040 407.040s182.238 407.040 407.040 407.040c224.802 0 407.040-182.238 407.040-407.040v0c-0.243-224.705-182.336-406.798-407.017-407.040h-0.023zM713.173 580.693c-10.647 10.805-25.441 17.5-41.798 17.5-0.305 0-0.61-0.002-0.915-0.007l0.046 0.001c-57.813 4.693-145.067 4.693-145.067 4.693s-87.467 0-145.28-4.053c-0.154 0.001-0.335 0.002-0.517 0.002-16.467 0-31.372-6.687-42.148-17.494l-0.001-0.001c-8.455-11.465-14.24-25.393-16.168-40.525l-0.045-0.435s-1.28-33.92-1.28-67.2v-31.36c0.173-23.815 1.563-47.085 4.113-70.005l-0.273 3.019c1.973-15.567 7.758-29.495 16.383-41.201l-0.17 0.241c12.009-10.952 28.043-17.671 45.646-17.707h0.007c33.28-3.2 141.44-3.84 141.44-3.84s87.253 0 145.067 4.48c0.144-0.001 0.314-0.002 0.485-0.002 16.516 0 31.45 6.776 42.173 17.7l0.009 0.009c8.455 11.465 14.24 25.393 16.168 40.525l0.045 0.435c2.376 19.938 3.843 43.269 4.051 66.901l0.002 0.299v31.147c0.010 1.166 0.016 2.543 0.016 3.922 0 21.786-1.479 43.227-4.342 64.227l0.273-2.443c-2.49 15.783-8.844 29.756-18.059 41.354l0.139-0.181zM483.2 402.773v116.693l112-58.667z" />
<glyph unicode="&#xe937;" glyph-name="youtube-channel" d="M930.133 616.533c0 0-8.533 59.733-34.133 85.333-32 34.133-68.267 34.133-85.333 36.267-119.467 8.533-298.667 8.533-298.667 8.533v0c0 0-179.2 0-298.667-8.533-17.067-2.133-53.333-2.133-85.333-36.267-25.6-25.6-34.133-85.333-34.133-85.333s-8.533-68.267-8.533-136.533v-64c0-70.4 8.533-138.667 8.533-138.667s8.533-59.733 34.133-85.333c32-34.133 74.667-34.133 93.867-36.267 68.267-6.4 290.133-6.4 290.133-6.4s179.2 0 298.667 8.533c17.067 2.133 53.333 2.133 85.333 36.267 25.6 25.6 34.133 85.333 34.133 85.333s8.533 70.4 8.533 138.667v64c2.133 66.133-8.533 134.4-8.533 134.4zM422.4 334.933v241.067l230.4-121.6-230.4-119.467z" />
<glyph unicode="&#xe938;" glyph-name="zoom-in-inverted" d="M512 853.333c-235.641 0-426.667-191.025-426.667-426.667s191.025-426.667 426.667-426.667c235.641 0 426.667 191.025 426.667 426.667v0c0 235.641-191.025 426.667-426.667 426.667v0zM694.187 247.253c-1.136-1.008-2.621-1.644-4.254-1.706h-0.013c-1.722 0.009-3.292 0.655-4.487 1.713l0.007-0.006-117.12 117.12c-26.597-25.712-62.873-41.557-102.851-41.557-81.768 0-148.053 66.286-148.053 148.053s66.286 148.053 148.053 148.053c81.768 0 148.053-66.286 148.053-148.053 0-37.439-13.896-71.632-36.812-97.702l0.143 0.166 117.333-117.333c1.070-1.141 1.727-2.68 1.727-4.373s-0.657-3.232-1.731-4.377l0.003 0.003zM464 608.853c-75.877 0-137.387-61.51-137.387-137.387s61.51-137.387 137.387-137.387c75.877 0 137.387 61.51 137.387 137.387v0c-0.121 75.828-61.559 137.266-137.375 137.387h-0.011zM535.467 464h-64v-64c0.002-0.064 0.004-0.138 0.004-0.213 0-3.299-2.674-5.973-5.973-5.973-0.001 0-0.003 0-0.004 0v0c-3.417 0-6.187 2.77-6.187 6.187v0 64h-64c-3.417 0-6.187 2.77-6.187 6.187s2.77 6.187 6.187 6.187h64v64c0 3.417 2.77 6.187 6.187 6.187v0c0.001 0 0.002 0 0.004 0 3.299 0 5.973-2.674 5.973-5.973 0-0.075-0.001-0.15-0.004-0.224v0.011-64h64c3.417 0 6.187-2.77 6.187-6.187s-2.77-6.187-6.187-6.187v0z" />
<glyph unicode="&#xe939;" glyph-name="zoom-in" d="M531.2 503.467h-64v64c0 4.267-2.133 6.4-6.4 6.4s-6.4-2.133-6.4-6.4v-64h-64c-4.267 0-6.4-2.133-6.4-6.4s2.133-6.4 6.4-6.4h64v-64c0-4.267 2.133-6.4 6.4-6.4s6.4 2.133 6.4 6.4v64h64c4.267 0 6.4 2.133 6.4 6.4s-2.133 6.4-6.4 6.4zM571.733 403.2c23.467 25.6 36.267 59.733 36.267 96 0 81.067-66.133 147.2-147.2 147.2s-147.2-66.133-147.2-147.2 66.133-147.2 147.2-147.2c40.533 0 76.8 14.933 102.4 42.667l115.2-115.2c2.133-2.133 2.133-2.133 4.267-2.133s2.133 0 4.267 2.133 2.133 6.4 0 8.533l-115.2 115.2zM462.933 364.8c-74.667 0-134.4 59.733-134.4 134.4s59.733 134.4 134.4 134.4 134.4-59.733 134.4-134.4-61.867-134.4-134.4-134.4zM509.867 883.2c-234.667 0-426.667-192-426.667-426.667s192-426.667 426.667-426.667 426.667 192 426.667 426.667-192 426.667-426.667 426.667zM509.867 40.533c-228.267 0-413.867 185.6-413.867 413.867s185.6 413.867 413.867 413.867 413.867-185.6 413.867-413.867c0-228.267-185.6-413.867-413.867-413.867z" />
<glyph unicode="&#xe93a;" glyph-name="zoom-out-inverted" d="M470.827 623.573c-75.877 0-137.387-61.51-137.387-137.387s61.51-137.387 137.387-137.387c75.877 0 137.387 61.51 137.387 137.387v0c-0.121 75.828-61.559 137.266-137.375 137.387h-0.011zM542.293 478.72h-141.44c-3.417 0-6.187 2.77-6.187 6.187s2.77 6.187 6.187 6.187h141.44c3.417 0 6.187-2.77 6.187-6.187s-2.77-6.187-6.187-6.187v0zM512 874.667c-235.641 0-426.667-191.025-426.667-426.667s191.025-426.667 426.667-426.667c235.641 0 426.667 191.025 426.667 426.667v0c0 235.641-191.025 426.667-426.667 426.667v0zM701.013 261.973c-1.136-1.008-2.621-1.644-4.254-1.706h-0.013c-1.722 0.009-3.292 0.655-4.487 1.713l0.007-0.006-116.267 117.12c-26.597-25.712-62.873-41.557-102.851-41.557-81.768 0-148.053 66.286-148.053 148.053s66.286 148.053 148.053 148.053c81.768 0 148.053-66.286 148.053-148.053 0-37.439-13.896-71.632-36.812-97.702l0.143 0.166 117.333-117.333c0.837-1.071 1.342-2.437 1.342-3.922 0-1.922-0.847-3.646-2.188-4.819l-0.007-0.006z" />
<glyph unicode="&#xe93b;" glyph-name="zoom-out" d="M512 874.667c-235.641 0-426.667-191.025-426.667-426.667s191.025-426.667 426.667-426.667c235.641 0 426.667 191.025 426.667 426.667v0c0 235.641-191.025 426.667-426.667 426.667v0zM512 33.28c-229.044 0-414.72 185.676-414.72 414.72s185.676 414.72 414.72 414.72c229.044 0 414.72-185.676 414.72-414.72v0c-0.243-228.946-185.775-414.477-414.697-414.72h-0.023zM534.613 497.493h-138.453c-3.252-0.114-5.86-2.721-5.973-5.963v-0.011c0-3.299 2.674-5.973 5.973-5.973v0h138.453c0.065-0.003 0.141-0.004 0.217-0.004 3.181 0 5.76 2.579 5.76 5.76 0 0.076-0.001 0.153-0.004 0.228v-0.011c0 3.299-2.674 5.973-5.973 5.973v0zM576 396.587c22.725 25.835 36.592 59.942 36.592 97.288 0 81.532-66.095 147.627-147.627 147.627s-147.627-66.095-147.627-147.627c0-81.532 66.095-147.627 147.627-147.627 39.941 0 76.176 15.861 102.752 41.629l-0.038-0.036 114.56-114.56c1.045-1.056 2.493-1.709 4.095-1.709 0.060 0 0.121 0.001 0.18 0.003h-0.009c0.13-0.012 0.281-0.018 0.434-0.018 1.523 0 2.89 0.665 3.828 1.72l0.005 0.005c1.107 1.085 1.793 2.596 1.793 4.267s-0.686 3.182-1.792 4.266l-0.001 0.001zM465.493 358.187c-74.345 0-134.613 60.269-134.613 134.613s60.268 134.613 134.613 134.613c74.345 0 134.613-60.268 134.613-134.613 0-0.075 0-0.15 0-0.225v0.012c-0.12-74.254-60.342-134.403-134.613-134.403-0.3 0-0.6 0.001-0.899 0.003h0.046z" />
<glyph unicode="&#xe93c;" glyph-name="calendar" d="M774.613 789.333v52.48c0 18.144-14.709 32.853-32.853 32.853s-32.853-14.709-32.853-32.853v-52.48h-88.107v52.48c0.068 0.792 0.107 1.714 0.107 2.645 0 18.144-14.709 32.853-32.853 32.853s-32.853-14.709-32.853-32.853c0-0.931 0.039-1.853 0.115-2.765l-0.008 0.119v-52.48h-88.107v52.48c0 18.144-14.709 32.853-32.853 32.853s-32.853-14.709-32.853-32.853v-52.48h-88.107v52.48c0.068 0.792 0.107 1.714 0.107 2.645 0 18.144-14.709 32.853-32.853 32.853s-32.853-14.709-32.853-32.853c0-0.931 0.039-1.853 0.115-2.765l-0.008 0.119v-52.48c-85.276-4.436-152.742-74.658-152.747-160.639v-446.508c0.121-88.788 72.065-160.732 160.842-160.853h512.012c88.788 0.121 160.732 72.065 160.853 160.842v446.305c0 0.040 0 0.088 0 0.136 0 86.511-68.295 157.071-153.911 160.706l-0.329 0.011zM869.76 182.4c0-0.063 0-0.138 0-0.213 0-56.2-45.56-101.76-101.76-101.76 0 0 0 0 0 0h-512c-56.2 0-101.76 45.56-101.76 101.76v337.92h715.52zM869.76 579.413h-715.52v49.067c0.056 53.303 41.086 97.006 93.287 101.309l0.366 0.024v-52.053c-0.068-0.792-0.107-1.714-0.107-2.645 0-18.144 14.709-32.853 32.853-32.853s32.853 14.709 32.853 32.853c0 0.931-0.039 1.853-0.115 2.765l0.008-0.119v52.48h88.107v-52.48c0-18.144 14.709-32.853 32.853-32.853s32.853 14.709 32.853 32.853v52.48h87.467v-52.48c-0.068-0.792-0.107-1.714-0.107-2.645 0-18.144 14.709-32.853 32.853-32.853s32.853 14.709 32.853 32.853c0 0.931-0.039 1.853-0.115 2.765l0.008-0.119v52.48h88.107v-52.48c0-18.144 14.709-32.853 32.853-32.853s32.853 14.709 32.853 32.853v0 52.267c53.282-3.576 95.147-47.671 95.147-101.545 0-0.001 0-0.001 0-0.002v0z" />
<glyph unicode="&#xe93d;" glyph-name="social-empty" d="M512 874.667c-235.641 0-426.667-191.025-426.667-426.667s191.025-426.667 426.667-426.667c235.641 0 426.667 191.025 426.667 426.667v0c0 235.641-191.025 426.667-426.667 426.667v0zM512 40.96c-224.802 0-407.040 182.238-407.040 407.040s182.238 407.040 407.040 407.040c224.802 0 407.040-182.238 407.040-407.040v0c-0.243-224.705-182.336-406.798-407.017-407.040h-0.023z" />
<glyph unicode="&#xe93e;" glyph-name="zoom-out-edge" d="M512 949.333c-277.333 0-501.333-224-501.333-501.333s224-501.333 501.333-501.333 501.333 224 501.333 501.333-224 501.333-501.333 501.333zM512-38.4c-268.8 0-486.4 217.6-486.4 486.4s217.6 486.4 486.4 486.4 486.4-217.6 486.4-486.4-217.6-486.4-486.4-486.4zM537.6 505.6h-160c-4.267 0-6.4-2.133-6.4-6.4s2.133-6.4 6.4-6.4h162.133c4.267 0 6.4 2.133 6.4 6.4s-4.267 6.4-8.533 6.4zM586.667 388.267c25.6 29.867 42.667 70.4 42.667 113.067 0 93.867-76.8 172.8-172.8 172.8-93.867 0-172.8-76.8-172.8-172.8s76.8-172.8 172.8-172.8c46.933 0 89.6 19.2 119.467 49.067l134.4-134.4c2.133-2.133 2.133-2.133 4.267-2.133s4.267 0 4.267 2.133 2.133 6.4 0 10.667l-132.267 134.4zM456.533 343.467c-87.467 0-157.867 70.4-157.867 157.867s70.4 157.867 157.867 157.867 157.867-70.4 157.867-157.867-70.4-157.867-157.867-157.867z" />
<glyph unicode="&#xe93f;" glyph-name="zoom-in-edge" d="M539.733 505.6h-74.667v74.667c0 4.267-2.133 6.4-6.4 6.4s-6.4-2.133-6.4-6.4v-74.667h-74.667c-4.267 0-6.4-2.133-6.4-6.4s2.133-6.4 6.4-6.4h74.667v-74.667c0-4.267 2.133-6.4 6.4-6.4s6.4 2.133 6.4 6.4v72.533h74.667c4.267 0 6.4 2.133 6.4 6.4s-4.267 8.533-6.4 8.533zM586.667 386.133c25.6 29.867 42.667 70.4 42.667 113.067 0 93.867-76.8 172.8-172.8 172.8-93.867 0-172.8-76.8-172.8-172.8s76.8-172.8 172.8-172.8c46.933 0 89.6 19.2 119.467 49.067l134.4-134.4c2.133-2.133 2.133-2.133 4.267-2.133s4.267 0 4.267 2.133 2.133 6.4 0 10.667l-132.267 134.4zM456.533 341.333c-87.467 0-157.867 70.4-157.867 157.867s70.4 157.867 157.867 157.867 157.867-70.4 157.867-157.867-70.4-157.867-157.867-157.867zM512 949.333c-277.333 0-501.333-224-501.333-501.333s224-501.333 501.333-501.333 501.333 224 501.333 501.333-224 501.333-501.333 501.333zM512-38.4c-268.8 0-486.4 217.6-486.4 486.4s217.6 486.4 486.4 486.4 486.4-217.6 486.4-486.4c0-268.8-217.6-486.4-486.4-486.4z" />
<glyph unicode="&#xe940;" glyph-name="warning" d="M469.333 288h87.467v-81.067h-87.467v81.067zM469.333 590.933h87.467v-243.2h-87.467v243.2zM925.867 217.6l-345.6 552.533c-17.067 21.333-42.667 36.267-66.133 36.267-25.6 0-51.2-12.8-68.267-38.4l-347.733-552.533c-17.067-27.733-17.067-59.733-4.267-83.2 14.933-25.6 42.667-42.667 72.533-42.667h689.067c29.867 0 55.467 14.933 72.533 42.667l4.267 10.667c2.133 8.533 6.4 19.2 6.4 32 0 10.667 0 27.733-12.8 42.667zM883.2 160l-2.133-4.267c-4.267-6.4-12.8-14.933-25.6-14.933h-689.067c-14.933 0-23.467 8.533-27.733 17.067-6.4 10.667 0 25.6 2.133 29.867l345.6 550.4c6.4 8.533 17.067 14.933 25.6 14.933s19.2-6.4 23.467-12.8l345.6-552.533 2.133-2.133c0-2.133 0-8.533 0-12.8 4.267-4.267 2.133-6.4 0-12.8z" />
<glyph unicode="&#xe941;" glyph-name="download-basket" horiz-adv-x="1184" d="M592.148 249.698c-10.831 0-19.692 8.862-19.692 19.692v670.917c0 10.831 8.862 19.692 19.692 19.692s19.692-8.862 19.692-19.692v-670.917c0-11.028-8.665-19.692-19.692-19.692zM592.345 209.723l-319.212 319.212c-7.68 7.68-7.68 20.086 0 27.766s20.086 7.68 27.766 0l291.249-291.249 291.249 291.249c7.68 7.68 20.086 7.68 27.766 0s7.68-20.086 0-27.766l-318.818-319.212zM198.498-64h-166.006c-3.151 0-6.498 0-9.649 0.197-0.788-0.197-1.772-0.197-2.56-0.197v0.394c-10.831 1.182-20.283 5.12-20.283 19.298 0 1.378 0.197 2.954 0.394 4.135v301.095c0 10.831 8.862 19.692 19.692 19.692s19.692-8.862 19.692-19.692v-285.538c139.422 0 966.302 0 1105.132 0v285.538c0 10.831 8.862 19.692 19.692 19.692s19.692-8.862 19.692-19.692v-305.231c0-10.831-8.862-19.692-19.692-19.692h-966.105z" />
</font>
</defs>
</svg>
