<?xml version="1.0" encoding="UTF-8"?>
<svg width="34px" height="578px" viewBox="0 0 34 578" version="1.1" xmlns="http://www.w3.org/2000/svg" xmlns:xlink="http://www.w3.org/1999/xlink">
    <!-- Generator: Sketch 52.3 (67297) - http://www.bohemiancoding.com/sketch -->
    <title>Video Blade Icons </title>
    <desc>Created with Sketch.</desc>
    <defs>
        <path d="M16.0711111,0.124055457 C24.7663911,0.124055457 31.8151111,7.22572924 31.8151111,15.9863329 C31.8151111,24.7469365 24.7663911,31.8486103 16.0711111,31.8486103 C7.37583111,31.8486103 0.327111111,24.7469365 0.327111111,15.9863329 C0.327111111,7.22572924 7.37583111,0.124055457 16.0711111,0.124055457 Z M12.0977454,21.9647678 L23.3133511,16.1500599 L12.0919201,10.3255607 C11.8556726,10.2087182 11.6627911,10.3053254 11.6627911,10.5396631 L11.6679691,21.7500126 C11.6679691,21.9843503 11.8614979,22.0809575 12.0977454,21.9647678 Z" id="path-1"></path>
        <path d="M16.0711111,0.124055457 C24.7663911,0.124055457 31.8151111,7.22572924 31.8151111,15.9863329 C31.8151111,24.7469365 24.7663911,31.8486103 16.0711111,31.8486103 C7.37583111,31.8486103 0.327111111,24.7469365 0.327111111,15.9863329 C0.327111111,7.22572924 7.37583111,0.124055457 16.0711111,0.124055457 Z M12.0977454,21.9647678 L23.3133511,16.1500599 L12.0919201,10.3255607 C11.8556726,10.2087182 11.6627911,10.3053254 11.6627911,10.5396631 L11.6679691,21.7500126 C11.6679691,21.9843503 11.8614979,22.0809575 12.0977454,21.9647678 Z" id="path-2"></path>
    </defs>
    <g id="Video-Blade-Icons-" stroke="none" stroke-width="1" fill="none" fill-rule="evenodd">
        <path d="M20.6840823,561.479938 L29.0908853,553.073135 C30.2515205,551.9125 30.2515205,550.031112 29.0908853,548.870476 C27.9287641,547.709841 26.047376,547.709841 24.8867408,548.870476 L16.4799378,557.277279 L8.07462091,548.870476 C6.91398574,547.709841 5.03111154,547.709841 3.87047637,548.870476 C2.70984121,550.031112 2.70984121,551.9125 3.87047637,553.073135 L12.2772794,561.479938 L3.87047637,569.886741 C2.70984121,571.047376 2.70984121,572.928764 3.87047637,574.089399 C5.03111154,575.250034 6.91398574,575.250034 8.07462091,574.089399 L16.4799378,565.682596 L24.9253791,574.128038 C26.0875003,575.288673 27.9688885,575.288673 29.1295236,574.128038 C30.2901588,572.967402 30.2901588,571.086014 29.1295236,569.925379 L20.6840823,561.479938 Z" id="Fill-1159" stroke="#FFFFFF" fill="#FFFFFF"></path>
        <g id="Atlantic-Icons/48px/Actions/2016" transform="translate(1.000000, 511.000000)" fill="#FFFFFF">
            <path d="M14.3252558,4.33632653 L14.3252558,0.927346939 C14.3252558,0.442122449 14.6475814,0.273632653 15.0408837,0.553142857 L22.1392093,5.64244898 L15.0408837,10.6501224 C14.6475814,10.9296327 14.3252558,10.7611429 14.3252558,10.2752653 L14.3252558,6.94857143 C8.22125581,6.94857143 3.25548837,11.9288163 3.25548837,18.0506122 C3.25548837,24.1724082 8.22125581,29.1526531 14.3252558,29.1526531 C20.4292558,29.1526531 25.3950233,24.1724082 25.3950233,18.0506122 C25.3950233,14.5743673 23.7912093,11.4690612 21.2894419,9.43216327 L23.4806047,7.88440816 C26.2493488,10.3941224 27.9996744,14.0127347 27.9996744,18.0506122 C27.9996744,25.6248163 21.8774419,31.764898 14.3252558,31.764898 C6.77306977,31.764898 0.650837209,25.6248163 0.650837209,18.0506122 C0.650837209,10.4764082 6.77306977,4.33632653 14.3252558,4.33632653" id="Fill-1302"></path>
        </g>
        <g id="Twitter" transform="translate(1.000000, 478.000000)">
            <circle id="Oval-5" fill="#FFFFFF" cx="15.5" cy="15.5" r="15.5"></circle>
            <path d="M21.350766,11.7390582 C21.9440629,11.3958544 22.3993074,10.8516539 22.61296,10.20338 C22.0574632,10.5219558 21.4436227,10.7523472 20.7886952,10.8770764 C20.266068,10.3368482 19.5191055,10 18.6924341,10 C17.1064741,10 15.8212714,11.2433194 15.8212714,12.7766142 C15.8212714,12.9942944 15.8451018,13.2064134 15.8944063,13.408999 C13.5080707,13.2930088 11.3920878,12.1887188 9.97458473,10.5076556 C9.72724071,10.9191824 9.58590127,11.3958544 9.58590127,11.9043045 C9.58590127,12.8671819 10.0929154,13.7172469 10.8637084,14.2161635 C10.3928509,14.2018634 9.9499325,14.0755453 9.56207079,13.8689874 L9.56207079,13.9031489 C9.56207079,15.2489528 10.5514469,16.3715152 11.8670541,16.6257403 C11.6254622,16.6908855 11.372366,16.723458 11.1094089,16.723458 C10.9245172,16.723458 10.7437342,16.7067745 10.5695252,16.6742019 C10.9343781,17.7769031 11.9952456,18.5808898 13.2525092,18.60234 C12.2688854,19.3475372 11.0305218,19.7908421 9.68533192,19.7908421 C9.45360099,19.7908421 9.22433527,19.7789253 9,19.7527084 C10.2712332,20.5400116 11.7807713,21 13.4028878,21 C18.6866819,21 21.5742795,16.7687419 21.5742795,13.0991622 C21.5742795,12.9784053 21.572636,12.8584429 21.5668838,12.7400693 C22.1281329,12.3484039 22.616247,11.8590207 23,11.3021089 C22.4847684,11.5229669 21.9309151,11.6723241 21.350766,11.7390582 Z" id="Shape" fill="#393737"></path>
        </g>
        <g id="Pinterest" transform="translate(1.000000, 444.000000)">
            <circle id="Oval-4" fill="#FFFFFF" cx="15.5" cy="15.5" r="15.5"></circle>
            <path d="M8,16 C8,19.275635 9.97083725,22.0903104 12.7902164,23.3273754 C12.766698,22.7685795 12.7855127,22.0978363 12.9285042,21.4901223 C13.0827846,20.841016 13.957667,17.130762 13.957667,17.130762 C13.957667,17.130762 13.7017874,16.6199436 13.7017874,15.8654751 C13.7017874,14.6792098 14.3894638,13.7939793 15.2445908,13.7939793 C15.9727187,13.7939793 16.3245532,14.3405456 16.3245532,14.9952963 C16.3245532,15.7271872 15.8579492,16.8212606 15.6180621,17.8344309 C15.4176858,18.6829727 16.0432738,19.374412 16.8805268,19.374412 C18.3960489,19.374412 19.4167451,17.4289746 19.4167451,15.1213547 C19.4167451,13.3687676 18.2361242,12.056444 16.088429,12.056444 C13.6613358,12.056444 12.1495767,13.8664158 12.1495767,15.8871119 C12.1495767,16.5841957 12.3555974,17.0761994 12.6763876,17.4562559 C12.8250235,17.6312324 12.8457197,17.7017874 12.7920978,17.9031044 C12.7544685,18.0489182 12.6660395,18.4045155 12.6293509,18.5446849 C12.5757291,18.7469426 12.4120414,18.8193791 12.2285983,18.7450611 C11.1110066,18.2878645 10.5907808,17.0639699 10.5907808,15.6886171 C10.5907808,13.4158043 12.5061148,10.6904986 16.3076199,10.6904986 C19.3621825,10.6904986 21.3725306,12.901223 21.3725306,15.2737535 C21.3725306,18.4120414 19.6274694,20.75635 17.0555033,20.75635 C16.1919097,20.75635 15.3800564,20.289746 15.1015992,19.7591722 C15.1015992,19.7591722 14.6368768,21.6020696 14.5380997,21.9586077 C14.3697084,22.5747883 14.0366886,23.190969 13.7337723,23.6716839 C14.4524929,23.8842897 15.2126058,24 16.0009407,24 C20.4186265,24 24,20.4176858 24,16 C24,11.5813735 20.4186265,8 16.0009407,8 C11.5823142,8 8,11.5813735 8,16 Z" id="Shape" fill="#393737"></path>
        </g>
        <g id="Linkedin" transform="translate(1.000000, 410.000000)">
            <circle id="Oval-3" fill="#FFFFFF" cx="15.5" cy="15.5" r="15.5"></circle>
            <path d="M9.32790452,13.1685235 L11.8617121,13.1685235 L11.8617121,21.9991676 L9.32790452,21.9991676 L9.32790452,13.1685235 Z M10.5302211,12.0639647 L10.5118768,12.0639647 C9.59466134,12.0639647 9,11.3889102 9,10.5340633 C9,9.66173646 9.6122413,9 10.547801,9 C11.4825964,9 12.0573848,9.66007171 12.0757291,10.5315661 C12.0757291,11.3864131 11.4825964,12.0639647 10.5302211,12.0639647 L10.5302211,12.0639647 Z M22,22 L19.1268227,22 L19.1268227,17.4294404 C19.1268227,16.2333205 18.6773871,15.4175951 17.6890875,15.4175951 C16.9331491,15.4175951 16.5127587,15.9677936 16.3170861,16.4996799 C16.2437088,16.6894609 16.255174,16.9549878 16.255174,17.2213472 L16.255174,22 L13.4087488,22 C13.4087488,22 13.4454374,13.9043411 13.4087488,13.1685235 L16.255174,13.1685235 L16.255174,14.5544244 C16.4233302,13.9484569 17.3329022,13.0836215 18.7843956,13.0836215 C20.5851952,13.0836215 22,14.3546549 22,17.0889999 L22,22 L22,22 Z" id="Shape" fill="#393737"></path>
        </g>
        <g id="Google-Plus" transform="translate(1.000000, 376.000000)">
            <circle id="Oval-2-" fill="#FFFFFF" cx="15.5" cy="15.5" r="15.5"></circle>
            <path d="M13.5977671,22.2582902 C11.8698676,22.2582902 10.6228418,21.1294097 10.6228418,19.7738711 C10.6228418,18.4447907 12.1705204,17.3379586 13.8975657,17.3573612 C14.2998597,17.3626529 14.6756757,17.4287982 15.0164725,17.5425682 C15.9534501,18.2163688 16.6265023,18.596484 16.8161186,19.36377 C16.8519919,19.519873 16.8716369,19.6786218 16.8716369,19.8426623 C16.8716369,21.1990828 16.0251968,22.2582902 13.5977671,22.2582902 M14.0513086,14.306738 C12.8922579,14.2705786 11.7904338,12.9679563 11.590568,11.3963429 C11.3907022,9.82472954 12.167958,8.62176623 13.3270087,8.65704374 C14.4852053,8.6932032 15.5878836,9.95349247 15.7877494,11.5259878 C15.9876152,13.0976011 15.2103593,14.3428975 14.0513086,14.306738 M16.4539686,16.6341722 C16.0474041,16.3369591 15.2710024,15.6146519 15.2710024,15.1895579 C15.2710024,14.690381 15.4085169,14.4460842 16.1336709,13.8604774 C16.8776158,13.2598777 17.4046123,12.4158631 17.4046123,11.4351482 C17.4046123,10.2656985 16.9006772,9.12711665 15.9543042,8.7514111 L17.3806967,8.7514111 L18.3877128,8 L13.8881703,8 C11.87243,8 9.97370508,9.57778692 9.97370508,11.4051623 C9.97370508,13.2731068 11.34885,14.7803387 13.4004637,14.7803387 C13.543957,14.7803387 13.6814715,14.7776929 13.8172778,14.7671096 C13.684888,15.0299271 13.5883717,15.3271402 13.5883717,15.6340546 C13.5883717,16.153516 13.85913,16.5750823 14.201635,16.9181562 C13.9428345,16.9181562 13.6925752,16.9260936 13.4218169,16.9260936 C10.9234946,16.9260936 9,18.568262 9,20.273048 C9,21.9504939 11.1088402,23 13.6063083,23 C16.4539686,23 18.0281252,21.3313735 18.0281252,19.6530456 C18.0281252,18.3080903 17.6429138,17.5019991 16.4539686,16.6341722 M23,14.4434384 L21.2490391,14.4434384 L21.2490391,12.6354657 L19.838875,12.6354657 L19.838875,14.4434384 L18.0879141,14.4434384 L18.0879141,15.8995179 L19.838875,15.8995179 L19.838875,17.7074906 L21.2490391,17.7074906 L21.2490391,15.8995179 L23,15.8995179 L23,14.4434384" id="Shape" fill="#393737"></path>
        </g>
        <g id="Facebook" transform="translate(1.000000, 342.000000)">
            <circle id="Oval-1" fill="#FFFFFF" cx="15.5" cy="15.5" r="15.5"></circle>
            <path d="M16.6548127,23 L13.550972,23 L13.550972,15.4990533 L12,15.4990533 L12,12.9144787 L13.550972,12.9144787 L13.550972,11.3627872 C13.550972,9.25441808 14.4262684,8 16.9146515,8 L18.9857752,8 L18.9857752,10.5855213 L17.6913229,10.5855213 C16.7226174,10.5855213 16.658606,10.9466991 16.658606,11.6207713 L16.6543385,12.9144787 L19,12.9144787 L18.7254623,15.4990533 L16.6543385,15.4990533 L16.6543385,23 L16.6548127,23 Z" id="Path" fill="#393737"></path>
        </g>
        <g id="Atlantic-Icons/48px/Navigation/1010" transform="translate(1.000000, 307.000000)" fill="#FFFFFF">
            <path d="M2.197425,32.3000163 L23.999925,16.6257837 L2.197425,0.914713953 C0.988425,0.0382953488 -7.49999995e-05,0.566295349 -7.49999995e-05,2.08813256 L-7.49999995e-05,31.1265977 C-7.49999995e-05,32.6484349 0.988425,33.1764349 2.197425,32.3000163" id="Fill-1286"></path>
        </g>
        <g id="pause" transform="translate(1.000000, 274.000000)" fill="#FFFFFF">
            <path d="M4.5,0 L5.5,0 C7.98528137,-4.56538782e-16 10,2.01471863 10,4.5 L10,26.5 C10,28.9852814 7.98528137,31 5.5,31 L4.5,31 C2.01471863,31 3.04359188e-16,28.9852814 0,26.5 L0,4.5 C-3.04359188e-16,2.01471863 2.01471863,4.56538782e-16 4.5,0 Z" id="Rectangle-6"></path>
            <path d="M25.5,0 L26.5,0 C28.9852814,-4.56538782e-16 31,2.01471863 31,4.5 L31,26.5 C31,28.9852814 28.9852814,31 26.5,31 L25.5,31 C23.0147186,31 21,28.9852814 21,26.5 L21,4.5 C21,2.01471863 23.0147186,4.56538782e-16 25.5,0 Z" id="Rectangle-6-Copy"></path>
        </g>
        <g id="Atlantic-Icons/48px/Audio/10006" transform="translate(1.000000, 239.000000)" fill="#FFFFFF">
            <polygon id="Fill-1267" points="15.9996667 31.764898 15.9996667 21.6326531 10.671 26.8525714"></polygon>
            <path d="M27.8226,10.0509388 C28.8066,11.8938776 29.3332667,13.9523265 29.3332667,16.0917551 C29.3332667,19.5797551 27.9459333,22.8607347 25.4279333,25.3273469 C24.9066,25.8373878 24.9066,26.6641633 25.4279333,27.1742041 C25.6879333,27.429551 26.0292667,27.556898 26.3706,27.556898 C26.7112667,27.556898 27.0532667,27.429551 27.3132667,27.1742041 C30.3352667,24.2138776 31.9999333,20.2785306 31.9999333,16.0917551 C31.9999333,13.2444082 31.2279333,10.5146122 29.7859333,8.12767347 L27.8226,10.0509388 Z" id="Fill-1268"></path>
            <path d="M21.9837333,15.7706449 C21.9897333,15.8777469 21.9997333,15.9835429 21.9997333,16.091298 C21.9997333,17.6619102 21.3757333,19.1371755 20.2424,20.2473796 C19.7217333,20.7580735 19.7217333,21.5841959 20.2424,22.0948898 C20.5024,22.3495837 20.8444,22.4775837 21.1850667,22.4775837 C21.5264,22.4775837 21.8677333,22.3495837 22.1277333,22.0948898 C23.7650667,20.4916245 24.6664,18.3593796 24.6664,16.091298 C24.6664,15.2109714 24.5264,14.352849 24.2644,13.5358694 L21.9837333,15.7706449 Z" id="Fill-1269"></path>
            <path d="M31.6090667,0.800587755 C31.0884,0.290546939 30.2444,0.290546939 29.7237333,0.800587755 L15.9997333,14.2445061 L15.9997333,0.417893878 L5.37306667,10.2138122 L1.33306667,10.2138122 C0.599733333,10.2138122 -0.000266666667,10.8015673 -0.000266666667,11.5199347 L-0.000266666667,20.6627918 C-0.000266666667,21.3811592 0.599733333,21.9689143 1.33306667,21.9689143 L5.37306667,21.9689143 L6.78506667,23.2711184 L0.3904,29.5352816 C-0.130266667,30.0453224 -0.130266667,30.872098 0.3904,31.3821388 C0.6504,31.6374857 0.991733333,31.7648327 1.33306667,31.7648327 C1.6744,31.7648327 2.01506667,31.6374857 2.27573333,31.3821388 L8.72773333,25.0618122 L8.7284,25.0618122 L31.6090667,2.6474449 C32.1297333,2.13740408 32.1297333,1.31062857 31.6090667,0.800587755" id="Fill-1270"></path>
        </g>
        <g id="volume" transform="translate(0.000000, 205.000000)" fill="#FFFFFF">
            <path d="M1.33333092,10 C0.599998912,10 0,10.6 0,11.3333333 L0,20.6666667 C0,21.4 0.599998912,22 1.33333092,22 L5.37332359,22 L15.999971,32 L15.999971,0 L5.37332359,10 L1.33333092,10 Z M27.3132838,4.68666667 C26.9796402,4.33535971 26.4816867,4.19268507 26.012627,4.31399989 C25.5435674,4.43531472 25.1772283,4.80152489 25.0557478,5.27054246 C24.9342674,5.73956002 25.0767656,6.23756489 25.4279539,6.57133333 C27.9365493,9.06663148 29.3427809,12.46171 29.3332802,16 C29.3426771,19.5380738 27.9364477,22.9329068 25.4279539,25.428 C25.0813458,25.762766 24.942338,26.2585039 25.0643584,26.7246764 C25.1863787,27.190849 25.550438,27.554909 26.0166097,27.6769295 C26.4827815,27.7989501 26.9785185,27.6599421 27.3132838,27.3133333 C30.3237855,24.3195162 32.0114037,20.2456993 31.999942,16 C32.0112549,11.75433 30.3236595,7.68056822 27.3132838,4.68666667 Z M20.24263,9.87133333 C19.9924651,10.1213973 19.8519154,10.4606178 19.8519154,10.8143333 C19.8519154,11.1680489 19.9924651,11.5072693 20.24263,11.7573333 C21.3714064,12.8801779 22.0041796,14.4078621 21.9999601,16 C22.0043578,17.5923688 21.371571,19.1203261 20.24263,20.2433333 C19.8960218,20.5780993 19.7570141,21.0738372 19.8790344,21.5400098 C20.0010548,22.0061823 20.3651141,22.3702423 20.8312858,22.4922629 C21.2974575,22.6142835 21.7931945,22.4752754 22.1279599,22.1286667 C23.7589718,20.5069778 24.6731589,18.300009 24.666622,16 C24.666622,13.686 23.7652903,11.5093333 22.1286266,9.872 C21.6075355,9.3515211 20.7634221,9.35122282 20.2419633,9.87133333 L20.24263,9.87133333 Z" id="Shape"></path>
        </g>
        <g id="Atlantic-Icons/48px/Sources/12015" transform="translate(1.000000, 165.000000)">
            <rect id="Rectangle-3" fill="#FFFFFF" x="0" y="6.69387755" width="32" height="30.122449" rx="2"></rect>
            <path d="M10.4097883,27.730223 C7.3185177,27.730223 5.33333333,25.4507751 5.33333333,21.3946675 C5.33333333,17.2920837 7.48587335,15.0612245 10.5329005,15.0612245 C13.1932784,15.0612245 15.068816,16.9878756 15.2227062,19.2166222 L13.6395602,19.2166222 C13.4395028,17.5624908 12.2391588,16.4977626 10.5329005,16.4977626 C8.40921492,16.4977626 6.93379204,18.1011926 6.93379204,21.3946675 C6.93379204,24.5360383 8.36497147,26.278897 10.4405664,26.278897 C12.2391588,26.278897 13.562615,24.9437616 13.6549492,23.186115 L15.2380952,23.186115 C15.114983,25.5521778 13.2240565,27.730223 10.4097883,27.730223 L10.4097883,27.730223 Z" id="Path" fill="#4A4A4A"></path>
            <path d="M21.8383597,27.730223 C18.7470891,27.730223 16.7619048,25.4507751 16.7619048,21.3946675 C16.7619048,17.2920837 18.9144448,15.0612245 21.9614719,15.0612245 C24.6218498,15.0612245 26.4973874,16.9878756 26.6512776,19.2166222 L25.0681316,19.2166222 C24.8680742,17.5624908 23.6677302,16.4977626 21.9614719,16.4977626 C19.8377863,16.4977626 18.3623635,18.1011926 18.3623635,21.3946675 C18.3623635,24.5360383 19.7935429,26.278897 21.8691378,26.278897 C23.6677302,26.278897 24.9911865,24.9437616 25.0835206,23.186115 L26.6666667,23.186115 C26.5435545,25.5521778 24.6526279,27.730223 21.8383597,27.730223 L21.8383597,27.730223 Z" id="Path-Copy" fill="#4A4A4A"></path>
        </g>
        <g id="Atlantic-Icons/48px/Editor/7028" transform="translate(1.000000, 143.000000)" fill="#FFFFFF">
            <path d="M30.693551,0.406954545 L24.816,0.406954545 L24.816,0.407590909 C24.0950204,0.407590909 23.5098776,0.977136364 23.5098776,1.68031818 C23.5098776,2.38286364 24.0950204,2.95304545 24.816,2.95304545 L29.3874286,2.95304545 L29.3874286,7.40759091 C29.3874286,8.11013636 29.9725714,8.68031818 30.693551,8.68031818 C31.4151837,8.68031818 31.9996735,8.11013636 31.9996735,7.40759091 L31.9996735,1.67968182 C31.9996735,0.9765 31.4151837,0.406954545 30.693551,0.406954545" id="Fill-1482"></path>
            <path d="M7.83640816,0.407590909 L7.83640816,0.406954545 L1.95885714,0.406954545 C1.23787755,0.406954545 0.652734694,0.9765 0.652734694,1.67968182 L0.652734694,7.40759091 C0.652734694,8.11013636 1.23787755,8.68031818 1.95885714,8.68031818 C2.6804898,8.68031818 3.26497959,8.11013636 3.26497959,7.40759091 L3.26497959,2.95304545 L7.83640816,2.95304545 C8.55804082,2.95304545 9.14253061,2.38286364 9.14253061,1.68031818 C9.14253061,0.977136364 8.55804082,0.407590909 7.83640816,0.407590909" id="Fill-1483"></path>
            <path d="M7.83640816,18.2252 L3.26497959,18.2252 L3.26497959,13.7706545 C3.26497959,13.0681091 2.6804898,12.4979273 1.95885714,12.4979273 C1.23787755,12.4979273 0.652734694,13.0681091 0.652734694,13.7706545 L0.652734694,19.4979273 C0.652734694,20.2004727 1.23787755,20.7706545 1.95885714,20.7706545 L7.83640816,20.7706545 C8.55804082,20.7706545 9.14253061,20.2004727 9.14253061,19.4979273 C9.14253061,18.7947455 8.55804082,18.2252 7.83640816,18.2252" id="Fill-1484"></path>
            <path d="M30.693551,12.4981182 C29.9725714,12.4981182 29.3874286,13.0676636 29.3874286,13.7708455 L29.3874286,18.2253909 L24.816,18.2253909 C24.0950204,18.2253909 23.5098776,18.7949364 23.5098776,19.4981182 C23.5098776,20.2006636 24.0950204,20.7708455 24.816,20.7708455 L30.693551,20.7708455 C31.4151837,20.7708455 31.9996735,20.2006636 31.9996735,19.4981182 L31.9996735,13.7708455 C31.9996735,13.0676636 31.4151837,12.4981182 30.693551,12.4981182" id="Fill-1485"></path>
        </g>
        <g id="Network" transform="translate(0.000000, 103.000000)" fill="#FFFFFF">
            <path d="M10,5 C10,7.762 7.762,10 5,10 C2.239,10 0,7.762 0,5 C0,2.238 2.239,0 5,0 C7.762,0 10,2.238 10,5" id="Fill-5"></path>
            <path d="M10,27 C10,29.762 7.762,32 5,32 C2.239,32 0,29.762 0,27 C0,24.238 2.239,22 5,22 C7.762,22 10,24.238 10,27" id="Fill-7"></path>
            <path d="M25,15 C25,17.762 22.762,20 20,20 C17.239,20 15,17.762 15,15 C15,12.238 17.239,10 20,10 C22.762,10 25,12.238 25,15" id="Fill-9"></path>
            <polygon id="Fill-11" points="19.23752 16 2 3.651125 2.76176 2 20 14.34975"></polygon>
            <polygon id="Fill-13" transform="translate(12.000000, 22.500000) rotate(-2.000000) translate(-12.000000, -22.500000) " points="19 18.6305385 6.08546667 28 5 26.3694615 17.9145333 17"></polygon>
        </g>
        <g id="play-button-(Pressed)" transform="translate(1.000000, 69.000000)">
            <g id="play">
                <g id="Combined-Shape">
                    <use fill="#FFFFFF" xlink:href="#path-1"></use>
                    <use fill-opacity="0.3" fill="#000000" xlink:href="#path-1"></use>
                </g>
            </g>
        </g>
        <g id="play-button-(Hover)" transform="translate(1.000000, 35.000000)">
            <g id="play">
                <g id="Combined-Shape">
                    <use fill="#FFFFFF" xlink:href="#path-2"></use>
                    <use fill-opacity="0.1" fill="#000000" xlink:href="#path-2"></use>
                </g>
            </g>
        </g>
        <g id="play-button" transform="translate(1.000000, 1.000000)" fill="#FFFFFF">
            <g id="play">
                <path d="M16.0711111,0.124055457 C24.7663911,0.124055457 31.8151111,7.22572924 31.8151111,15.9863329 C31.8151111,24.7469365 24.7663911,31.8486103 16.0711111,31.8486103 C7.37583111,31.8486103 0.327111111,24.7469365 0.327111111,15.9863329 C0.327111111,7.22572924 7.37583111,0.124055457 16.0711111,0.124055457 Z M12.0977454,21.9647678 L23.3133511,16.1500599 L12.0919201,10.3255607 C11.8556726,10.2087182 11.6627911,10.3053254 11.6627911,10.5396631 L11.6679691,21.7500126 C11.6679691,21.9843503 11.8614979,22.0809575 12.0977454,21.9647678 Z" id="Combined-Shape"></path>
            </g>
        </g>
    </g>
</svg>